<svg width="79" height="92" viewBox="0 0 79 92" fill="none" xmlns="http://www.w3.org/2000/svg">
<g opacity="0.5">
<ellipse cx="0.970222" cy="1.02234" rx="0.970222" ry="1.02222" fill="#3D54A5"/>
<ellipse cx="0.970222" cy="9.19971" rx="0.970222" ry="1.02222" fill="#3D54A5"/>
<ellipse cx="0.970222" cy="17.3778" rx="0.970222" ry="1.02222" fill="#3D54A5"/>
<ellipse cx="0.970222" cy="25.5554" rx="0.970222" ry="1.02222" fill="#3D54A5"/>
<ellipse cx="0.970222" cy="33.7332" rx="0.970222" ry="1.02222" fill="#3D54A5"/>
<ellipse cx="0.970222" cy="41.9108" rx="0.970222" ry="1.02222" fill="#3D54A5"/>
<ellipse cx="0.970222" cy="50.0887" rx="0.970222" ry="1.02222" fill="#3D54A5"/>
<ellipse cx="0.970222" cy="58.2665" rx="0.970222" ry="1.02222" fill="#3D54A5"/>
<ellipse cx="0.970222" cy="66.4441" rx="0.970222" ry="1.02222" fill="#3D54A5"/>
<ellipse cx="0.970222" cy="74.6221" rx="0.970222" ry="1.02222" fill="#3D54A5"/>
<ellipse cx="0.970222" cy="82.7996" rx="0.970222" ry="1.02222" fill="#3D54A5"/>
<ellipse cx="0.970222" cy="90.9777" rx="0.970222" ry="1.02222" fill="#3D54A5"/>
<ellipse cx="8.73215" cy="1.0221" rx="0.970222" ry="1.02222" fill="#3D54A5"/>
<ellipse cx="8.73215" cy="9.19971" rx="0.970222" ry="1.02222" fill="#3D54A5"/>
<ellipse cx="8.73215" cy="17.3778" rx="0.970222" ry="1.02222" fill="#3D54A5"/>
<ellipse cx="8.73215" cy="25.5554" rx="0.970222" ry="1.02222" fill="#3D54A5"/>
<ellipse cx="8.73215" cy="33.7332" rx="0.970222" ry="1.02222" fill="#3D54A5"/>
<ellipse cx="8.73215" cy="41.9108" rx="0.970222" ry="1.02222" fill="#3D54A5"/>
<ellipse cx="8.73215" cy="50.0887" rx="0.970222" ry="1.02222" fill="#3D54A5"/>
<ellipse cx="8.73215" cy="58.2665" rx="0.970222" ry="1.02222" fill="#3D54A5"/>
<ellipse cx="8.73215" cy="66.4441" rx="0.970222" ry="1.02222" fill="#3D54A5"/>
<ellipse cx="8.73215" cy="74.6221" rx="0.970222" ry="1.02222" fill="#3D54A5"/>
<ellipse cx="8.73215" cy="82.7996" rx="0.970222" ry="1.02222" fill="#3D54A5"/>
<ellipse cx="8.73215" cy="90.9777" rx="0.970222" ry="1.02222" fill="#3D54A5"/>
<ellipse cx="16.4937" cy="1.0221" rx="0.970222" ry="1.02222" fill="#3D54A5"/>
<ellipse cx="16.4937" cy="9.19971" rx="0.970222" ry="1.02222" fill="#3D54A5"/>
<ellipse cx="16.4937" cy="17.3778" rx="0.970222" ry="1.02222" fill="#3D54A5"/>
<ellipse cx="16.4937" cy="25.5554" rx="0.970222" ry="1.02222" fill="#3D54A5"/>
<ellipse cx="16.4937" cy="33.7332" rx="0.970222" ry="1.02222" fill="#3D54A5"/>
<ellipse cx="16.4937" cy="41.9108" rx="0.970222" ry="1.02222" fill="#3D54A5"/>
<ellipse cx="16.4937" cy="50.0887" rx="0.970222" ry="1.02222" fill="#3D54A5"/>
<ellipse cx="16.4937" cy="58.2665" rx="0.970222" ry="1.02222" fill="#3D54A5"/>
<ellipse cx="16.4937" cy="66.4441" rx="0.970222" ry="1.02222" fill="#3D54A5"/>
<ellipse cx="16.4937" cy="74.6221" rx="0.970222" ry="1.02222" fill="#3D54A5"/>
<ellipse cx="16.4937" cy="82.7996" rx="0.970222" ry="1.02222" fill="#3D54A5"/>
<ellipse cx="16.4937" cy="90.9777" rx="0.970222" ry="1.02222" fill="#3D54A5"/>
<ellipse cx="24.2556" cy="1.0221" rx="0.970222" ry="1.02222" fill="#3D54A5"/>
<ellipse cx="24.2556" cy="9.19971" rx="0.970222" ry="1.02222" fill="#3D54A5"/>
<ellipse cx="24.2556" cy="17.3778" rx="0.970222" ry="1.02222" fill="#3D54A5"/>
<ellipse cx="24.2556" cy="25.5554" rx="0.970222" ry="1.02222" fill="#3D54A5"/>
<ellipse cx="24.2556" cy="33.7332" rx="0.970222" ry="1.02222" fill="#3D54A5"/>
<ellipse cx="24.2556" cy="41.9108" rx="0.970222" ry="1.02222" fill="#3D54A5"/>
<ellipse cx="24.2556" cy="50.0887" rx="0.970222" ry="1.02222" fill="#3D54A5"/>
<ellipse cx="24.2556" cy="58.2665" rx="0.970222" ry="1.02222" fill="#3D54A5"/>
<ellipse cx="24.2556" cy="66.4441" rx="0.970222" ry="1.02222" fill="#3D54A5"/>
<ellipse cx="24.2556" cy="74.6221" rx="0.970222" ry="1.02222" fill="#3D54A5"/>
<ellipse cx="24.2556" cy="82.7996" rx="0.970222" ry="1.02222" fill="#3D54A5"/>
<ellipse cx="24.2556" cy="90.9777" rx="0.970222" ry="1.02222" fill="#3D54A5"/>
<ellipse cx="32.0171" cy="1.0221" rx="0.970222" ry="1.02222" fill="#3D54A5"/>
<ellipse cx="32.0171" cy="9.19971" rx="0.970222" ry="1.02222" fill="#3D54A5"/>
<ellipse cx="32.0171" cy="17.3778" rx="0.970222" ry="1.02222" fill="#3D54A5"/>
<ellipse cx="32.0171" cy="25.5554" rx="0.970222" ry="1.02222" fill="#3D54A5"/>
<ellipse cx="32.0171" cy="33.7332" rx="0.970222" ry="1.02222" fill="#3D54A5"/>
<ellipse cx="32.0171" cy="41.9108" rx="0.970222" ry="1.02222" fill="#3D54A5"/>
<ellipse cx="32.0171" cy="50.0887" rx="0.970222" ry="1.02222" fill="#3D54A5"/>
<ellipse cx="32.0171" cy="58.2665" rx="0.970222" ry="1.02222" fill="#3D54A5"/>
<ellipse cx="32.0171" cy="66.4441" rx="0.970222" ry="1.02222" fill="#3D54A5"/>
<ellipse cx="32.0171" cy="74.6221" rx="0.970222" ry="1.02222" fill="#3D54A5"/>
<ellipse cx="32.0171" cy="82.7996" rx="0.970222" ry="1.02222" fill="#3D54A5"/>
<ellipse cx="32.0171" cy="90.9777" rx="0.970222" ry="1.02222" fill="#3D54A5"/>
<ellipse cx="39.7793" cy="1.0221" rx="0.970222" ry="1.02222" fill="#3D54A5"/>
<ellipse cx="39.7793" cy="9.19971" rx="0.970222" ry="1.02222" fill="#3D54A5"/>
<ellipse cx="39.7793" cy="17.3778" rx="0.970222" ry="1.02222" fill="#3D54A5"/>
<ellipse cx="39.7793" cy="25.5554" rx="0.970222" ry="1.02222" fill="#3D54A5"/>
<ellipse cx="39.7793" cy="33.7332" rx="0.970222" ry="1.02222" fill="#3D54A5"/>
<ellipse cx="39.7793" cy="41.9108" rx="0.970222" ry="1.02222" fill="#3D54A5"/>
<ellipse cx="39.7793" cy="50.0887" rx="0.970222" ry="1.02222" fill="#3D54A5"/>
<ellipse cx="39.7793" cy="58.2665" rx="0.970222" ry="1.02222" fill="#3D54A5"/>
<ellipse cx="39.7793" cy="66.4441" rx="0.970222" ry="1.02222" fill="#3D54A5"/>
<ellipse cx="39.7793" cy="74.6221" rx="0.970222" ry="1.02222" fill="#3D54A5"/>
<ellipse cx="39.7793" cy="82.7996" rx="0.970222" ry="1.02222" fill="#3D54A5"/>
<ellipse cx="39.7793" cy="90.9777" rx="0.970222" ry="1.02222" fill="#3D54A5"/>
</g>
<rect x="8.50482" y="10.7523" width="70.4952" height="70.4952" rx="10" fill="#3D54A5"/>
<g clip-path="url(#clip0_151_3557)">
<path d="M49.4091 49.6909L49.7273 46.1273H49.9182C50.1727 46.1273 50.4273 46.0637 50.6818 45.8728C51.9545 44.9818 52.7818 43.7728 53.4182 42.5637C52.9727 41.2909 52.4 40.0818 51.9545 39.0637C50.8091 44.1546 48.0727 43.5182 48.7727 45.3L48.0727 45.2364C48.1364 45.3637 48.0727 47.5273 47.6273 49.6273H49.4091V49.6909ZM40.7545 30.8546H41.5818L41.2 32L43.3 30.8546H46.4182C46.8 30.8546 47.0545 30.5364 47.0545 30.2182V26.2728C47.0545 25.8909 46.7364 25.5728 46.4182 25.5728H40.8182C40.4364 25.5728 40.1182 25.8909 40.1182 26.2728V30.1546C40.1182 30.5364 40.3727 30.8546 40.7545 30.8546ZM31.4 38.1091V41.7364C31.4 42.0546 31.6545 42.3728 32.0364 42.3728H34.9L36.8091 43.4546L36.4273 42.3728H37.1909C37.5091 42.3728 37.8273 42.1182 37.8273 41.7364V38.1091C37.8273 37.7909 37.5727 37.4728 37.1909 37.4728H31.9727C31.6545 37.4728 31.4 37.7909 31.4 38.1091ZM25.6727 34.2909H30.1273L33.1182 35.9455L32.4818 34.2909H33.6909C34.2 34.2909 34.6455 33.8455 34.6455 33.3364V27.6728C34.6455 27.1637 34.2 26.7182 33.6909 26.7182H25.6727C25.1636 26.7182 24.7182 27.1637 24.7182 27.6728V33.3364C24.7182 33.8455 25.1636 34.2909 25.6727 34.2909ZM24.5273 53V54.3364H25.1636V66.1728H26.3727V54.3364H34.4545C34.5818 53.8273 34.9 53.3182 35.3455 53H24.5273ZM53.8636 53H46.7364V53.0637C46.8636 54.2728 46.0364 55.4182 44.7636 55.7364L39.8 56.9455L39.9273 57.7728H40.6273L42.0909 65.8546L42.7273 65.7273L41.2636 57.7091H46.1L44.6364 65.7273L45.2727 65.8546L46.7364 57.7091H48.0091L49.4727 65.8546L50.1091 65.7273L48.6455 57.7091H48.7091L48.8364 54.3364H50.8727V66.3637H52.1455V54.3364H53.8636V53ZM36.8727 49.6909V48.9273H31.8455L30.1273 44.0909C30.0636 43.9637 30 43.9 29.8727 43.9H23.3818C23.1909 43.9 23.0636 44.0909 23.1273 44.2818L25.1636 49.6909H36.8727ZM27.2636 45.9364C27.5818 45.9364 27.8364 46.1909 27.8364 46.5091C27.8364 46.8273 27.5818 47.0818 27.2636 47.0818C26.9455 47.0818 26.6273 46.8273 26.6273 46.5091C26.6273 46.1909 26.8818 45.9364 27.2636 45.9364ZM43.5545 41.5455C41.5818 41.5455 39.9273 43.0728 39.7364 44.9818L42.1545 43.6455C43.0455 43.1364 44.2545 43.4546 44.7636 44.4091C45.2727 45.3 44.9545 46.5091 44.0636 47.0182C40.7545 48.8637 39.3545 49.7546 38.9727 49.7546H46.9273C47.3727 47.5909 47.4364 45.4909 47.3727 45.3C47.3091 43.2 45.6545 41.5455 43.5545 41.5455Z" fill="white"/>
<path d="M39.1 56.4364C39.1 56.4364 45.0818 55.3546 45.7818 54.3364C46.0364 53.9546 46.1636 53.4455 46.1 53H37C36.9364 53.0637 34.7091 53.2546 35.0273 55.2909L36.4909 64.8364C36.6182 65.8546 37.5727 66.5546 38.6546 66.4273C39.6727 66.2364 40.4364 65.2819 40.2455 64.2637L39.1 56.4364ZM62.7091 45.2364C60.6727 46.2546 59.1455 44.1546 60.0364 42.6273C60.6091 41.6728 61.0545 40.8455 61.2455 40.2091C60.6091 38.4909 59.9091 36.7728 59.2727 35.5C59.5273 35.5637 59.8455 35.6273 60.1 35.6909C60.9273 35.9455 61.6273 36.3273 62.0091 36.9637C62.0727 37.0273 62.0727 37.1546 62.1364 37.2182C62.8364 38.8091 61.5 41.4819 60.6091 42.9455C59.7182 44.3455 61.8818 45.7455 62.7727 44.2819C67.0364 37.1546 64.4273 33.0819 57.8727 32.7C56.8546 32.6364 56.0273 32.7 55.8364 32.7C55.2 32.6364 54.5 32.7637 53.8636 33.1455C52.0818 34.1 51.3182 36.2 52.0818 37.9819C52.1455 38.1091 52.1455 38.1728 52.2091 38.3C52.6546 39.1909 53.2273 40.4 53.7364 41.6728C54.3727 43.2637 54.9455 45.0455 55.2 46.4455C55.5818 48.4182 57.4273 49.6273 59.1455 49.5V50.1364C58.3182 50.2637 56.9182 49.8819 55.9636 48.9909L52.4 60.9546C52.0818 61.9728 52.6546 63.0546 53.6727 63.3091C54.6273 63.6273 55.7727 63.0546 56.0273 62.0364L59.2091 51.4091L59.7818 62.5455C59.8455 63.6909 60.9909 64.5182 61.7546 64.3273C62.8364 64.2637 63.6 63.3728 63.6 62.3546C62.7727 45.9364 62.7727 45.8091 62.7091 45.2364Z" fill="white"/>
<path d="M51.9545 32.8909C53.9578 32.8909 55.5818 31.2669 55.5818 29.2636C55.5818 27.2603 53.9578 25.6364 51.9545 25.6364C49.9513 25.6364 48.3273 27.2603 48.3273 29.2636C48.3273 31.2669 49.9513 32.8909 51.9545 32.8909Z" fill="white"/>
<path d="M43.3 40.591C45.3033 40.591 46.9273 38.967 46.9273 36.9637C46.9273 34.9604 45.3033 33.3364 43.3 33.3364C41.2967 33.3364 39.6727 34.9604 39.6727 36.9637C39.6727 38.967 41.2967 40.591 43.3 40.591Z" fill="white"/>
<path d="M54.6909 52.2363V50.3272H23.3182V52.2363H54.6909ZM34.7091 44.3454C34.2636 44.8545 34.2636 45.6818 34.8364 46.1272C37.5091 48.3545 38.1454 49.5636 39.2909 48.9272L43.7454 46.4454C44.3818 46.1272 44.5727 45.3 44.2545 44.7272C43.9364 44.0909 43.1091 43.9 42.5364 44.2181C42.4727 44.2818 38.5909 46.4454 38.8454 46.3181L36.5545 44.2818C35.9818 43.7727 35.1545 43.8363 34.7091 44.3454Z" fill="white"/>
</g>
<defs>
<clipPath id="clip0_151_3557">
<rect width="42" height="42" fill="white" transform="translate(23 25)"/>
</clipPath>
</defs>
</svg>
