<svg width="79" height="92" viewBox="0 0 79 92" fill="none" xmlns="http://www.w3.org/2000/svg">
<g opacity="0.5">
<ellipse cx="0.970222" cy="1.02234" rx="0.970222" ry="1.02222" fill="#3D54A5"/>
<ellipse cx="0.970222" cy="9.19971" rx="0.970222" ry="1.02222" fill="#3D54A5"/>
<ellipse cx="0.970222" cy="17.3778" rx="0.970222" ry="1.02222" fill="#3D54A5"/>
<ellipse cx="0.970222" cy="25.5554" rx="0.970222" ry="1.02222" fill="#3D54A5"/>
<ellipse cx="0.970222" cy="33.7332" rx="0.970222" ry="1.02222" fill="#3D54A5"/>
<ellipse cx="0.970222" cy="41.9108" rx="0.970222" ry="1.02222" fill="#3D54A5"/>
<ellipse cx="0.970222" cy="50.0887" rx="0.970222" ry="1.02222" fill="#3D54A5"/>
<ellipse cx="0.970222" cy="58.2665" rx="0.970222" ry="1.02222" fill="#3D54A5"/>
<ellipse cx="0.970222" cy="66.4441" rx="0.970222" ry="1.02222" fill="#3D54A5"/>
<ellipse cx="0.970222" cy="74.6221" rx="0.970222" ry="1.02222" fill="#3D54A5"/>
<ellipse cx="0.970222" cy="82.7996" rx="0.970222" ry="1.02222" fill="#3D54A5"/>
<ellipse cx="0.970222" cy="90.9777" rx="0.970222" ry="1.02222" fill="#3D54A5"/>
<ellipse cx="8.73215" cy="1.0221" rx="0.970222" ry="1.02222" fill="#3D54A5"/>
<ellipse cx="8.73215" cy="9.19971" rx="0.970222" ry="1.02222" fill="#3D54A5"/>
<ellipse cx="8.73215" cy="17.3778" rx="0.970222" ry="1.02222" fill="#3D54A5"/>
<ellipse cx="8.73215" cy="25.5554" rx="0.970222" ry="1.02222" fill="#3D54A5"/>
<ellipse cx="8.73215" cy="33.7332" rx="0.970222" ry="1.02222" fill="#3D54A5"/>
<ellipse cx="8.73215" cy="41.9108" rx="0.970222" ry="1.02222" fill="#3D54A5"/>
<ellipse cx="8.73215" cy="50.0887" rx="0.970222" ry="1.02222" fill="#3D54A5"/>
<ellipse cx="8.73215" cy="58.2665" rx="0.970222" ry="1.02222" fill="#3D54A5"/>
<ellipse cx="8.73215" cy="66.4441" rx="0.970222" ry="1.02222" fill="#3D54A5"/>
<ellipse cx="8.73215" cy="74.6221" rx="0.970222" ry="1.02222" fill="#3D54A5"/>
<ellipse cx="8.73215" cy="82.7996" rx="0.970222" ry="1.02222" fill="#3D54A5"/>
<ellipse cx="8.73215" cy="90.9777" rx="0.970222" ry="1.02222" fill="#3D54A5"/>
<ellipse cx="16.4937" cy="1.0221" rx="0.970222" ry="1.02222" fill="#3D54A5"/>
<ellipse cx="16.4937" cy="9.19971" rx="0.970222" ry="1.02222" fill="#3D54A5"/>
<ellipse cx="16.4937" cy="17.3778" rx="0.970222" ry="1.02222" fill="#3D54A5"/>
<ellipse cx="16.4937" cy="25.5554" rx="0.970222" ry="1.02222" fill="#3D54A5"/>
<ellipse cx="16.4937" cy="33.7332" rx="0.970222" ry="1.02222" fill="#3D54A5"/>
<ellipse cx="16.4937" cy="41.9108" rx="0.970222" ry="1.02222" fill="#3D54A5"/>
<ellipse cx="16.4937" cy="50.0887" rx="0.970222" ry="1.02222" fill="#3D54A5"/>
<ellipse cx="16.4937" cy="58.2665" rx="0.970222" ry="1.02222" fill="#3D54A5"/>
<ellipse cx="16.4937" cy="66.4441" rx="0.970222" ry="1.02222" fill="#3D54A5"/>
<ellipse cx="16.4937" cy="74.6221" rx="0.970222" ry="1.02222" fill="#3D54A5"/>
<ellipse cx="16.4937" cy="82.7996" rx="0.970222" ry="1.02222" fill="#3D54A5"/>
<ellipse cx="16.4937" cy="90.9777" rx="0.970222" ry="1.02222" fill="#3D54A5"/>
<ellipse cx="24.2556" cy="1.0221" rx="0.970222" ry="1.02222" fill="#3D54A5"/>
<ellipse cx="24.2556" cy="9.19971" rx="0.970222" ry="1.02222" fill="#3D54A5"/>
<ellipse cx="24.2556" cy="17.3778" rx="0.970222" ry="1.02222" fill="#3D54A5"/>
<ellipse cx="24.2556" cy="25.5554" rx="0.970222" ry="1.02222" fill="#3D54A5"/>
<ellipse cx="24.2556" cy="33.7332" rx="0.970222" ry="1.02222" fill="#3D54A5"/>
<ellipse cx="24.2556" cy="41.9108" rx="0.970222" ry="1.02222" fill="#3D54A5"/>
<ellipse cx="24.2556" cy="50.0887" rx="0.970222" ry="1.02222" fill="#3D54A5"/>
<ellipse cx="24.2556" cy="58.2665" rx="0.970222" ry="1.02222" fill="#3D54A5"/>
<ellipse cx="24.2556" cy="66.4441" rx="0.970222" ry="1.02222" fill="#3D54A5"/>
<ellipse cx="24.2556" cy="74.6221" rx="0.970222" ry="1.02222" fill="#3D54A5"/>
<ellipse cx="24.2556" cy="82.7996" rx="0.970222" ry="1.02222" fill="#3D54A5"/>
<ellipse cx="24.2556" cy="90.9777" rx="0.970222" ry="1.02222" fill="#3D54A5"/>
<ellipse cx="32.0171" cy="1.0221" rx="0.970222" ry="1.02222" fill="#3D54A5"/>
<ellipse cx="32.0171" cy="9.19971" rx="0.970222" ry="1.02222" fill="#3D54A5"/>
<ellipse cx="32.0171" cy="17.3778" rx="0.970222" ry="1.02222" fill="#3D54A5"/>
<ellipse cx="32.0171" cy="25.5554" rx="0.970222" ry="1.02222" fill="#3D54A5"/>
<ellipse cx="32.0171" cy="33.7332" rx="0.970222" ry="1.02222" fill="#3D54A5"/>
<ellipse cx="32.0171" cy="41.9108" rx="0.970222" ry="1.02222" fill="#3D54A5"/>
<ellipse cx="32.0171" cy="50.0887" rx="0.970222" ry="1.02222" fill="#3D54A5"/>
<ellipse cx="32.0171" cy="58.2665" rx="0.970222" ry="1.02222" fill="#3D54A5"/>
<ellipse cx="32.0171" cy="66.4441" rx="0.970222" ry="1.02222" fill="#3D54A5"/>
<ellipse cx="32.0171" cy="74.6221" rx="0.970222" ry="1.02222" fill="#3D54A5"/>
<ellipse cx="32.0171" cy="82.7996" rx="0.970222" ry="1.02222" fill="#3D54A5"/>
<ellipse cx="32.0171" cy="90.9777" rx="0.970222" ry="1.02222" fill="#3D54A5"/>
<ellipse cx="39.7793" cy="1.0221" rx="0.970222" ry="1.02222" fill="#3D54A5"/>
<ellipse cx="39.7793" cy="9.19971" rx="0.970222" ry="1.02222" fill="#3D54A5"/>
<ellipse cx="39.7793" cy="17.3778" rx="0.970222" ry="1.02222" fill="#3D54A5"/>
<ellipse cx="39.7793" cy="25.5554" rx="0.970222" ry="1.02222" fill="#3D54A5"/>
<ellipse cx="39.7793" cy="33.7332" rx="0.970222" ry="1.02222" fill="#3D54A5"/>
<ellipse cx="39.7793" cy="41.9108" rx="0.970222" ry="1.02222" fill="#3D54A5"/>
<ellipse cx="39.7793" cy="50.0887" rx="0.970222" ry="1.02222" fill="#3D54A5"/>
<ellipse cx="39.7793" cy="58.2665" rx="0.970222" ry="1.02222" fill="#3D54A5"/>
<ellipse cx="39.7793" cy="66.4441" rx="0.970222" ry="1.02222" fill="#3D54A5"/>
<ellipse cx="39.7793" cy="74.6221" rx="0.970222" ry="1.02222" fill="#3D54A5"/>
<ellipse cx="39.7793" cy="82.7996" rx="0.970222" ry="1.02222" fill="#3D54A5"/>
<ellipse cx="39.7793" cy="90.9777" rx="0.970222" ry="1.02222" fill="#3D54A5"/>
</g>
<rect x="8.50482" y="10.7523" width="70.4952" height="70.4952" rx="10" fill="#3D54A5"/>
<path d="M51.2188 54.5312V50.893C50.4182 50.8197 49.6595 50.5025 49.045 49.9843C48.4306 49.466 47.9899 48.7717 47.7826 47.995L47.2812 48.4937V51.9062C47.2823 52.7762 47.6283 53.6102 48.2435 54.2253C48.8586 54.8404 49.6926 55.1865 50.5625 55.1875C50.7365 55.1875 50.9035 55.1184 51.0265 54.9953C51.1496 54.8722 51.2188 54.7053 51.2188 54.5312Z" fill="white"/>
<path d="M38.7572 45.9252C38.8805 45.8633 39.0202 45.8419 39.1564 45.8639C39.2926 45.886 39.4183 45.9503 39.5159 46.0479L40.7188 47.2508V46.6563C40.7178 46.2254 40.8017 45.7985 40.9658 45.4001C41.1298 45.0016 41.3707 44.6393 41.6747 44.334C42.2887 43.7173 43.1225 43.3697 43.9928 43.3678C44.863 43.3659 45.6984 43.7098 46.3151 44.3238C46.9318 44.9378 47.2793 45.7716 47.2813 46.6418L47.8752 46.0479C47.9725 45.9495 48.0985 45.8843 48.2352 45.8618C48.3718 45.8393 48.5121 45.8606 48.6359 45.9226C48.7597 45.9847 48.8607 46.0843 48.9245 46.2072C48.9882 46.3302 49.0114 46.4701 48.9908 46.6071C48.9136 47.1523 49.0099 47.708 49.2659 48.1955C49.5219 48.683 49.9248 49.0776 50.4175 49.3235C50.9102 49.5695 51.4677 49.6543 52.0112 49.5659C52.5547 49.4775 53.0567 49.2204 53.446 48.8311C53.8354 48.4417 54.0925 47.9397 54.1809 47.3962C54.2692 46.8527 54.1845 46.2952 53.9385 45.8025C53.6926 45.3098 53.2979 44.907 52.8104 44.6509C52.3229 44.3949 51.7673 44.2986 51.222 44.3758C51.0851 44.3964 50.9451 44.3732 50.8222 44.3095C50.6993 44.2457 50.5996 44.1447 50.5376 44.0209C50.4755 43.8971 50.4542 43.7569 50.4768 43.6202C50.4993 43.4836 50.5644 43.3575 50.6629 43.2602L54.8386 39.0779L51.8973 36.1373C51.6258 36.7057 51.222 37.2007 50.7196 37.5807C50.2172 37.9607 49.6309 38.2146 49.0101 38.3211C48.3892 38.4276 47.7519 38.3837 47.1516 38.1928C46.5512 38.002 46.0054 37.67 45.56 37.2246C45.1146 36.7791 44.7825 36.2333 44.5917 35.633C44.4009 35.0327 44.3569 34.3953 44.4634 33.7745C44.57 33.1536 44.8239 32.5674 45.2039 32.065C45.5839 31.5626 46.0789 31.1587 46.6473 30.8872L43.6981 27.9492L39.5159 32.1249C39.4185 32.2234 39.2925 32.2886 39.1558 32.3111C39.0192 32.3336 38.8789 32.3123 38.7551 32.2503C38.6313 32.1882 38.5303 32.0886 38.4666 31.9656C38.4028 31.8427 38.3796 31.7028 38.4002 31.5658C38.4575 31.1632 38.4204 30.7528 38.292 30.3669C38.1635 29.9811 37.9472 29.6304 37.66 29.3424C37.1597 28.8658 36.4951 28.5999 35.8041 28.5999C35.1131 28.5999 34.4486 28.8658 33.9482 29.3424C33.5602 29.7322 33.3045 30.234 33.217 30.7769C33.1295 31.3199 33.2148 31.8766 33.4608 32.3684C33.7068 32.8603 34.101 33.2625 34.5879 33.5183C35.0747 33.774 35.6296 33.8704 36.1742 33.7938C36.3112 33.7732 36.4511 33.7964 36.5741 33.8601C36.697 33.9239 36.7966 34.0249 36.8587 34.1487C36.9207 34.2725 36.942 34.4127 36.9195 34.5494C36.897 34.686 36.8318 34.812 36.7334 34.9094L32.557 39.0832L36.734 43.2654C36.8326 43.3628 36.8978 43.4889 36.9203 43.6256C36.9428 43.7624 36.9215 43.9027 36.8593 44.0266C36.7972 44.1504 36.6974 44.2514 36.5744 44.3151C36.4513 44.3788 36.3112 44.4019 36.1742 44.3811C35.629 44.3039 35.0733 44.4001 34.5858 44.6562C34.0983 44.9122 33.7037 45.3151 33.4577 45.8078C33.2118 46.3004 33.127 46.858 33.2154 47.4015C33.3038 47.945 33.5609 48.4469 33.9502 48.8363C34.3396 49.2257 34.8415 49.4827 35.3851 49.5711C35.9286 49.6595 36.4861 49.5747 36.9788 49.3288C37.4715 49.0829 37.8743 48.6882 38.1304 48.2007C38.3864 47.7132 38.4826 47.1575 38.4055 46.6123C38.384 46.4753 38.4065 46.335 38.4697 46.2116C38.5328 46.0881 38.6335 45.9879 38.7572 45.9252Z" fill="white"/>
<path d="M46.1761 63.1485L46.8324 61.836C47.1499 61.1978 47.3152 60.4947 47.3152 59.7819C47.3152 59.0691 47.1499 58.366 46.8324 57.7279L46.5922 57.2462C46.1832 56.4254 45.9698 55.5211 45.9688 54.6041V46.6563C45.9688 46.1341 45.7613 45.6334 45.3921 45.2642C45.0229 44.8949 44.5221 44.6875 44 44.6875C43.4779 44.6875 42.9771 44.8949 42.6079 45.2642C42.2387 45.6334 42.0312 46.1341 42.0312 46.6563V55.8438C42.0312 56.0178 41.9621 56.1847 41.839 56.3078C41.716 56.4309 41.549 56.5 41.375 56.5C41.201 56.5 41.034 56.4309 40.911 56.3078C40.7879 56.1847 40.7188 56.0178 40.7188 55.8438V49.1067L39.6071 47.9957C39.3833 48.8324 38.8895 49.5718 38.2022 50.099C37.515 50.6261 36.6729 50.9115 35.8067 50.9107C35.7372 50.9107 35.6696 50.9042 35.6007 50.9009L33.9955 55.5209C33.863 55.8045 33.7991 56.1153 33.8092 56.4282C33.8192 56.741 33.9028 57.0471 34.0532 57.3216C34.0651 57.3429 34.0756 57.3648 34.0847 57.3873L36.3875 62.8368C36.6453 63.318 36.7806 63.8553 36.7812 64.4013V65.0313H45.9688V64.0285C45.969 63.7231 46.04 63.4219 46.1761 63.1485ZM63.0312 40.0938H59.0938C58.9197 40.0938 58.7528 40.0246 58.6297 39.9016C58.5066 39.7785 58.4375 39.6116 58.4375 39.4375C58.4375 39.2635 58.5066 39.0966 58.6297 38.9735C58.7528 38.8504 58.9197 38.7813 59.0938 38.7813H63.0312C63.2053 38.7813 63.3722 38.8504 63.4953 38.9735C63.6184 39.0966 63.6875 39.2635 63.6875 39.4375C63.6875 39.6116 63.6184 39.7785 63.4953 39.9016C63.3722 40.0246 63.2053 40.0938 63.0312 40.0938ZM58.3843 32.5469C58.2399 32.5469 58.0995 32.4992 57.9849 32.4113C57.8703 32.3233 57.7879 32.2 57.7505 32.0605C57.7131 31.921 57.7228 31.773 57.7781 31.6395C57.8333 31.5061 57.9311 31.3946 58.0562 31.3223L61.4687 29.3536C61.6194 29.2679 61.7978 29.2453 61.965 29.2907C62.1323 29.3362 62.2748 29.4459 62.3614 29.5959C62.448 29.746 62.4718 29.9243 62.4275 30.0918C62.3832 30.2594 62.2745 30.4026 62.125 30.4902L58.7125 32.459C58.6128 32.5168 58.4996 32.5471 58.3843 32.5469ZM61.7936 49.6094C61.6783 49.6096 61.5651 49.5793 61.4654 49.5215L58.0529 47.5527C57.9777 47.5099 57.9117 47.4527 57.8586 47.3843C57.8056 47.3159 57.7666 47.2377 57.744 47.1542C57.7213 47.0706 57.7154 46.9835 57.7265 46.8976C57.7377 46.8118 57.7657 46.729 57.809 46.6541C57.8522 46.5791 57.9099 46.5135 57.9787 46.4609C58.0474 46.4083 58.1259 46.3699 58.2096 46.3478C58.2932 46.3256 58.3804 46.3203 58.4662 46.332C58.5519 46.3437 58.6345 46.3723 58.7092 46.4161L62.1217 48.3848C62.2468 48.4571 62.3446 48.5686 62.3998 48.702C62.4551 48.8355 62.4648 48.9835 62.4274 49.123C62.39 49.2625 62.3076 49.3858 62.193 49.4738C62.0784 49.5617 61.938 49.6094 61.7936 49.6094ZM28.9062 40.0938H24.9688C24.7947 40.0938 24.6278 40.0246 24.5047 39.9016C24.3816 39.7785 24.3125 39.6116 24.3125 39.4375C24.3125 39.2635 24.3816 39.0966 24.5047 38.9735C24.6278 38.8504 24.7947 38.7813 24.9688 38.7813H28.9062C29.0803 38.7813 29.2472 38.8504 29.3703 38.9735C29.4934 39.0966 29.5625 39.2635 29.5625 39.4375C29.5625 39.6116 29.4934 39.7785 29.3703 39.9016C29.2472 40.0246 29.0803 40.0938 28.9062 40.0938ZM29.6157 32.5469C29.5004 32.5471 29.3872 32.5168 29.2875 32.459L25.875 30.4902C25.7255 30.4026 25.6168 30.2594 25.5725 30.0918C25.5282 29.9243 25.552 29.746 25.6386 29.5959C25.7252 29.4459 25.8677 29.3362 26.035 29.2907C26.2022 29.2453 26.3806 29.2679 26.5313 29.3536L29.9438 31.3223C30.0689 31.3946 30.1667 31.5061 30.2219 31.6395C30.2772 31.773 30.2869 31.921 30.2495 32.0605C30.2121 32.2 30.1297 32.3233 30.0151 32.4113C29.9005 32.4992 29.7601 32.5469 29.6157 32.5469ZM26.2064 49.6094C26.062 49.6094 25.9216 49.5617 25.807 49.4738C25.6924 49.3858 25.61 49.2625 25.5726 49.123C25.5352 48.9835 25.5449 48.8355 25.6002 48.702C25.6554 48.5686 25.7532 48.4571 25.8783 48.3848L29.2908 46.4161C29.3655 46.3723 29.4481 46.3437 29.5338 46.332C29.6196 46.3203 29.7068 46.3256 29.7904 46.3478C29.8741 46.3699 29.9526 46.4083 30.0213 46.4609C30.0901 46.5135 30.1478 46.5791 30.191 46.6541C30.2343 46.729 30.2623 46.8118 30.2735 46.8976C30.2846 46.9835 30.2787 47.0706 30.256 47.1542C30.2334 47.2377 30.1944 47.3159 30.1414 47.3843C30.0883 47.4527 30.0223 47.5099 29.9471 47.5527L26.5346 49.5215C26.4349 49.5793 26.3217 49.6096 26.2064 49.6094Z" fill="white"/>
</svg>
