<svg width="79" height="92" viewBox="0 0 79 92" fill="none" xmlns="http://www.w3.org/2000/svg">
<g opacity="0.5">
<ellipse cx="0.970222" cy="1.02234" rx="0.970222" ry="1.02222" fill="#3D54A5"/>
<ellipse cx="0.970222" cy="9.19971" rx="0.970222" ry="1.02222" fill="#3D54A5"/>
<ellipse cx="0.970222" cy="17.3778" rx="0.970222" ry="1.02222" fill="#3D54A5"/>
<ellipse cx="0.970222" cy="25.5554" rx="0.970222" ry="1.02222" fill="#3D54A5"/>
<ellipse cx="0.970222" cy="33.7332" rx="0.970222" ry="1.02222" fill="#3D54A5"/>
<ellipse cx="0.970222" cy="41.9108" rx="0.970222" ry="1.02222" fill="#3D54A5"/>
<ellipse cx="0.970222" cy="50.0887" rx="0.970222" ry="1.02222" fill="#3D54A5"/>
<ellipse cx="0.970222" cy="58.2665" rx="0.970222" ry="1.02222" fill="#3D54A5"/>
<ellipse cx="0.970222" cy="66.4441" rx="0.970222" ry="1.02222" fill="#3D54A5"/>
<ellipse cx="0.970222" cy="74.6221" rx="0.970222" ry="1.02222" fill="#3D54A5"/>
<ellipse cx="0.970222" cy="82.7996" rx="0.970222" ry="1.02222" fill="#3D54A5"/>
<ellipse cx="0.970222" cy="90.9777" rx="0.970222" ry="1.02222" fill="#3D54A5"/>
<ellipse cx="8.73215" cy="1.0221" rx="0.970222" ry="1.02222" fill="#3D54A5"/>
<ellipse cx="8.73215" cy="9.19971" rx="0.970222" ry="1.02222" fill="#3D54A5"/>
<ellipse cx="8.73215" cy="17.3778" rx="0.970222" ry="1.02222" fill="#3D54A5"/>
<ellipse cx="8.73215" cy="25.5554" rx="0.970222" ry="1.02222" fill="#3D54A5"/>
<ellipse cx="8.73215" cy="33.7332" rx="0.970222" ry="1.02222" fill="#3D54A5"/>
<ellipse cx="8.73215" cy="41.9108" rx="0.970222" ry="1.02222" fill="#3D54A5"/>
<ellipse cx="8.73215" cy="50.0887" rx="0.970222" ry="1.02222" fill="#3D54A5"/>
<ellipse cx="8.73215" cy="58.2665" rx="0.970222" ry="1.02222" fill="#3D54A5"/>
<ellipse cx="8.73215" cy="66.4441" rx="0.970222" ry="1.02222" fill="#3D54A5"/>
<ellipse cx="8.73215" cy="74.6221" rx="0.970222" ry="1.02222" fill="#3D54A5"/>
<ellipse cx="8.73215" cy="82.7996" rx="0.970222" ry="1.02222" fill="#3D54A5"/>
<ellipse cx="8.73215" cy="90.9777" rx="0.970222" ry="1.02222" fill="#3D54A5"/>
<ellipse cx="16.4937" cy="1.0221" rx="0.970222" ry="1.02222" fill="#3D54A5"/>
<ellipse cx="16.4937" cy="9.19971" rx="0.970222" ry="1.02222" fill="#3D54A5"/>
<ellipse cx="16.4937" cy="17.3778" rx="0.970222" ry="1.02222" fill="#3D54A5"/>
<ellipse cx="16.4937" cy="25.5554" rx="0.970222" ry="1.02222" fill="#3D54A5"/>
<ellipse cx="16.4937" cy="33.7332" rx="0.970222" ry="1.02222" fill="#3D54A5"/>
<ellipse cx="16.4937" cy="41.9108" rx="0.970222" ry="1.02222" fill="#3D54A5"/>
<ellipse cx="16.4937" cy="50.0887" rx="0.970222" ry="1.02222" fill="#3D54A5"/>
<ellipse cx="16.4937" cy="58.2665" rx="0.970222" ry="1.02222" fill="#3D54A5"/>
<ellipse cx="16.4937" cy="66.4441" rx="0.970222" ry="1.02222" fill="#3D54A5"/>
<ellipse cx="16.4937" cy="74.6221" rx="0.970222" ry="1.02222" fill="#3D54A5"/>
<ellipse cx="16.4937" cy="82.7996" rx="0.970222" ry="1.02222" fill="#3D54A5"/>
<ellipse cx="16.4937" cy="90.9777" rx="0.970222" ry="1.02222" fill="#3D54A5"/>
<ellipse cx="24.2556" cy="1.0221" rx="0.970222" ry="1.02222" fill="#3D54A5"/>
<ellipse cx="24.2556" cy="9.19971" rx="0.970222" ry="1.02222" fill="#3D54A5"/>
<ellipse cx="24.2556" cy="17.3778" rx="0.970222" ry="1.02222" fill="#3D54A5"/>
<ellipse cx="24.2556" cy="25.5554" rx="0.970222" ry="1.02222" fill="#3D54A5"/>
<ellipse cx="24.2556" cy="33.7332" rx="0.970222" ry="1.02222" fill="#3D54A5"/>
<ellipse cx="24.2556" cy="41.9108" rx="0.970222" ry="1.02222" fill="#3D54A5"/>
<ellipse cx="24.2556" cy="50.0887" rx="0.970222" ry="1.02222" fill="#3D54A5"/>
<ellipse cx="24.2556" cy="58.2665" rx="0.970222" ry="1.02222" fill="#3D54A5"/>
<ellipse cx="24.2556" cy="66.4441" rx="0.970222" ry="1.02222" fill="#3D54A5"/>
<ellipse cx="24.2556" cy="74.6221" rx="0.970222" ry="1.02222" fill="#3D54A5"/>
<ellipse cx="24.2556" cy="82.7996" rx="0.970222" ry="1.02222" fill="#3D54A5"/>
<ellipse cx="24.2556" cy="90.9777" rx="0.970222" ry="1.02222" fill="#3D54A5"/>
<ellipse cx="32.0171" cy="1.0221" rx="0.970222" ry="1.02222" fill="#3D54A5"/>
<ellipse cx="32.0171" cy="9.19971" rx="0.970222" ry="1.02222" fill="#3D54A5"/>
<ellipse cx="32.0171" cy="17.3778" rx="0.970222" ry="1.02222" fill="#3D54A5"/>
<ellipse cx="32.0171" cy="25.5554" rx="0.970222" ry="1.02222" fill="#3D54A5"/>
<ellipse cx="32.0171" cy="33.7332" rx="0.970222" ry="1.02222" fill="#3D54A5"/>
<ellipse cx="32.0171" cy="41.9108" rx="0.970222" ry="1.02222" fill="#3D54A5"/>
<ellipse cx="32.0171" cy="50.0887" rx="0.970222" ry="1.02222" fill="#3D54A5"/>
<ellipse cx="32.0171" cy="58.2665" rx="0.970222" ry="1.02222" fill="#3D54A5"/>
<ellipse cx="32.0171" cy="66.4441" rx="0.970222" ry="1.02222" fill="#3D54A5"/>
<ellipse cx="32.0171" cy="74.6221" rx="0.970222" ry="1.02222" fill="#3D54A5"/>
<ellipse cx="32.0171" cy="82.7996" rx="0.970222" ry="1.02222" fill="#3D54A5"/>
<ellipse cx="32.0171" cy="90.9777" rx="0.970222" ry="1.02222" fill="#3D54A5"/>
<ellipse cx="39.7793" cy="1.0221" rx="0.970222" ry="1.02222" fill="#3D54A5"/>
<ellipse cx="39.7793" cy="9.19971" rx="0.970222" ry="1.02222" fill="#3D54A5"/>
<ellipse cx="39.7793" cy="17.3778" rx="0.970222" ry="1.02222" fill="#3D54A5"/>
<ellipse cx="39.7793" cy="25.5554" rx="0.970222" ry="1.02222" fill="#3D54A5"/>
<ellipse cx="39.7793" cy="33.7332" rx="0.970222" ry="1.02222" fill="#3D54A5"/>
<ellipse cx="39.7793" cy="41.9108" rx="0.970222" ry="1.02222" fill="#3D54A5"/>
<ellipse cx="39.7793" cy="50.0887" rx="0.970222" ry="1.02222" fill="#3D54A5"/>
<ellipse cx="39.7793" cy="58.2665" rx="0.970222" ry="1.02222" fill="#3D54A5"/>
<ellipse cx="39.7793" cy="66.4441" rx="0.970222" ry="1.02222" fill="#3D54A5"/>
<ellipse cx="39.7793" cy="74.6221" rx="0.970222" ry="1.02222" fill="#3D54A5"/>
<ellipse cx="39.7793" cy="82.7996" rx="0.970222" ry="1.02222" fill="#3D54A5"/>
<ellipse cx="39.7793" cy="90.9777" rx="0.970222" ry="1.02222" fill="#3D54A5"/>
</g>
<rect x="8.50482" y="10.7523" width="70.4952" height="70.4952" rx="10" fill="#3D54A5"/>
<path fill-rule="evenodd" clip-rule="evenodd" d="M37.3694 33.716L36.0399 35.0455C35.8233 35.2622 35.773 35.5799 35.9121 35.8529L36.9282 37.8471C36.9344 37.8588 36.9375 37.8719 36.9373 37.8852C36.9371 37.8985 36.9334 37.9115 36.9268 37.923C36.6032 38.5059 36.3469 39.1239 36.1629 39.7648C36.1594 39.7776 36.1527 39.7893 36.1435 39.7988C36.1343 39.8084 36.1228 39.8154 36.1102 39.8193L33.9829 40.5106C33.6914 40.6052 33.5024 40.8655 33.5024 41.1719V43.2476C33.5024 43.554 33.6914 43.8142 33.9829 43.9089L36.1102 44.6001C36.1228 44.604 36.1343 44.6111 36.1435 44.6206C36.1527 44.6301 36.1594 44.6419 36.1629 44.6547C36.3469 45.2956 36.6032 45.9135 36.9268 46.4965C36.9402 46.5207 36.9407 46.5477 36.9282 46.5723L35.9121 48.5665C35.773 48.8395 35.8233 49.1572 36.0399 49.3739L37.5077 50.8417C37.7244 51.0583 38.0421 51.1086 38.3151 50.9696L40.3093 49.9535C40.321 49.9473 40.3341 49.9442 40.3474 49.9444C40.3607 49.9447 40.3737 49.9483 40.3852 49.9549C40.9682 50.2785 41.5861 50.5348 42.227 50.7188C42.2398 50.7223 42.2515 50.729 42.261 50.7382C42.2706 50.7474 42.2776 50.7589 42.2815 50.7715L42.9728 52.8989C43.0674 53.1903 43.3277 53.3793 43.6341 53.3793H45.7098C46.0162 53.3793 46.2765 53.1903 46.3711 52.8989L47.0623 50.7715C47.0662 50.7589 47.0733 50.7474 47.0828 50.7382C47.0923 50.729 47.1041 50.7223 47.1169 50.7188C47.7578 50.5348 48.3757 50.2785 48.9587 49.9549C48.9702 49.9483 48.9832 49.9447 48.9965 49.9445C49.0097 49.9442 49.0229 49.9473 49.0346 49.9535L51.0287 50.9696C51.3017 51.1086 51.6194 51.0583 51.8361 50.8417L53.3039 49.3739C53.5205 49.1572 53.5708 48.8395 53.4317 48.5665L52.4156 46.5723C52.4094 46.5606 52.4063 46.5475 52.4065 46.5342C52.4068 46.5209 52.4104 46.508 52.417 46.4965C52.7406 45.9135 52.9969 45.2955 53.181 44.6547C53.1844 44.6419 53.1911 44.6301 53.2003 44.6206C53.2095 44.6111 53.221 44.604 53.2337 44.6001L55.361 43.9089C55.6524 43.8142 55.8415 43.5539 55.8415 43.2476V41.1719C55.8415 40.8654 55.6524 40.6052 55.361 40.5106L53.2337 39.8193C53.221 39.8154 53.2095 39.8083 53.2003 39.7988C53.1911 39.7893 53.1844 39.7776 53.181 39.7648C52.9969 39.1239 52.7406 38.506 52.417 37.923C52.4104 37.9114 52.4068 37.8985 52.4066 37.8852C52.4064 37.8719 52.4095 37.8588 52.4157 37.8471L53.4318 35.8529C53.5709 35.5799 53.5205 35.2622 53.304 35.0455L51.9745 33.716C51.9593 33.7009 51.9388 33.6924 51.9174 33.6924C51.8959 33.6924 51.8754 33.7009 51.8602 33.716L49.3448 36.2315C49.3371 36.2389 49.3311 36.2478 49.327 36.2576C49.3229 36.2674 49.3209 36.278 49.321 36.2886V38.0391C49.321 38.0596 49.3277 38.0772 49.3412 38.0926C50.3097 39.1899 50.8976 40.6312 50.8976 42.2099C50.8976 45.6483 48.1102 48.4356 44.6718 48.4356C41.2335 48.4356 38.4461 45.6483 38.4461 42.2099C38.4461 40.6312 39.0339 39.1899 40.0024 38.0926C40.0156 38.0779 40.0229 38.0588 40.0226 38.0391V36.2887C40.0227 36.2781 40.0207 36.2675 40.0166 36.2577C40.0126 36.2479 40.0065 36.239 39.9989 36.2316L37.4834 33.7161C37.476 33.7086 37.4671 33.7027 37.4573 33.6986C37.4475 33.6946 37.437 33.6925 37.4264 33.6925C37.4159 33.6924 37.4054 33.6945 37.3956 33.6986C37.3858 33.7026 37.3769 33.7086 37.3694 33.716ZM28.7067 56.2387H30.8268C31.2155 56.2387 31.5335 56.5567 31.5335 56.9454V64.0124C31.5335 64.401 31.2155 64.719 30.8268 64.719H28.7067C28.318 64.719 28 64.401 28 64.0124V56.9454C28.0001 56.5567 28.3181 56.2387 28.7067 56.2387ZM48.5884 57.5691C50.7651 56.6604 54.4113 54.7823 57.4208 53.087C58.0483 52.7335 58.8224 52.8779 59.2802 53.4339L59.3485 53.5168C59.5861 53.8044 59.7054 54.1715 59.6824 54.5437C59.6594 54.916 59.4957 55.2656 59.2246 55.5217C56.8892 57.7344 53.6506 60.4923 50.9949 62.2141C49.1744 63.3944 46.8436 64.8002 44.6421 64.9795C42.8955 65.1218 41.1673 64.4827 39.4181 64.2305C37.286 63.9232 35.046 63.8947 32.8278 63.9118C32.8171 63.912 32.8065 63.91 32.7966 63.906C32.7867 63.9019 32.7777 63.896 32.7702 63.8885C32.7626 63.8809 32.7566 63.872 32.7525 63.8621C32.7484 63.8522 32.7463 63.8417 32.7464 63.831V56.9454C32.7464 56.497 32.5818 56.3337 32.7263 56.2992C33.2317 56.1787 33.7336 56.0547 34.2343 55.9182C36.3299 55.347 37.7882 53.6698 40.1097 54.3697L45.3854 55.9602C47.2 56.5073 46.2321 57.9162 45.4271 58.3483C45.1845 58.4786 44.882 58.5186 44.5781 58.4547C43.3021 58.1864 41.6393 57.7079 40.4345 57.7429C40.2078 57.7494 39.9816 57.7687 39.7571 57.8009C39.5995 57.825 39.4577 57.9103 39.3626 58.0383C39.2675 58.1663 39.2267 58.3267 39.2492 58.4846C39.2717 58.6425 39.3555 58.7851 39.4826 58.8815C39.6096 58.9779 39.7695 59.0203 39.9276 58.9995C40.2955 58.9468 40.6335 58.9336 40.9949 58.968C41.8934 59.0535 43.3094 59.4241 44.3317 59.639C44.9142 59.7614 45.5076 59.6777 45.9974 59.4158C45.9995 59.4147 46.0013 59.4138 46.0035 59.4129C47.7309 58.666 46.0534 58.6274 48.5884 57.5691ZM36.8735 28.3791C37.8199 28.3791 38.475 29.2984 38.2022 30.1793C38.1976 30.1934 38.1971 30.2084 38.2006 30.2227C38.2042 30.237 38.2116 30.2501 38.2222 30.2604L42.6795 34.7177C42.737 34.7741 42.7827 34.8414 42.8139 34.9157C42.845 34.9899 42.861 35.0697 42.8609 35.1503V43.2502C42.8609 43.411 42.7971 43.5653 42.6833 43.679C42.5696 43.7927 42.4153 43.8566 42.2545 43.8566C42.0936 43.8566 41.9394 43.7927 41.8256 43.679C41.7119 43.5653 41.648 43.411 41.648 43.2502V35.4348C41.6482 35.4242 41.6461 35.4136 41.6421 35.4038C41.638 35.394 41.6319 35.3851 41.6243 35.3777L37.3645 31.1179C37.3542 31.1073 37.3412 31.0999 37.3268 31.0963C37.3125 31.0928 37.2975 31.0933 37.2834 31.0979C36.4023 31.3707 35.4832 30.7155 35.4832 29.7692C35.4834 29.0015 36.1058 28.3791 36.8735 28.3791ZM52.4705 28.379C53.2382 28.379 53.8606 29.0014 53.8606 29.7692C53.8606 30.7155 52.9413 31.3706 52.0604 31.0978C52.0463 31.0932 52.0313 31.0927 52.017 31.0962C52.0027 31.0998 51.9896 31.1072 51.9793 31.1178L47.7195 35.3776C47.7119 35.385 47.7058 35.3939 47.7018 35.4037C47.6977 35.4136 47.6957 35.4241 47.6958 35.4347V43.2501C47.6958 43.4109 47.6319 43.5652 47.5182 43.6789C47.4044 43.7926 47.2502 43.8565 47.0893 43.8565C46.9285 43.8565 46.7742 43.7926 46.6605 43.6789C46.5468 43.5652 46.4829 43.4109 46.4829 43.2501V35.1502C46.4829 34.9808 46.5524 34.8276 46.6644 34.7176L51.1217 30.2603C51.1323 30.25 51.1398 30.237 51.1433 30.2226C51.1469 30.2083 51.1463 30.1933 51.1417 30.1792C50.869 29.2982 51.5242 28.379 52.4705 28.379ZM44.672 27C45.4398 27 46.0621 27.6224 46.0621 28.3902C46.0621 28.9234 45.762 29.3864 45.3215 29.6196C45.3084 29.6264 45.2974 29.6366 45.2898 29.6492C45.2822 29.6619 45.2783 29.6763 45.2785 29.6911V45.3946C45.2785 45.5554 45.2146 45.7097 45.1008 45.8234C44.9871 45.9372 44.8329 46.0011 44.672 46.0011C44.5112 46.0011 44.3569 45.9372 44.2432 45.8234C44.1294 45.7097 44.0655 45.5554 44.0655 45.3946V29.6911C44.0657 29.6763 44.0618 29.6618 44.0542 29.6492C44.0466 29.6366 44.0357 29.6264 44.0226 29.6196C43.582 29.3864 43.2819 28.9234 43.2819 28.3902C43.2818 27.6224 43.9042 27 44.672 27Z" fill="white"/>
</svg>
