<svg width="79" height="92" viewBox="0 0 79 92" fill="none" xmlns="http://www.w3.org/2000/svg">
<g opacity="0.5">
<ellipse cx="0.970222" cy="1.02234" rx="0.970222" ry="1.02222" fill="#3D54A5"/>
<ellipse cx="0.970222" cy="9.19971" rx="0.970222" ry="1.02222" fill="#3D54A5"/>
<ellipse cx="0.970222" cy="17.3778" rx="0.970222" ry="1.02222" fill="#3D54A5"/>
<ellipse cx="0.970222" cy="25.5554" rx="0.970222" ry="1.02222" fill="#3D54A5"/>
<ellipse cx="0.970222" cy="33.7332" rx="0.970222" ry="1.02222" fill="#3D54A5"/>
<ellipse cx="0.970222" cy="41.9108" rx="0.970222" ry="1.02222" fill="#3D54A5"/>
<ellipse cx="0.970222" cy="50.0887" rx="0.970222" ry="1.02222" fill="#3D54A5"/>
<ellipse cx="0.970222" cy="58.2665" rx="0.970222" ry="1.02222" fill="#3D54A5"/>
<ellipse cx="0.970222" cy="66.4441" rx="0.970222" ry="1.02222" fill="#3D54A5"/>
<ellipse cx="0.970222" cy="74.6221" rx="0.970222" ry="1.02222" fill="#3D54A5"/>
<ellipse cx="0.970222" cy="82.7996" rx="0.970222" ry="1.02222" fill="#3D54A5"/>
<ellipse cx="0.970222" cy="90.9777" rx="0.970222" ry="1.02222" fill="#3D54A5"/>
<ellipse cx="8.73215" cy="1.0221" rx="0.970222" ry="1.02222" fill="#3D54A5"/>
<ellipse cx="8.73215" cy="9.19971" rx="0.970222" ry="1.02222" fill="#3D54A5"/>
<ellipse cx="8.73215" cy="17.3778" rx="0.970222" ry="1.02222" fill="#3D54A5"/>
<ellipse cx="8.73215" cy="25.5554" rx="0.970222" ry="1.02222" fill="#3D54A5"/>
<ellipse cx="8.73215" cy="33.7332" rx="0.970222" ry="1.02222" fill="#3D54A5"/>
<ellipse cx="8.73215" cy="41.9108" rx="0.970222" ry="1.02222" fill="#3D54A5"/>
<ellipse cx="8.73215" cy="50.0887" rx="0.970222" ry="1.02222" fill="#3D54A5"/>
<ellipse cx="8.73215" cy="58.2665" rx="0.970222" ry="1.02222" fill="#3D54A5"/>
<ellipse cx="8.73215" cy="66.4441" rx="0.970222" ry="1.02222" fill="#3D54A5"/>
<ellipse cx="8.73215" cy="74.6221" rx="0.970222" ry="1.02222" fill="#3D54A5"/>
<ellipse cx="8.73215" cy="82.7996" rx="0.970222" ry="1.02222" fill="#3D54A5"/>
<ellipse cx="8.73215" cy="90.9777" rx="0.970222" ry="1.02222" fill="#3D54A5"/>
<ellipse cx="16.4937" cy="1.0221" rx="0.970222" ry="1.02222" fill="#3D54A5"/>
<ellipse cx="16.4937" cy="9.19971" rx="0.970222" ry="1.02222" fill="#3D54A5"/>
<ellipse cx="16.4937" cy="17.3778" rx="0.970222" ry="1.02222" fill="#3D54A5"/>
<ellipse cx="16.4937" cy="25.5554" rx="0.970222" ry="1.02222" fill="#3D54A5"/>
<ellipse cx="16.4937" cy="33.7332" rx="0.970222" ry="1.02222" fill="#3D54A5"/>
<ellipse cx="16.4937" cy="41.9108" rx="0.970222" ry="1.02222" fill="#3D54A5"/>
<ellipse cx="16.4937" cy="50.0887" rx="0.970222" ry="1.02222" fill="#3D54A5"/>
<ellipse cx="16.4937" cy="58.2665" rx="0.970222" ry="1.02222" fill="#3D54A5"/>
<ellipse cx="16.4937" cy="66.4441" rx="0.970222" ry="1.02222" fill="#3D54A5"/>
<ellipse cx="16.4937" cy="74.6221" rx="0.970222" ry="1.02222" fill="#3D54A5"/>
<ellipse cx="16.4937" cy="82.7996" rx="0.970222" ry="1.02222" fill="#3D54A5"/>
<ellipse cx="16.4937" cy="90.9777" rx="0.970222" ry="1.02222" fill="#3D54A5"/>
<ellipse cx="24.2556" cy="1.0221" rx="0.970222" ry="1.02222" fill="#3D54A5"/>
<ellipse cx="24.2556" cy="9.19971" rx="0.970222" ry="1.02222" fill="#3D54A5"/>
<ellipse cx="24.2556" cy="17.3778" rx="0.970222" ry="1.02222" fill="#3D54A5"/>
<ellipse cx="24.2556" cy="25.5554" rx="0.970222" ry="1.02222" fill="#3D54A5"/>
<ellipse cx="24.2556" cy="33.7332" rx="0.970222" ry="1.02222" fill="#3D54A5"/>
<ellipse cx="24.2556" cy="41.9108" rx="0.970222" ry="1.02222" fill="#3D54A5"/>
<ellipse cx="24.2556" cy="50.0887" rx="0.970222" ry="1.02222" fill="#3D54A5"/>
<ellipse cx="24.2556" cy="58.2665" rx="0.970222" ry="1.02222" fill="#3D54A5"/>
<ellipse cx="24.2556" cy="66.4441" rx="0.970222" ry="1.02222" fill="#3D54A5"/>
<ellipse cx="24.2556" cy="74.6221" rx="0.970222" ry="1.02222" fill="#3D54A5"/>
<ellipse cx="24.2556" cy="82.7996" rx="0.970222" ry="1.02222" fill="#3D54A5"/>
<ellipse cx="24.2556" cy="90.9777" rx="0.970222" ry="1.02222" fill="#3D54A5"/>
<ellipse cx="32.0171" cy="1.0221" rx="0.970222" ry="1.02222" fill="#3D54A5"/>
<ellipse cx="32.0171" cy="9.19971" rx="0.970222" ry="1.02222" fill="#3D54A5"/>
<ellipse cx="32.0171" cy="17.3778" rx="0.970222" ry="1.02222" fill="#3D54A5"/>
<ellipse cx="32.0171" cy="25.5554" rx="0.970222" ry="1.02222" fill="#3D54A5"/>
<ellipse cx="32.0171" cy="33.7332" rx="0.970222" ry="1.02222" fill="#3D54A5"/>
<ellipse cx="32.0171" cy="41.9108" rx="0.970222" ry="1.02222" fill="#3D54A5"/>
<ellipse cx="32.0171" cy="50.0887" rx="0.970222" ry="1.02222" fill="#3D54A5"/>
<ellipse cx="32.0171" cy="58.2665" rx="0.970222" ry="1.02222" fill="#3D54A5"/>
<ellipse cx="32.0171" cy="66.4441" rx="0.970222" ry="1.02222" fill="#3D54A5"/>
<ellipse cx="32.0171" cy="74.6221" rx="0.970222" ry="1.02222" fill="#3D54A5"/>
<ellipse cx="32.0171" cy="82.7996" rx="0.970222" ry="1.02222" fill="#3D54A5"/>
<ellipse cx="32.0171" cy="90.9777" rx="0.970222" ry="1.02222" fill="#3D54A5"/>
<ellipse cx="39.7793" cy="1.0221" rx="0.970222" ry="1.02222" fill="#3D54A5"/>
<ellipse cx="39.7793" cy="9.19971" rx="0.970222" ry="1.02222" fill="#3D54A5"/>
<ellipse cx="39.7793" cy="17.3778" rx="0.970222" ry="1.02222" fill="#3D54A5"/>
<ellipse cx="39.7793" cy="25.5554" rx="0.970222" ry="1.02222" fill="#3D54A5"/>
<ellipse cx="39.7793" cy="33.7332" rx="0.970222" ry="1.02222" fill="#3D54A5"/>
<ellipse cx="39.7793" cy="41.9108" rx="0.970222" ry="1.02222" fill="#3D54A5"/>
<ellipse cx="39.7793" cy="50.0887" rx="0.970222" ry="1.02222" fill="#3D54A5"/>
<ellipse cx="39.7793" cy="58.2665" rx="0.970222" ry="1.02222" fill="#3D54A5"/>
<ellipse cx="39.7793" cy="66.4441" rx="0.970222" ry="1.02222" fill="#3D54A5"/>
<ellipse cx="39.7793" cy="74.6221" rx="0.970222" ry="1.02222" fill="#3D54A5"/>
<ellipse cx="39.7793" cy="82.7996" rx="0.970222" ry="1.02222" fill="#3D54A5"/>
<ellipse cx="39.7793" cy="90.9777" rx="0.970222" ry="1.02222" fill="#3D54A5"/>
</g>
<rect x="8.50482" y="10.7523" width="70.4952" height="70.4952" rx="10" fill="#3D54A5"/>
<g clip-path="url(#clip0_151_3797)">
<path d="M41.8276 32.2414H45.4483V35.1379L48.8069 32.2414H53.4138C54.214 32.2414 54.8621 31.5933 54.8621 30.7931V26.4483C54.8621 25.6481 54.214 25 53.4138 25H41.8276C41.0274 25 40.3793 25.6481 40.3793 26.4483V30.7931C40.3793 31.5933 41.0274 32.2414 41.8276 32.2414ZM51.9655 27.8966H53.4138V29.3448H51.9655V27.8966ZM44.7241 27.8966H50.5172V29.3448H44.7241V27.8966ZM41.8276 27.8966H43.2759V29.3448H41.8276V27.8966ZM49.7931 61.2069V67H54.0619L53.4828 61.2069H49.7931ZM49.7931 58.3103V59.7586H57.0345C59.0308 59.7586 60.6552 58.1343 60.6552 56.1379V48.1724H59.2069V54.6897C59.2069 56.686 57.5826 58.3103 55.5862 58.3103H49.7931ZM29.5172 56.8621H31.6897V58.3103H29.5172V65.5517H23V67H31.242L32.6903 64.1034H45.1717L46.62 67H48.3448V58.3103H33.1379V56.8621H48.3448V55.4138H29.5172V56.8621ZM56.3103 45.3636C56.3103 44.9159 55.9462 44.5517 55.4985 44.5517C55.2833 44.5522 55.0769 44.6376 54.9243 44.7893L50.093 49.6207H43.2759C42.8763 49.6207 42.5517 49.9453 42.5517 50.3448C42.5517 50.7444 42.8763 51.069 43.2759 51.069H50.9416L56.0727 45.9377C56.2244 45.7851 56.3098 45.5788 56.3103 45.3637V45.3636ZM51.9655 38.7586V40.2069C51.9655 41.8043 53.2646 43.1034 54.8621 43.1034C56.4595 43.1034 57.7586 41.8043 57.7586 40.2069V38.7586C57.7586 37.1612 56.4595 35.8621 54.8621 35.8621C53.2646 35.8621 51.9655 37.1612 51.9655 38.7586Z" fill="white"/>
<path d="M49.7931 56.8621H55.5862C56.7838 56.8621 57.7586 55.8872 57.7586 54.6896V45.7235C57.7586 45.6711 57.7441 45.6227 57.7378 45.5728C57.6883 46.0933 57.4676 46.5908 57.0967 46.9617L51.9655 52.093V55.4138H49.7931V56.8621ZM33.5855 65.5517L32.8614 67H45.0007L44.2765 65.5517H33.5855ZM28.069 52.5172H50.5172V53.9655H28.069V52.5172ZM41.1035 50.3448C41.1035 49.1473 42.0783 48.1724 43.2759 48.1724H43.9681C43.8907 47.6112 43.504 47.129 42.9492 46.9702L39.966 46.1181C39.5466 46.6655 38.7292 47.4483 37.4828 47.4483C36.2363 47.4483 35.419 46.6655 34.9989 46.1174L32.0157 46.9695C31.3979 47.1468 30.9655 47.7191 30.9655 48.3629V51.069H41.2368C41.1554 50.8416 41.1035 50.5997 41.1035 50.3448ZM37.4828 43.1034C39.0802 43.1034 40.3793 41.8043 40.3793 40.2069V38.7586C40.3793 37.1612 39.0802 35.8621 37.4828 35.8621C35.8853 35.8621 34.5862 37.1612 34.5862 38.7586V40.2069C34.5862 41.8043 35.8853 43.1034 37.4828 43.1034ZM36.0345 44.2983V45.0761C36.2141 45.3532 36.713 46 37.4828 46C38.2525 46 38.7515 45.3532 38.931 45.0761V44.2982C38.477 44.4591 37.9912 44.5517 37.4828 44.5517C36.9743 44.5517 36.4885 44.4591 36.0345 44.2983ZM56.8135 65.5517L56.3793 61.2069H54.9381L55.5172 67H65V65.5517H56.8135Z" fill="white"/>
</g>
<defs>
<clipPath id="clip0_151_3797">
<rect width="42" height="42" fill="white" transform="translate(23 25)"/>
</clipPath>
</defs>
</svg>
