<svg width="41" height="92" viewBox="0 0 41 92" fill="none" xmlns="http://www.w3.org/2000/svg">
<g opacity="0.5">
<ellipse cx="0.970222" cy="1.02234" rx="0.970222" ry="1.02222" fill="#3D54A5"/>
<ellipse cx="0.970222" cy="9.19971" rx="0.970222" ry="1.02222" fill="#3D54A5"/>
<ellipse cx="0.970222" cy="17.3778" rx="0.970222" ry="1.02222" fill="#3D54A5"/>
<ellipse cx="0.970222" cy="25.5554" rx="0.970222" ry="1.02222" fill="#3D54A5"/>
<ellipse cx="0.970222" cy="33.7332" rx="0.970222" ry="1.02222" fill="#3D54A5"/>
<ellipse cx="0.970222" cy="41.9108" rx="0.970222" ry="1.02222" fill="#3D54A5"/>
<ellipse cx="0.970222" cy="50.0887" rx="0.970222" ry="1.02222" fill="#3D54A5"/>
<ellipse cx="0.970222" cy="58.2665" rx="0.970222" ry="1.02222" fill="#3D54A5"/>
<ellipse cx="0.970222" cy="66.4441" rx="0.970222" ry="1.02222" fill="#3D54A5"/>
<ellipse cx="0.970222" cy="74.6221" rx="0.970222" ry="1.02222" fill="#3D54A5"/>
<ellipse cx="0.970222" cy="82.7996" rx="0.970222" ry="1.02222" fill="#3D54A5"/>
<ellipse cx="0.970222" cy="90.9777" rx="0.970222" ry="1.02222" fill="#3D54A5"/>
<ellipse cx="8.73215" cy="1.0221" rx="0.970222" ry="1.02222" fill="#3D54A5"/>
<ellipse cx="8.73215" cy="9.19971" rx="0.970222" ry="1.02222" fill="#3D54A5"/>
<ellipse cx="8.73215" cy="17.3778" rx="0.970222" ry="1.02222" fill="#3D54A5"/>
<ellipse cx="8.73215" cy="25.5554" rx="0.970222" ry="1.02222" fill="#3D54A5"/>
<ellipse cx="8.73215" cy="33.7332" rx="0.970222" ry="1.02222" fill="#3D54A5"/>
<ellipse cx="8.73215" cy="41.9108" rx="0.970222" ry="1.02222" fill="#3D54A5"/>
<ellipse cx="8.73215" cy="50.0887" rx="0.970222" ry="1.02222" fill="#3D54A5"/>
<ellipse cx="8.73215" cy="58.2665" rx="0.970222" ry="1.02222" fill="#3D54A5"/>
<ellipse cx="8.73215" cy="66.4441" rx="0.970222" ry="1.02222" fill="#3D54A5"/>
<ellipse cx="8.73215" cy="74.6221" rx="0.970222" ry="1.02222" fill="#3D54A5"/>
<ellipse cx="8.73215" cy="82.7996" rx="0.970222" ry="1.02222" fill="#3D54A5"/>
<ellipse cx="8.73215" cy="90.9777" rx="0.970222" ry="1.02222" fill="#3D54A5"/>
<ellipse cx="16.4937" cy="1.0221" rx="0.970222" ry="1.02222" fill="#3D54A5"/>
<ellipse cx="16.4937" cy="9.19971" rx="0.970222" ry="1.02222" fill="#3D54A5"/>
<ellipse cx="16.4937" cy="17.3778" rx="0.970222" ry="1.02222" fill="#3D54A5"/>
<ellipse cx="16.4937" cy="25.5554" rx="0.970222" ry="1.02222" fill="#3D54A5"/>
<ellipse cx="16.4937" cy="33.7332" rx="0.970222" ry="1.02222" fill="#3D54A5"/>
<ellipse cx="16.4937" cy="41.9108" rx="0.970222" ry="1.02222" fill="#3D54A5"/>
<ellipse cx="16.4937" cy="50.0887" rx="0.970222" ry="1.02222" fill="#3D54A5"/>
<ellipse cx="16.4937" cy="58.2665" rx="0.970222" ry="1.02222" fill="#3D54A5"/>
<ellipse cx="16.4937" cy="66.4441" rx="0.970222" ry="1.02222" fill="#3D54A5"/>
<ellipse cx="16.4937" cy="74.6221" rx="0.970222" ry="1.02222" fill="#3D54A5"/>
<ellipse cx="16.4937" cy="82.7996" rx="0.970222" ry="1.02222" fill="#3D54A5"/>
<ellipse cx="16.4937" cy="90.9777" rx="0.970222" ry="1.02222" fill="#3D54A5"/>
<ellipse cx="24.2556" cy="1.0221" rx="0.970222" ry="1.02222" fill="#3D54A5"/>
<ellipse cx="24.2556" cy="9.19971" rx="0.970222" ry="1.02222" fill="#3D54A5"/>
<ellipse cx="24.2556" cy="17.3778" rx="0.970222" ry="1.02222" fill="#3D54A5"/>
<ellipse cx="24.2556" cy="25.5554" rx="0.970222" ry="1.02222" fill="#3D54A5"/>
<ellipse cx="24.2556" cy="33.7332" rx="0.970222" ry="1.02222" fill="#3D54A5"/>
<ellipse cx="24.2556" cy="41.9108" rx="0.970222" ry="1.02222" fill="#3D54A5"/>
<ellipse cx="24.2556" cy="50.0887" rx="0.970222" ry="1.02222" fill="#3D54A5"/>
<ellipse cx="24.2556" cy="58.2665" rx="0.970222" ry="1.02222" fill="#3D54A5"/>
<ellipse cx="24.2556" cy="66.4441" rx="0.970222" ry="1.02222" fill="#3D54A5"/>
<ellipse cx="24.2556" cy="74.6221" rx="0.970222" ry="1.02222" fill="#3D54A5"/>
<ellipse cx="24.2556" cy="82.7996" rx="0.970222" ry="1.02222" fill="#3D54A5"/>
<ellipse cx="24.2556" cy="90.9777" rx="0.970222" ry="1.02222" fill="#3D54A5"/>
<ellipse cx="32.0171" cy="1.0221" rx="0.970222" ry="1.02222" fill="#3D54A5"/>
<ellipse cx="32.0171" cy="9.19971" rx="0.970222" ry="1.02222" fill="#3D54A5"/>
<ellipse cx="32.0171" cy="17.3778" rx="0.970222" ry="1.02222" fill="#3D54A5"/>
<ellipse cx="32.0171" cy="25.5554" rx="0.970222" ry="1.02222" fill="#3D54A5"/>
<ellipse cx="32.0171" cy="33.7332" rx="0.970222" ry="1.02222" fill="#3D54A5"/>
<ellipse cx="32.0171" cy="41.9108" rx="0.970222" ry="1.02222" fill="#3D54A5"/>
<ellipse cx="32.0171" cy="50.0887" rx="0.970222" ry="1.02222" fill="#3D54A5"/>
<ellipse cx="32.0171" cy="58.2665" rx="0.970222" ry="1.02222" fill="#3D54A5"/>
<ellipse cx="32.0171" cy="66.4441" rx="0.970222" ry="1.02222" fill="#3D54A5"/>
<ellipse cx="32.0171" cy="74.6221" rx="0.970222" ry="1.02222" fill="#3D54A5"/>
<ellipse cx="32.0171" cy="82.7996" rx="0.970222" ry="1.02222" fill="#3D54A5"/>
<ellipse cx="32.0171" cy="90.9777" rx="0.970222" ry="1.02222" fill="#3D54A5"/>
<ellipse cx="39.7793" cy="1.0221" rx="0.970222" ry="1.02222" fill="#3D54A5"/>
<ellipse cx="39.7793" cy="9.19971" rx="0.970222" ry="1.02222" fill="#3D54A5"/>
<ellipse cx="39.7793" cy="17.3778" rx="0.970222" ry="1.02222" fill="#3D54A5"/>
<ellipse cx="39.7793" cy="25.5554" rx="0.970222" ry="1.02222" fill="#3D54A5"/>
<ellipse cx="39.7793" cy="33.7332" rx="0.970222" ry="1.02222" fill="#3D54A5"/>
<ellipse cx="39.7793" cy="41.9108" rx="0.970222" ry="1.02222" fill="#3D54A5"/>
<ellipse cx="39.7793" cy="50.0887" rx="0.970222" ry="1.02222" fill="#3D54A5"/>
<ellipse cx="39.7793" cy="58.2665" rx="0.970222" ry="1.02222" fill="#3D54A5"/>
<ellipse cx="39.7793" cy="66.4441" rx="0.970222" ry="1.02222" fill="#3D54A5"/>
<ellipse cx="39.7793" cy="74.6221" rx="0.970222" ry="1.02222" fill="#3D54A5"/>
<ellipse cx="39.7793" cy="82.7996" rx="0.970222" ry="1.02222" fill="#3D54A5"/>
<ellipse cx="39.7793" cy="90.9777" rx="0.970222" ry="1.02222" fill="#3D54A5"/>
</g>
</svg>
