<svg width="98" height="98" viewBox="0 0 98 98" fill="none" xmlns="http://www.w3.org/2000/svg">
<rect y="52.3977" width="69.4629" height="69.4629" rx="5" transform="rotate(-48.9665 0 52.3977)" fill="#CBD8F0"/>
<rect x="10.9333" y="10.7336" width="76.5328" height="76.5328" rx="10" fill="#3D54A5"/>
<path d="M49.049 57.7173V56.239L48.9566 56.1928C48.7718 56.0542 48.6794 55.8232 48.6794 55.5923C48.6794 55.1303 49.049 54.7607 49.511 54.7607C49.9729 54.7607 50.3425 55.1303 50.3425 55.5923C50.3887 55.8232 50.2501 56.0542 50.0653 56.1928H49.9729V57.6711H49.049V57.7173Z" fill="white"/>
<path d="M49.5111 54.9456C49.8345 54.9456 50.1116 55.2228 50.1116 55.5461V55.6385C50.1116 55.7771 50.0654 55.9157 49.9269 56.0081L49.7421 56.1467V57.5326H49.2801V56.1467L49.0953 55.9619C48.9567 55.8695 48.9106 55.6847 48.9106 55.4999C48.9106 55.2228 49.1877 54.9456 49.5111 54.9456ZM49.5111 54.4836C48.9567 54.4836 48.4486 54.9456 48.4486 55.5461C48.4486 55.8695 48.5872 56.1467 48.8182 56.3315V57.9483H50.204V56.3315C50.435 56.1467 50.5736 55.8233 50.5736 55.5461C50.5274 54.9456 50.0654 54.4836 49.5111 54.4836ZM46.8779 48.2472V47.2771C46.8779 45.7988 48.079 44.5515 49.5111 44.5515C50.204 44.5515 50.8508 44.8287 51.3589 45.3368C51.8671 45.845 52.1443 46.5379 52.1443 47.2771V48.2472H46.8779Z" fill="white"/>
<path d="M49.5111 44.8287C50.1117 44.8287 50.7122 45.0596 51.1742 45.5216C51.6361 45.9836 51.9133 46.6303 51.8671 47.3232V48.0624H47.1089V47.3232C47.1089 45.9374 48.1714 44.8287 49.5111 44.8287ZM49.5111 44.3667C47.9405 44.3667 46.647 45.7064 46.647 47.3232V48.5243H52.3291V47.3232C52.3753 45.6602 51.0818 44.3667 49.5111 44.3667Z" fill="white"/>
<path d="M63.6931 63.7229C63.0925 63.7229 35.1902 63.6305 34.0815 63.6305C30.201 62.568 27.5679 59.4266 27.5679 55.7772C27.5679 53.0516 29.0923 50.4646 31.6793 48.9402L31.8641 48.8016L31.7717 48.6168C31.0326 47.2771 30.6168 45.845 30.6168 44.413C30.6168 39.3314 35.2364 35.22 40.9647 35.22C44.6142 35.22 48.0327 36.9754 49.8805 39.7934L50.0191 39.9782L50.2039 39.8396C52.0055 38.5461 54.2691 37.8069 56.5789 37.8069C62.1686 37.8069 66.6958 41.826 66.6958 46.8151C66.6958 47.9239 66.4648 49.0326 66.0029 50.0951L65.9105 50.326L66.1415 50.4184C69.2828 51.3885 71.4078 54.0217 71.4078 56.9783C71.454 60.8125 68.0355 63.7229 63.6931 63.7229ZM42.9511 48.2472C42.3506 48.2472 41.8886 48.7092 41.8886 49.3097V60.5353C41.8886 61.1359 42.3506 61.5978 42.9511 61.5978H56.0246C56.6251 61.5978 57.0871 61.1359 57.0871 60.5353V49.3097C57.0871 48.7092 56.5789 48.2472 56.0246 48.2472H53.761V47.1385C53.761 44.7825 51.8207 42.8423 49.4647 42.8423C47.1087 42.8423 45.1685 44.7825 45.1685 47.1385V48.2472H42.9511Z" fill="white"/>
<path d="M40.9648 35.4971C44.568 35.4971 47.8942 37.2064 49.6958 39.9781L49.973 40.3939L50.3887 40.1167C52.1442 38.8232 54.3616 38.1303 56.6252 38.1303C62.0763 38.1303 66.5111 42.0569 66.5111 46.9075C66.5111 48.0162 66.2801 49.0787 65.8644 50.095L65.6796 50.557L66.1877 50.6956C69.2367 51.6195 71.3155 54.1603 71.3155 57.0244C71.3155 60.6739 67.9894 63.4918 63.7856 63.4918C63.185 63.4918 35.6984 63.3995 34.2202 63.3995C30.3397 62.3831 27.7989 59.3342 27.7989 55.8233C27.7989 53.144 29.2772 50.6956 31.818 49.1711L32.1875 48.9401L31.9566 48.5706C31.2174 47.2771 30.8479 45.8912 30.8479 44.4591C30.8479 39.5162 35.3751 35.4971 40.9648 35.4971ZM44.9838 48.0162H42.9512C42.2121 48.0162 41.6577 48.5706 41.6577 49.3097V60.5353C41.6577 61.2744 42.2121 61.8288 42.9512 61.8288H56.0246C56.7638 61.8288 57.3181 61.2282 57.3181 60.5353V49.3097C57.3181 48.9401 57.1795 48.6168 56.9486 48.3858C56.7176 48.1548 56.3942 48.0162 56.0246 48.0162H53.992V47.1385C53.992 44.6439 51.9594 42.6113 49.4648 42.6113C46.9702 42.6113 44.9376 44.6439 44.9376 47.1385V48.0162M40.9648 35.0352C35.1441 35.0352 30.3859 39.2852 30.3859 44.4591C30.3859 46.0298 30.8017 47.5081 31.5408 48.8015C29 50.326 27.2908 52.913 27.2908 55.8233C27.2908 59.6114 30.1087 62.8451 33.9892 63.9076C33.9892 63.9076 63.0002 64 63.647 64C68.0818 64 71.6389 61.0435 71.6389 57.0706C71.6389 53.9293 69.3753 51.2499 66.1877 50.2798C66.6497 49.2635 66.8807 48.1086 66.8807 46.9075C66.8807 41.826 62.2611 37.6683 56.5328 37.6683C54.0382 37.6683 51.7746 38.4537 50.0192 39.7471C48.2637 36.883 44.8452 35.0352 40.9648 35.0352ZM42.9512 61.3668C42.4892 61.3668 42.1197 60.9973 42.1197 60.5353V49.3097C42.1197 48.8477 42.4892 48.4782 42.9512 48.4782H45.4458V47.1385C45.4458 44.8749 47.2936 43.0732 49.511 43.0732C51.7746 43.0732 53.5763 44.9211 53.5763 47.1385V48.4782H56.0708C56.5328 48.4782 56.9024 48.8477 56.9024 49.3097V60.5353C56.9024 60.9973 56.5328 61.3668 56.0708 61.3668H42.9512Z" fill="white"/>
</svg>
