<svg width="98" height="98" viewBox="0 0 98 98" fill="none" xmlns="http://www.w3.org/2000/svg">
<rect y="52.3977" width="69.4629" height="69.4629" rx="5" transform="rotate(-48.9665 0 52.3977)" fill="#CBD8F0"/>
<rect x="10.9333" y="10.7336" width="76.5328" height="76.5328" rx="10" fill="#3D54A5"/>
<path d="M30.5156 44.5781V55.8281H33.3281V44.5781H34.2998C34.4938 44.5783 34.6847 44.5289 34.8542 44.4345C35.0237 44.34 35.1662 44.2038 35.2682 44.0388C35.3702 43.8737 35.4282 43.6853 35.4368 43.4915C35.4454 43.2976 35.4042 43.1048 35.3172 42.9314L32.9393 38.1755C32.8449 37.9864 32.6998 37.8273 32.52 37.7161C32.3403 37.6049 32.1332 37.546 31.9218 37.546C31.7105 37.546 31.5033 37.6049 31.3236 37.7161C31.1439 37.8273 30.9987 37.9864 30.9044 38.1755L28.5264 42.9314C28.4395 43.1048 28.3983 43.2976 28.4069 43.4915C28.4155 43.6853 28.4735 43.8737 28.5755 44.0388C28.6775 44.2038 28.82 44.34 28.9895 44.4345C29.159 44.5289 29.3498 44.5783 29.5439 44.5781H30.5156ZM40.7482 46.762C40.8425 46.9511 40.9877 47.1102 41.1674 47.2214C41.3471 47.3326 41.5543 47.3915 41.7656 47.3915C41.9769 47.3915 42.1841 47.3326 42.3638 47.2214C42.5435 47.1102 42.6887 46.9511 42.783 46.762L45.161 42.0061C45.248 41.8327 45.2891 41.6399 45.2805 41.446C45.272 41.2522 45.2139 41.0638 45.1119 40.8987C45.01 40.7337 44.8674 40.5975 44.6979 40.503C44.5284 40.4086 44.3376 40.3592 44.1436 40.3594H43.1718V29.1094H40.3593V40.3594H39.3876C39.1936 40.3592 39.0028 40.4086 38.8332 40.503C38.6637 40.5975 38.5212 40.7337 38.4192 40.8987C38.3173 41.0638 38.2592 41.2522 38.2506 41.446C38.242 41.6399 38.2832 41.8327 38.3702 42.0061L40.7482 46.762ZM51.6093 47.3906H67.0781V43.1719H51.6093V47.3906ZM55.8281 44.5781H57.2343V45.9844H55.8281V44.5781ZM53.0156 44.5781H54.4218V45.9844H53.0156V44.5781ZM67.0781 31.9219H51.6093V36.1406H67.0781V31.9219ZM54.4218 34.7344H53.0156V33.3281H54.4218V34.7344ZM57.2343 34.7344H55.8281V33.3281H57.2343V34.7344ZM54.9576 64.9786C54.9176 64.8797 54.856 64.7909 54.7775 64.7187C54.6989 64.6465 54.6053 64.5926 54.5034 64.5609C54.0704 64.4192 53.6932 64.1442 53.426 63.7752C53.1588 63.4061 53.0151 62.962 53.0156 62.5064V61.8061C53.015 61.3507 53.1585 60.9069 53.4255 60.538C53.6925 60.1691 54.0693 59.8941 54.502 59.7523C54.715 59.6827 54.8817 59.5301 54.9576 59.3332C54.9935 59.2418 55.0307 59.1497 55.0708 59.059C55.112 58.9609 55.1309 58.855 55.1263 58.7487C55.1217 58.6425 55.0936 58.5386 55.0441 58.4445C54.8708 58.1015 54.7923 57.7184 54.8169 57.3348C54.8416 56.9513 54.9683 56.5814 55.184 56.2634C53.9662 53.4649 51.1685 51.6094 48.0937 51.6094C46.7338 51.6119 45.3983 51.9717 44.2212 52.6527C43.0441 53.3338 42.0666 54.3122 41.3866 55.4899L41.1757 55.8555L40.3361 55.8281C37.8752 55.8281 35.6554 57.4952 34.9614 59.8816L34.7393 60.6445L34.0087 60.3316C33.5718 60.143 33.1008 60.046 32.625 60.0469C30.6864 60.0469 29.1093 61.624 29.1093 63.5625C29.1093 65.501 30.6864 67.0781 32.625 67.0781H54.8297C54.7824 66.6624 54.8572 66.242 55.0448 65.868C55.1454 65.6698 55.1545 65.4462 55.0715 65.2542C55.0315 65.1632 54.9935 65.0713 54.9576 64.9786ZM42.61 59.7663C42.3492 59.4156 42.0097 59.131 41.6187 58.9355C41.2278 58.7399 40.7964 58.6389 40.3593 58.6406C39.7114 58.6418 39.0837 58.866 38.5817 59.2757C38.0797 59.6853 37.7341 60.2554 37.6031 60.8899L36.225 60.6101C36.4214 59.6581 36.9397 58.8028 37.6926 58.188C38.4456 57.5732 39.3873 57.2365 40.3593 57.2344C41.6988 57.2344 42.9286 57.8496 43.7343 58.9212L42.61 59.7663ZM48.0937 54.4219C47.6761 54.4219 47.2619 54.4739 46.8632 54.5766L46.5124 53.2146C47.029 53.0821 47.5603 53.0152 48.0937 53.0156C49.497 53.0147 50.8607 53.4806 51.9702 54.3398C53.0797 55.199 53.8719 56.4028 54.2221 57.7617L52.8609 58.1133C52.5884 57.0563 51.9721 56.12 51.109 55.4517C50.246 54.7835 49.1852 54.4212 48.0937 54.4219ZM51.6093 41.7656H67.0781V37.5469H51.6093V41.7656ZM64.2656 38.9531H65.6718V40.3594H64.2656V38.9531ZM61.4531 38.9531H62.8593V40.3594H61.4531V38.9531Z" fill="white"/>
<path d="M69.371 61.0882C69.0714 60.9919 68.7969 60.8303 68.5675 60.6149C68.338 60.3995 68.1593 60.1359 68.0442 59.843C68.0149 59.7671 67.9839 59.6918 67.9514 59.6173C67.8279 59.33 67.7693 59.0191 67.7799 58.7066C67.7905 58.3941 67.8699 58.0878 68.0126 57.8095C68.1602 57.5177 68.104 57.1655 67.8727 56.9341L67.3777 56.4391C67.1456 56.2071 66.7941 56.1502 66.5023 56.2992C66.2239 56.4418 65.9175 56.5213 65.6049 56.5319C65.2923 56.5424 64.9812 56.4839 64.6938 56.3604C64.6195 56.3285 64.5448 56.2978 64.4695 56.2683C64.1767 56.1533 63.9131 55.9747 63.6977 55.7453C63.4824 55.516 63.3207 55.2417 63.2243 54.9422C63.175 54.7907 63.0789 54.6588 62.9499 54.5653C62.821 54.4718 62.6657 54.4216 62.5064 54.4219H61.8061C61.4791 54.4219 61.1909 54.6307 61.0882 54.9415C60.9919 55.2412 60.8301 55.5157 60.6146 55.7451C60.3991 55.9746 60.1353 56.1533 59.8423 56.2683C59.7667 56.2977 59.6917 56.3284 59.6173 56.3604C59.3301 56.4841 59.0191 56.5427 58.7066 56.5321C58.394 56.5216 58.0877 56.442 57.8095 56.2992C57.6676 56.227 57.5064 56.2016 57.3491 56.2267C57.1918 56.2519 57.0465 56.3262 56.9341 56.4391L56.4391 56.9341C56.2078 57.1655 56.1516 57.5177 56.2992 57.8095C56.442 58.0879 56.5215 58.3943 56.5321 58.7069C56.5426 59.0195 56.484 59.3306 56.3604 59.618C56.3288 59.6911 56.2978 59.7663 56.2683 59.8416C56.1533 60.1346 55.9746 60.3984 55.7451 60.6139C55.5157 60.8294 55.2412 60.9912 54.9415 61.0875C54.7902 61.1373 54.6585 61.2336 54.5652 61.3626C54.4719 61.4916 54.4217 61.6468 54.4219 61.8061V62.5064C54.4219 62.8334 54.6307 63.1216 54.9415 63.2243C55.2411 63.3206 55.5156 63.4822 55.745 63.6976C55.9745 63.913 56.1532 64.1766 56.2683 64.4695C56.2978 64.5462 56.3287 64.6207 56.3611 64.6952C56.4846 64.9825 56.5432 65.2934 56.5326 65.6059C56.522 65.9184 56.4426 66.2247 56.2999 66.503C56.1523 66.7948 56.2085 67.1463 56.4398 67.3777L56.9355 67.8734C57.1669 68.1047 57.5184 68.1609 57.8102 68.0133C58.1122 67.8599 58.4461 67.7797 58.7848 67.7791C59.0695 67.7791 59.3529 67.8368 59.6187 67.9528C59.6918 67.9845 59.767 68.0154 59.8423 68.0449C60.1353 68.1598 60.399 68.3384 60.6145 68.5677C60.83 68.7971 60.9918 69.0714 61.0882 69.371C61.1909 69.6825 61.4791 69.8913 61.8061 69.8913H62.5064C62.8334 69.8913 63.1216 69.6825 63.2243 69.3717C63.3206 69.0721 63.4822 68.7976 63.6976 68.5682C63.913 68.3387 64.1766 68.16 64.4695 68.0449C64.5462 68.0154 64.6207 67.9845 64.6952 67.9521C64.9825 67.8288 65.2935 67.7703 65.6059 67.7809C65.9184 67.7915 66.2247 67.8708 66.503 68.0133C66.7948 68.1602 67.1463 68.1047 67.3777 67.8734L67.8734 67.3777C68.1047 67.1463 68.1609 66.7948 68.0133 66.503C67.8705 66.2246 67.791 65.9182 67.7804 65.6056C67.7699 65.293 67.8285 64.9819 67.9521 64.6945C67.9838 64.6214 68.0147 64.5462 68.0442 64.4709C68.1591 64.1779 68.3376 63.9142 68.567 63.6987C68.7963 63.4832 69.0707 63.3214 69.3703 63.225C69.6818 63.1223 69.8906 62.8341 69.8906 62.5071V61.8061C69.8906 61.4791 69.6818 61.1902 69.371 61.0882ZM62.1562 66.375C61.6022 66.375 61.0536 66.2659 60.5418 66.0539C60.03 65.8419 59.5649 65.5311 59.1731 65.1394C58.7814 64.7476 58.4706 64.2825 58.2586 63.7707C58.0466 63.2589 57.9375 62.7103 57.9375 62.1563C57.9375 61.6022 58.0466 61.0536 58.2586 60.5418C58.4706 60.03 58.7814 59.5649 59.1731 59.1731C59.5649 58.7814 60.03 58.4706 60.5418 58.2586C61.0536 58.0466 61.6022 57.9375 62.1562 57.9375C63.2751 57.9375 64.3482 58.382 65.1394 59.1731C65.9305 59.9643 66.375 61.0374 66.375 62.1563C66.375 63.2751 65.9305 64.3482 65.1394 65.1394C64.3482 65.9305 63.2751 66.375 62.1562 66.375Z" fill="white"/>
<path d="M51.6094 50.9168C53.6082 51.755 55.2468 53.2723 56.2359 55.2009C56.5554 54.9775 56.9296 54.8449 57.3185 54.8172C57.7074 54.7896 58.0966 54.868 58.4445 55.0441C58.6427 55.1447 58.8663 55.1538 59.0583 55.0709C59.149 55.0315 59.2411 54.9935 59.3332 54.9577C59.5301 54.881 59.6827 54.7151 59.7523 54.5034C59.8938 54.0705 60.1687 53.6934 60.5376 53.4261C60.9066 53.1589 61.3506 53.0152 61.8061 53.0156H62.5064C62.9618 53.0151 63.4056 53.1586 63.7745 53.4255C64.1434 53.6925 64.4184 54.0693 64.5602 54.502C64.6298 54.7151 64.7831 54.8817 64.9793 54.9577C65.0714 54.9935 65.1635 55.0315 65.2535 55.0709C65.4469 55.1545 65.6705 55.1447 65.868 55.0441C66.242 54.8565 66.6624 54.7818 67.0781 54.829V48.7969H51.6094V50.9168ZM64.2656 50.2031H65.6719V51.6094H64.2656V50.2031ZM61.4531 50.2031H62.8594V51.6094H61.4531V50.2031Z" fill="white"/>
<path d="M67.7812 29.1094H50.9062C49.7433 29.1094 48.7969 30.0558 48.7969 31.2188V50.2305C49.2743 50.2678 49.744 50.3437 50.2031 50.4534V31.9219C50.2031 31.1463 50.8338 30.5156 51.6094 30.5156H67.0781C67.8537 30.5156 68.4844 31.1463 68.4844 31.9219V55.5574L68.8669 55.9399C69.1896 56.2614 69.4022 56.6769 69.4742 57.1267C69.5462 57.5765 69.4739 58.0376 69.2677 58.4438C69.1671 58.642 69.158 58.8656 69.2409 59.0576C69.281 59.149 69.3183 59.2411 69.3541 59.3339C69.4301 59.5294 69.596 59.682 69.8084 59.7516C69.8365 59.7607 69.8625 59.7755 69.8899 59.786V31.2188C69.8895 30.6595 69.6673 30.1233 69.2719 29.7279C68.8766 29.3324 68.3405 29.1099 67.7812 29.1094Z" fill="white"/>
<path d="M62.1562 63.5625C62.9329 63.5625 63.5625 62.9329 63.5625 62.1562C63.5625 61.3796 62.9329 60.75 62.1562 60.75C61.3796 60.75 60.75 61.3796 60.75 62.1562C60.75 62.9329 61.3796 63.5625 62.1562 63.5625Z" fill="white"/>
</svg>
