<svg width="98" height="98" viewBox="0 0 98 98" fill="none" xmlns="http://www.w3.org/2000/svg">
<rect y="52.3977" width="69.4629" height="69.4629" rx="5" transform="rotate(-48.9665 0 52.3977)" fill="#CBD8F0"/>
<rect x="10.9333" y="10.7336" width="76.5328" height="76.5328" rx="10" fill="#3D54A5"/>
<g clip-path="url(#clip0_151_4599)">
<path d="M65.7915 35.9407C65.2482 33.7655 64.0338 31.7928 62.3132 30.3152C60.3418 28.6224 57.8269 27.6902 55.2315 27.6902C53.2843 27.6902 51.4191 28.1923 49.7729 29.1516C48.0295 27.5573 45.7437 26.6616 43.3417 26.6616C38.1898 26.6616 33.979 30.7686 33.8109 35.8802C32.0299 36.378 30.4172 37.3914 29.1845 38.8049C27.6708 40.5398 26.8366 42.7641 26.8362 45.0664C26.8362 50.3246 31.1139 54.6024 36.3721 54.6024H63.0212C68.2793 54.6024 72.5571 50.3246 72.5571 45.0664C72.5571 40.8506 69.761 37.147 65.7915 35.9407ZM41.2133 57.2815V59.831H36.4718C35.887 57.7722 33.9913 56.2593 31.7476 56.2593C29.0394 56.2593 26.8362 58.4626 26.8362 61.1707C26.8362 63.8789 29.0394 66.0822 31.7476 66.0822C33.9915 66.0822 35.8873 64.569 36.472 62.5099H42.5527C43.2921 62.5099 43.8922 61.9107 43.8922 61.1705V57.2815H41.2133ZM51.0361 62.6974V57.2815H48.3572V62.6974C46.2982 63.282 44.7852 65.1778 44.7852 67.4216C44.7852 70.1298 46.9885 72.3331 49.6966 72.3331C52.4048 72.3331 54.6081 70.1298 54.6081 67.4216C54.6081 65.1778 53.0951 63.282 51.0361 62.6974ZM67.6457 56.2593C65.4019 56.2593 63.5062 57.7722 62.9215 59.831H58.18V57.2815H55.501V61.1705C55.501 61.9107 56.1011 62.5099 56.8405 62.5099H62.9213C63.506 64.569 65.4018 66.0822 67.6457 66.0822C70.3538 66.0822 72.5571 63.8789 72.5571 61.1707C72.5571 58.4626 70.3538 56.2593 67.6457 56.2593Z" fill="white"/>
</g>
<defs>
<clipPath id="clip0_151_4599">
<rect width="45.7209" height="45.7209" fill="white" transform="translate(26.8362 26.6367)"/>
</clipPath>
</defs>
</svg>
