<svg width="566" height="472" viewBox="0 0 566 472" fill="none" xmlns="http://www.w3.org/2000/svg">
<path d="M305.169 78.4795C343.189 67.4038 372.905 72.3696 397.687 87.9785C422.499 103.607 442.414 129.936 460.737 161.686L460.759 161.723L460.786 161.756C469.868 172.651 480.281 182.886 490.936 193.048C501.596 203.215 512.493 213.306 522.571 223.935C542.72 245.184 559.533 268.525 564.509 298.725H564.51C570.626 347.672 547.769 385.761 513.242 412.771C479.242 439.368 433.957 455.19 394.02 459.984L392.122 460.204L392.121 460.205C327.756 467.515 241.787 478.25 167.189 465.775C129.898 459.539 95.4865 447.508 68.0488 426.378C41.0496 405.585 20.7752 375.96 11.165 334.301L10.7148 332.308C-2.98016 268.402 28.3337 199.625 80.7979 164.969L82.041 164.156L82.0508 164.149C103.218 149.715 127.237 143.748 151.764 138.979C175.88 134.291 200.518 130.759 223.256 121.419L224.337 120.97L224.339 120.969C238.365 115.007 251.45 106.797 264.574 98.8848C277.709 90.9658 290.89 83.3401 305.169 78.4795Z" stroke="#3D54A5" stroke-opacity="0.5"/>
<path d="M558.029 302.996C548.28 243.804 492.083 211.6 456.717 169.2C420.939 107.25 378.8 66.1776 304.362 87.8517C276.38 97.3671 252.745 117.704 225.452 129.296C180.618 148.115 128.021 143.176 86.5387 171.443C34.4614 205.071 3.22112 272.895 16.7353 335.906C53.5856 502.904 263.841 475.235 389.401 460.985C468.371 452.164 570.017 398.872 558.029 302.996Z" fill="#E6EAFB" fill-opacity="0.7"/>
<path d="M0 452.439C0 441.642 120.249 432.889 268.586 432.889C416.923 432.889 537.172 441.642 537.172 452.439C537.172 463.237 416.923 471.989 268.586 471.989C120.249 471.989 0 463.237 0 452.439Z" fill="#E6EAFB"/>
<path d="M403.893 174.704H72.1263C62.3859 174.704 54.4883 182.592 54.4883 192.321V442.979H421.531V192.321C421.531 182.592 413.633 174.704 403.893 174.704Z" fill="#3D54A5"/>
<path d="M408.061 416.299V188.156L67.9541 188.156V416.299H408.061Z" fill="white"/>
<path d="M15.8876 432.665V439.504C15.8876 447.12 22.0679 453.292 29.6924 453.292H446.325C453.949 453.292 460.129 447.12 460.129 439.504V432.665H15.8876Z" fill="#3D54A5"/>
<path d="M186.493 432.665V433.672C186.493 435.377 187.875 436.758 189.582 436.758H286.435C288.142 436.758 289.524 435.377 289.524 433.672V432.665H186.493Z" fill="#E6EAFB"/>
<path d="M85.8959 389.834C85.8959 395.655 113.345 401.007 147.203 401.007C181.061 401.007 208.51 395.657 208.51 389.834V358.69H85.8959V389.834Z" fill="#3D54A5"/>
<path d="M161.358 387.795C159.781 387.795 158.462 386.566 158.374 384.974C158.282 383.327 159.546 381.915 161.195 381.825C176.556 380.969 190.101 379.098 198.36 376.69C199.945 376.226 201.607 377.136 202.07 378.72C202.532 380.303 201.623 381.963 200.038 382.425C191.233 384.991 177.558 386.898 161.529 387.789C161.472 387.793 161.417 387.793 161.36 387.793L161.358 387.795Z" fill="#8196DE"/>
<path d="M147.203 369.864C181.062 369.864 208.51 364.861 208.51 358.69C208.51 352.519 181.062 347.517 147.203 347.517C113.344 347.517 85.8959 352.519 85.8959 358.69C85.8959 364.861 113.344 369.864 147.203 369.864Z" fill="#8196DE"/>
<path d="M106.702 385.619C108.988 383.336 108.988 379.635 106.702 377.353C104.417 375.07 100.712 375.07 98.4261 377.353C96.1407 379.635 96.1407 383.336 98.4261 385.619C100.712 387.902 104.417 387.902 106.702 385.619Z" fill="#8196DE"/>
<path d="M85.8959 349.718C85.8959 355.539 113.345 360.892 147.203 360.892C181.061 360.892 208.51 355.541 208.51 349.718V318.575H85.8959V349.718Z" fill="#3D54A5"/>
<path d="M161.358 347.68C159.781 347.68 158.462 346.45 158.374 344.858C158.282 343.211 159.546 341.799 161.195 341.709C176.556 340.854 190.101 338.982 198.36 336.574C199.945 336.11 201.607 337.021 202.07 338.604C202.532 340.187 201.623 341.848 200.038 342.309C191.233 344.876 177.558 346.782 161.529 347.673C161.472 347.677 161.417 347.677 161.36 347.677L161.358 347.68Z" fill="#8196DE"/>
<path d="M147.203 329.748C181.062 329.748 208.51 324.746 208.51 318.575C208.51 312.404 181.062 307.401 147.203 307.401C113.344 307.401 85.8959 312.404 85.8959 318.575C85.8959 324.746 113.344 329.748 147.203 329.748Z" fill="#8196DE"/>
<path d="M106.704 345.505C108.989 343.222 108.989 339.521 106.704 337.238C104.418 334.956 100.713 334.956 98.4276 337.238C96.1422 339.521 96.1422 343.222 98.4276 345.505C100.713 347.787 104.418 347.787 106.704 345.505Z" fill="#8196DE"/>
<path d="M267.977 349.474H261.79V359.344H267.977V349.474Z" fill="#3D54A5"/>
<path d="M266.369 349.474H263.396V367.048H266.369V349.474Z" fill="#3D54A5"/>
<path d="M284.411 349.474H278.224V359.344H284.411V349.474Z" fill="#3D54A5"/>
<path d="M282.804 349.474H279.831V367.048H282.804V349.474Z" fill="#3D54A5"/>
<path d="M300.846 349.474H294.659V359.344H300.846V349.474Z" fill="#3D54A5"/>
<path d="M299.238 349.474H296.265V367.048H299.238V349.474Z" fill="#3D54A5"/>
<path d="M317.279 349.474H311.092V359.344H317.279V349.474Z" fill="#3D54A5"/>
<path d="M315.673 349.474H312.7V367.048H315.673V349.474Z" fill="#3D54A5"/>
<path d="M333.714 349.474H327.527V359.344H333.714V349.474Z" fill="#3D54A5"/>
<path d="M332.106 349.474H329.133V367.048H332.106V349.474Z" fill="#3D54A5"/>
<path d="M327.525 261.576H333.712V251.706H327.525V261.576Z" fill="#3D54A5"/>
<path d="M329.133 261.574H332.106V244H329.133V261.574Z" fill="#3D54A5"/>
<path d="M311.092 261.576H317.279V251.706H311.092V261.576Z" fill="#3D54A5"/>
<path d="M312.698 261.574H315.671V244H312.698V261.574Z" fill="#3D54A5"/>
<path d="M294.657 261.576H300.844V251.706H294.657V261.576Z" fill="#3D54A5"/>
<path d="M296.265 261.574H299.238V244H296.265V261.574Z" fill="#3D54A5"/>
<path d="M278.224 261.576H284.411V251.706H278.224V261.576Z" fill="#3D54A5"/>
<path d="M279.83 261.574H282.803V244H279.83V261.574Z" fill="#3D54A5"/>
<path d="M261.789 261.576H267.976V251.706H261.789V261.576Z" fill="#3D54A5"/>
<path d="M263.398 261.574H266.371V244H263.398V261.574Z" fill="#3D54A5"/>
<path d="M253.749 275.785V269.606H243.867V275.785H253.749Z" fill="#3D54A5"/>
<path d="M253.749 274.181V271.212H236.154V274.181H253.749Z" fill="#3D54A5"/>
<path d="M253.749 292.2V286.021H243.867V292.2H253.749Z" fill="#3D54A5"/>
<path d="M253.749 290.594V287.625H236.154V290.594H253.749Z" fill="#3D54A5"/>
<path d="M253.748 308.614V302.435H243.865V308.614H253.748Z" fill="#3D54A5"/>
<path d="M253.748 307.01V304.041H236.152V307.01H253.748Z" fill="#3D54A5"/>
<path d="M253.749 325.027V318.848H243.867V325.027H253.749Z" fill="#3D54A5"/>
<path d="M253.749 323.423V320.454H236.154V323.423H253.749Z" fill="#3D54A5"/>
<path d="M253.748 341.443V335.263H243.865V341.443H253.748Z" fill="#3D54A5"/>
<path d="M253.748 339.839V336.869H236.152V339.839H253.748Z" fill="#3D54A5"/>
<path d="M341.755 335.263V341.443H351.637V335.263H341.755Z" fill="#3D54A5"/>
<path d="M341.755 336.869V339.839H359.35V336.869H341.755Z" fill="#3D54A5"/>
<path d="M341.753 318.848V325.027H351.635V318.848H341.753Z" fill="#3D54A5"/>
<path d="M341.753 320.454V323.423H359.348V320.454H341.753Z" fill="#3D54A5"/>
<path d="M341.755 302.434V308.613H351.637V302.434H341.755Z" fill="#3D54A5"/>
<path d="M341.755 304.04V307.01H359.35V304.04H341.755Z" fill="#3D54A5"/>
<path d="M341.753 286.021V292.2H351.635V286.021H341.753Z" fill="#3D54A5"/>
<path d="M341.753 287.625V290.594H359.348V287.625H341.753Z" fill="#3D54A5"/>
<path d="M341.755 269.606V275.785H351.637V269.606H341.755Z" fill="#3D54A5"/>
<path d="M341.753 271.212V274.181H359.348V271.212H341.753Z" fill="#3D54A5"/>
<path d="M253.724 255.721H341.778C344.999 255.721 347.614 258.332 347.614 261.549V349.497C347.614 352.715 344.999 355.326 341.778 355.326H253.722C250.501 355.326 247.887 352.715 247.887 349.497V261.547C247.887 258.33 250.501 255.719 253.722 255.719L253.724 255.721Z" fill="#E6EAFB"/>
<path d="M300.909 309.422H266.978V312.319H300.909V309.422Z" fill="#4960AF"/>
<path d="M300.909 321.975H266.978V324.872H300.909V321.975Z" fill="#4960AF"/>
<path d="M328.523 334.527H266.978V337.424H328.523V334.527Z" fill="#4960AF"/>
<path d="M328.525 324.872H313.055V309.422H328.525V324.872ZM315.955 321.975H325.624V312.319H315.955V321.975Z" fill="#4960AF"/>
<path d="M108.162 274.602C98.1198 274.602 89.8788 266.591 89.7951 256.743V256.539C89.7951 243.826 100.143 233.483 112.863 233.483C113.032 233.483 113.199 233.483 113.367 233.488C119.525 220.381 132.962 211.746 147.604 211.746C165.129 211.746 180.381 223.99 184.381 240.734C184.54 240.729 184.698 240.727 184.857 240.727C196.191 240.727 205.412 249.937 205.412 261.258V261.379C205.39 268.669 199.432 274.6 192.133 274.6H108.166L108.162 274.602Z" fill="#3D54A5"/>
<path d="M147.187 266.377C141.996 266.048 137.106 263.642 133.772 259.769C130.534 256.057 128.895 251.184 129.283 246.392C129.609 241.787 131.784 237.462 135.258 234.519C135.604 234.223 135.976 233.943 136.359 233.671L138.548 239.386L144.818 225.338L130.972 219.594L133.118 225.2C131.76 226.209 130.498 227.357 129.378 228.624C124.99 233.481 122.706 239.958 123.114 246.381C123.442 252.534 126.372 258.59 130.95 262.58C134.985 266.18 140.377 268.244 145.745 268.244C146.227 268.244 146.714 268.227 147.205 268.194C147.659 268.152 148.002 267.807 148.044 267.354C148.066 267.119 147.991 266.89 147.837 266.705C147.678 266.518 147.445 266.397 147.187 266.377Z" fill="#E6EAFB"/>
<path d="M149.675 222.048C154.867 222.378 159.757 224.784 163.09 228.657C166.329 232.369 167.967 237.242 167.58 242.034C167.254 246.639 165.079 250.964 161.604 253.906C161.259 254.203 160.887 254.483 160.503 254.755L158.315 249.04L152.044 263.088L165.891 268.832L163.744 263.226C165.103 262.217 166.364 261.069 167.485 259.802C171.873 254.944 174.156 248.468 173.749 242.045C173.421 235.892 170.49 229.835 165.913 225.846C161.877 222.246 156.485 220.181 151.118 220.181C150.635 220.181 150.149 220.199 149.658 220.232C149.204 220.274 148.861 220.619 148.819 221.072C148.797 221.307 148.872 221.536 149.026 221.721C149.184 221.908 149.418 222.029 149.675 222.048Z" fill="#E6EAFB"/>
<path d="M508.442 346.162H400.379V430.646H508.442V346.162Z" fill="#4960AF"/>
<path d="M523.114 323.589H385.709V362.574H523.114V323.589Z" fill="#8196DE"/>
<path d="M517.363 328.453H391.46C390.973 328.453 390.579 328.847 390.579 329.333V356.83C390.579 357.316 390.973 357.709 391.46 357.709H517.363C517.85 357.709 518.244 357.316 518.244 356.83V329.333C518.244 328.847 517.85 328.453 517.363 328.453Z" fill="#E6EAFB"/>
<path d="M508.444 334.516H447.379V351.644H508.444V334.516Z" fill="#4960AF"/>
<path d="M438.368 336.693H400.379V340.425H438.368V336.693Z" fill="#4960AF"/>
<path d="M438.368 345.738H400.379V349.469H438.368V345.738Z" fill="#4960AF"/>
<path d="M454.964 341.445C455.763 341.445 456.411 340.798 456.411 340C456.411 339.202 455.763 338.555 454.964 338.555C454.165 338.555 453.518 339.202 453.518 340C453.518 340.798 454.165 341.445 454.964 341.445Z" fill="#8196DE"/>
<path d="M468.075 341.445C468.874 341.445 469.522 340.798 469.522 340C469.522 339.202 468.874 338.555 468.075 338.555C467.277 338.555 466.629 339.202 466.629 340C466.629 340.798 467.277 341.445 468.075 341.445Z" fill="#8196DE"/>
<path d="M474.632 341.445C475.431 341.445 476.079 340.798 476.079 340C476.079 339.202 475.431 338.555 474.632 338.555C473.833 338.555 473.186 339.202 473.186 340C473.186 340.798 473.833 341.445 474.632 341.445Z" fill="#8196DE"/>
<path d="M481.189 341.445C481.988 341.445 482.635 340.798 482.635 340C482.635 339.202 481.988 338.555 481.189 338.555C480.39 338.555 479.742 339.202 479.742 340C479.742 340.798 480.39 341.445 481.189 341.445Z" fill="#8196DE"/>
<path d="M500.859 341.445C501.658 341.445 502.306 340.798 502.306 340C502.306 339.202 501.658 338.555 500.859 338.555C500.06 338.555 499.413 339.202 499.413 340C499.413 340.798 500.06 341.445 500.859 341.445Z" fill="#8196DE"/>
<path d="M454.964 347.607C455.763 347.607 456.411 346.96 456.411 346.162C456.411 345.364 455.763 344.717 454.964 344.717C454.165 344.717 453.518 345.364 453.518 346.162C453.518 346.96 454.165 347.607 454.964 347.607Z" fill="#8196DE"/>
<path d="M481.189 347.607C481.988 347.607 482.635 346.96 482.635 346.162C482.635 345.364 481.988 344.717 481.189 344.717C480.39 344.717 479.742 345.364 479.742 346.162C479.742 346.96 480.39 347.607 481.189 347.607Z" fill="#8196DE"/>
<path d="M487.746 347.607C488.545 347.607 489.192 346.96 489.192 346.162C489.192 345.364 488.545 344.717 487.746 344.717C486.947 344.717 486.299 345.364 486.299 346.162C486.299 346.96 486.947 347.607 487.746 347.607Z" fill="#8196DE"/>
<path d="M461.521 341.445C462.32 341.445 462.967 340.798 462.967 340C462.967 339.202 462.32 338.555 461.521 338.555C460.722 338.555 460.074 339.202 460.074 340C460.074 340.798 460.722 341.445 461.521 341.445Z" fill="#3D54A5"/>
<path d="M487.746 341.445C488.545 341.445 489.192 340.798 489.192 340C489.192 339.202 488.545 338.555 487.746 338.555C486.947 338.555 486.299 339.202 486.299 340C486.299 340.798 486.947 341.445 487.746 341.445Z" fill="#3D54A5"/>
<path d="M494.302 341.445C495.101 341.445 495.749 340.798 495.749 340C495.749 339.202 495.101 338.555 494.302 338.555C493.503 338.555 492.856 339.202 492.856 340C492.856 340.798 493.503 341.445 494.302 341.445Z" fill="#3D54A5"/>
<path d="M461.521 347.607C462.32 347.607 462.967 346.96 462.967 346.162C462.967 345.364 462.32 344.717 461.521 344.717C460.722 344.717 460.074 345.364 460.074 346.162C460.074 346.96 460.722 347.607 461.521 347.607Z" fill="#3D54A5"/>
<path d="M468.075 347.607C468.874 347.607 469.522 346.96 469.522 346.162C469.522 345.364 468.874 344.717 468.075 344.717C467.277 344.717 466.629 345.364 466.629 346.162C466.629 346.96 467.277 347.607 468.075 347.607Z" fill="#3D54A5"/>
<path d="M474.632 347.607C475.431 347.607 476.079 346.96 476.079 346.162C476.079 345.364 475.431 344.717 474.632 344.717C473.833 344.717 473.186 345.364 473.186 346.162C473.186 346.96 473.833 347.607 474.632 347.607Z" fill="#3D54A5"/>
<path d="M494.302 347.607C495.101 347.607 495.749 346.96 495.749 346.162C495.749 345.364 495.101 344.717 494.302 344.717C493.503 344.717 492.856 345.364 492.856 346.162C492.856 346.96 493.503 347.607 494.302 347.607Z" fill="#3D54A5"/>
<path d="M500.859 347.607C501.658 347.607 502.306 346.96 502.306 346.162C502.306 345.364 501.658 344.717 500.859 344.717C500.06 344.717 499.413 345.364 499.413 346.162C499.413 346.96 500.06 347.607 500.859 347.607Z" fill="#3D54A5"/>
<path d="M523.114 368.912H385.709V407.897H523.114V368.912Z" fill="#8196DE"/>
<path d="M517.363 373.776H391.46C390.973 373.776 390.579 374.17 390.579 374.656V402.153C390.579 402.639 390.973 403.033 391.46 403.033H517.363C517.85 403.033 518.244 402.639 518.244 402.153V374.656C518.244 374.17 517.85 373.776 517.363 373.776Z" fill="#E6EAFB"/>
<path d="M508.444 379.839H447.379V396.967H508.444V379.839Z" fill="#4960AF"/>
<path d="M438.368 382.016H400.379V385.748H438.368V382.016Z" fill="#4960AF"/>
<path d="M438.368 391.061H400.379V394.793H438.368V391.061Z" fill="#4960AF"/>
<path d="M454.964 386.768C455.763 386.768 456.411 386.121 456.411 385.323C456.411 384.526 455.763 383.879 454.964 383.879C454.165 383.879 453.518 384.526 453.518 385.323C453.518 386.121 454.165 386.768 454.964 386.768Z" fill="#8196DE"/>
<path d="M468.075 386.768C468.874 386.768 469.522 386.121 469.522 385.323C469.522 384.526 468.874 383.879 468.075 383.879C467.277 383.879 466.629 384.526 466.629 385.323C466.629 386.121 467.277 386.768 468.075 386.768Z" fill="#8196DE"/>
<path d="M474.632 386.768C475.431 386.768 476.079 386.121 476.079 385.323C476.079 384.526 475.431 383.879 474.632 383.879C473.833 383.879 473.186 384.526 473.186 385.323C473.186 386.121 473.833 386.768 474.632 386.768Z" fill="#8196DE"/>
<path d="M481.189 386.768C481.988 386.768 482.635 386.121 482.635 385.323C482.635 384.526 481.988 383.879 481.189 383.879C480.39 383.879 479.742 384.526 479.742 385.323C479.742 386.121 480.39 386.768 481.189 386.768Z" fill="#8196DE"/>
<path d="M500.859 386.768C501.658 386.768 502.306 386.121 502.306 385.323C502.306 384.526 501.658 383.879 500.859 383.879C500.06 383.879 499.413 384.526 499.413 385.323C499.413 386.121 500.06 386.768 500.859 386.768Z" fill="#8196DE"/>
<path d="M454.964 392.93C455.763 392.93 456.411 392.283 456.411 391.485C456.411 390.687 455.763 390.041 454.964 390.041C454.165 390.041 453.518 390.687 453.518 391.485C453.518 392.283 454.165 392.93 454.964 392.93Z" fill="#8196DE"/>
<path d="M481.189 392.93C481.988 392.93 482.635 392.283 482.635 391.485C482.635 390.687 481.988 390.041 481.189 390.041C480.39 390.041 479.742 390.687 479.742 391.485C479.742 392.283 480.39 392.93 481.189 392.93Z" fill="#8196DE"/>
<path d="M487.746 392.93C488.545 392.93 489.192 392.283 489.192 391.485C489.192 390.687 488.545 390.041 487.746 390.041C486.947 390.041 486.299 390.687 486.299 391.485C486.299 392.283 486.947 392.93 487.746 392.93Z" fill="#8196DE"/>
<path d="M461.521 386.768C462.32 386.768 462.967 386.121 462.967 385.323C462.967 384.526 462.32 383.879 461.521 383.879C460.722 383.879 460.074 384.526 460.074 385.323C460.074 386.121 460.722 386.768 461.521 386.768Z" fill="#3D54A5"/>
<path d="M487.746 386.768C488.545 386.768 489.192 386.121 489.192 385.323C489.192 384.526 488.545 383.879 487.746 383.879C486.947 383.879 486.299 384.526 486.299 385.323C486.299 386.121 486.947 386.768 487.746 386.768Z" fill="#3D54A5"/>
<path d="M494.302 386.768C495.101 386.768 495.749 386.121 495.749 385.323C495.749 384.526 495.101 383.879 494.302 383.879C493.503 383.879 492.856 384.526 492.856 385.323C492.856 386.121 493.503 386.768 494.302 386.768Z" fill="#3D54A5"/>
<path d="M461.521 392.93C462.32 392.93 462.967 392.283 462.967 391.485C462.967 390.687 462.32 390.041 461.521 390.041C460.722 390.041 460.074 390.687 460.074 391.485C460.074 392.283 460.722 392.93 461.521 392.93Z" fill="#3D54A5"/>
<path d="M468.075 392.93C468.874 392.93 469.522 392.283 469.522 391.485C469.522 390.687 468.874 390.041 468.075 390.041C467.277 390.041 466.629 390.687 466.629 391.485C466.629 392.283 467.277 392.93 468.075 392.93Z" fill="#3D54A5"/>
<path d="M474.632 392.93C475.431 392.93 476.079 392.283 476.079 391.485C476.079 390.687 475.431 390.041 474.632 390.041C473.833 390.041 473.186 390.687 473.186 391.485C473.186 392.283 473.833 392.93 474.632 392.93Z" fill="#3D54A5"/>
<path d="M494.302 392.93C495.101 392.93 495.749 392.283 495.749 391.485C495.749 390.687 495.101 390.041 494.302 390.041C493.503 390.041 492.856 390.687 492.856 391.485C492.856 392.283 493.503 392.93 494.302 392.93Z" fill="#3D54A5"/>
<path d="M500.859 392.93C501.658 392.93 502.306 392.283 502.306 391.485C502.306 390.687 501.658 390.041 500.859 390.041C500.06 390.041 499.413 390.687 499.413 391.485C499.413 392.283 500.06 392.93 500.859 392.93Z" fill="#3D54A5"/>
<path d="M523.114 414.235H385.709V453.22H523.114V414.235Z" fill="#8196DE"/>
<path d="M517.363 419.097H391.46C390.973 419.097 390.579 419.491 390.579 419.977V447.474C390.579 447.96 390.973 448.353 391.46 448.353H517.363C517.85 448.353 518.244 447.96 518.244 447.474V419.977C518.244 419.491 517.85 419.097 517.363 419.097Z" fill="#E6EAFB"/>
<path d="M508.444 425.162H447.379V442.29H508.444V425.162Z" fill="#4960AF"/>
<path d="M438.368 427.337H400.379V431.069H438.368V427.337Z" fill="#4960AF"/>
<path d="M438.368 436.382H400.379V440.113H438.368V436.382Z" fill="#4960AF"/>
<path d="M454.964 432.091C455.763 432.091 456.411 431.444 456.411 430.646C456.411 429.849 455.763 429.202 454.964 429.202C454.165 429.202 453.518 429.849 453.518 430.646C453.518 431.444 454.165 432.091 454.964 432.091Z" fill="#8196DE"/>
<path d="M468.075 432.091C468.874 432.091 469.522 431.444 469.522 430.646C469.522 429.849 468.874 429.202 468.075 429.202C467.277 429.202 466.629 429.849 466.629 430.646C466.629 431.444 467.277 432.091 468.075 432.091Z" fill="#8196DE"/>
<path d="M474.632 432.091C475.431 432.091 476.079 431.444 476.079 430.646C476.079 429.849 475.431 429.202 474.632 429.202C473.833 429.202 473.186 429.849 473.186 430.646C473.186 431.444 473.833 432.091 474.632 432.091Z" fill="#8196DE"/>
<path d="M481.189 432.091C481.988 432.091 482.635 431.444 482.635 430.646C482.635 429.849 481.988 429.202 481.189 429.202C480.39 429.202 479.742 429.849 479.742 430.646C479.742 431.444 480.39 432.091 481.189 432.091Z" fill="#8196DE"/>
<path d="M500.859 432.091C501.658 432.091 502.306 431.444 502.306 430.646C502.306 429.849 501.658 429.202 500.859 429.202C500.06 429.202 499.413 429.849 499.413 430.646C499.413 431.444 500.06 432.091 500.859 432.091Z" fill="#8196DE"/>
<path d="M454.964 438.253C455.763 438.253 456.411 437.606 456.411 436.808C456.411 436.01 455.763 435.364 454.964 435.364C454.165 435.364 453.518 436.01 453.518 436.808C453.518 437.606 454.165 438.253 454.964 438.253Z" fill="#8196DE"/>
<path d="M481.189 438.253C481.988 438.253 482.635 437.606 482.635 436.808C482.635 436.01 481.988 435.364 481.189 435.364C480.39 435.364 479.742 436.01 479.742 436.808C479.742 437.606 480.39 438.253 481.189 438.253Z" fill="#8196DE"/>
<path d="M487.746 438.253C488.545 438.253 489.192 437.606 489.192 436.808C489.192 436.01 488.545 435.364 487.746 435.364C486.947 435.364 486.299 436.01 486.299 436.808C486.299 437.606 486.947 438.253 487.746 438.253Z" fill="#8196DE"/>
<path d="M461.521 432.091C462.32 432.091 462.967 431.444 462.967 430.646C462.967 429.849 462.32 429.202 461.521 429.202C460.722 429.202 460.074 429.849 460.074 430.646C460.074 431.444 460.722 432.091 461.521 432.091Z" fill="#3D54A5"/>
<path d="M487.746 432.091C488.545 432.091 489.192 431.444 489.192 430.646C489.192 429.849 488.545 429.202 487.746 429.202C486.947 429.202 486.299 429.849 486.299 430.646C486.299 431.444 486.947 432.091 487.746 432.091Z" fill="#3D54A5"/>
<path d="M494.302 432.091C495.101 432.091 495.749 431.444 495.749 430.646C495.749 429.849 495.101 429.202 494.302 429.202C493.503 429.202 492.856 429.849 492.856 430.646C492.856 431.444 493.503 432.091 494.302 432.091Z" fill="#3D54A5"/>
<path d="M461.521 438.253C462.32 438.253 462.967 437.606 462.967 436.808C462.967 436.01 462.32 435.364 461.521 435.364C460.722 435.364 460.074 436.01 460.074 436.808C460.074 437.606 460.722 438.253 461.521 438.253Z" fill="#3D54A5"/>
<path d="M468.075 438.253C468.874 438.253 469.522 437.606 469.522 436.808C469.522 436.01 468.874 435.364 468.075 435.364C467.277 435.364 466.629 436.01 466.629 436.808C466.629 437.606 467.277 438.253 468.075 438.253Z" fill="#3D54A5"/>
<path d="M474.632 438.253C475.431 438.253 476.079 437.606 476.079 436.808C476.079 436.01 475.431 435.364 474.632 435.364C473.833 435.364 473.186 436.01 473.186 436.808C473.186 437.606 473.833 438.253 474.632 438.253Z" fill="#3D54A5"/>
<path d="M494.302 438.253C495.101 438.253 495.749 437.606 495.749 436.808C495.749 436.01 495.101 435.364 494.302 435.364C493.503 435.364 492.856 436.01 492.856 436.808C492.856 437.606 493.503 438.253 494.302 438.253Z" fill="#3D54A5"/>
<path d="M500.859 438.253C501.658 438.253 502.306 437.606 502.306 436.808C502.306 436.01 501.658 435.364 500.859 435.364C500.06 435.364 499.413 436.01 499.413 436.808C499.413 437.606 500.06 438.253 500.859 438.253Z" fill="#3D54A5"/>
<path d="M418.369 296.956C406.927 296.956 397.541 287.829 397.444 276.61V276.377C397.444 261.893 409.232 250.111 423.724 250.111C423.918 250.111 424.109 250.111 424.299 250.117C431.315 235.186 446.624 225.347 463.302 225.347C483.269 225.347 500.645 239.298 505.201 258.37C505.381 258.366 505.562 258.364 505.742 258.364C518.656 258.364 529.16 268.856 529.16 281.753V281.892C529.134 290.198 522.346 296.953 514.032 296.953H418.369V296.956Z" fill="#3D54A5"/>
<path d="M462.833 287.585C456.917 287.209 451.349 284.467 447.551 280.056C443.861 275.827 441.996 270.274 442.436 264.816C442.806 259.571 445.285 254.641 449.244 251.289C449.638 250.951 450.061 250.632 450.499 250.322L452.991 256.833L460.136 240.831L444.361 234.286L446.805 240.672C445.257 241.822 443.819 243.129 442.542 244.573C437.542 250.109 434.942 257.486 435.406 264.805C435.781 271.813 439.118 278.714 444.334 283.26C448.931 287.361 455.076 289.714 461.191 289.714C461.741 289.714 462.296 289.694 462.855 289.655C463.373 289.606 463.764 289.213 463.811 288.698C463.835 288.43 463.751 288.168 463.575 287.959C463.395 287.746 463.13 287.609 462.835 287.585H462.833Z" fill="#E6EAFB"/>
<path d="M465.667 237.083C471.583 237.459 477.151 240.202 480.949 244.613C484.639 248.842 486.504 254.394 486.063 259.853C485.694 265.097 483.214 270.028 479.256 273.379C478.862 273.718 478.439 274.037 478.001 274.347L475.508 267.835L468.364 283.838L484.139 290.382L481.695 283.996C483.243 282.846 484.681 281.54 485.958 280.095C490.958 274.56 493.558 267.182 493.094 259.864C492.719 252.855 489.382 245.954 484.166 241.409C479.568 237.308 473.423 234.955 467.309 234.955C466.759 234.955 466.204 234.974 465.645 235.014C465.127 235.062 464.735 235.456 464.689 235.971C464.665 236.239 464.749 236.501 464.925 236.709C465.105 236.923 465.37 237.059 465.665 237.083H465.667Z" fill="#E6EAFB"/>
<path d="M61.828 78.6288C74.2508 76.6044 82.6795 64.898 80.6541 52.4817C78.6287 40.0654 66.9162 31.6411 54.4934 33.6654C42.0706 35.6898 33.6419 47.3962 35.6673 59.8125C37.6927 72.2288 49.4053 80.6531 61.828 78.6288Z" fill="#E6EAFB"/>
<path d="M49.9881 59.5737C48.339 59.5737 47 58.2354 47 56.5871C47 54.9389 48.339 53.6006 49.9881 53.6006C51.6372 53.6006 52.9762 54.9389 52.9762 56.5871C52.9762 58.2354 51.6372 59.5737 49.9881 59.5737Z" fill="#3D54A5"/>
<path d="M55.161 61.8699C56.8101 60.5034 57.7544 58.5171 57.7544 56.418C57.7544 54.488 56.9792 52.6848 55.5979 51.3324L55.1328 50.8816L53.822 52.1917L54.3012 52.6566C55.3442 53.6569 55.908 54.9952 55.908 56.418C55.908 57.9817 55.1892 59.4609 53.9488 60.4752L53.385 60.9401L54.7099 62.2643L55.1751 61.884L55.161 61.8699Z" fill="#3D54A5"/>
<path d="M59.0089 65.6735C61.6446 63.2787 63.1669 59.9118 63.1669 56.418C63.1669 52.9243 61.8419 49.8955 59.4176 47.5147L58.9525 47.0498L57.6417 48.36L58.1209 48.8248C60.1787 50.8535 61.3204 53.5442 61.3204 56.418C61.3204 59.4328 60.0519 62.2503 57.7544 64.3071L57.2329 64.7719L58.5437 66.0821L59.0089 65.6595V65.6735Z" fill="#3D54A5"/>
<path d="M62.7722 69.421C66.4368 66.0118 68.4524 61.3911 68.4524 56.4322C68.4524 51.4734 66.5778 47.1626 63.1668 43.7957L62.7017 43.3308L61.3909 44.641L61.8701 45.1059C64.9287 48.1347 66.606 52.1496 66.606 56.4322C66.606 60.7149 64.7455 65.0679 61.5036 68.0826L60.9962 68.5475L62.307 69.8577L62.7722 69.421Z" fill="#3D54A5"/>
<path d="M180.5 151.5V63C180.5 58.5817 176.918 55 172.5 55H80.3441" stroke="#EEF1FD" stroke-width="1.6"/>
<path d="M393.09 48.138C406.39 48.138 417.171 37.3619 417.171 24.069C417.171 10.7761 406.39 0 393.09 0C379.79 0 369.008 10.7761 369.008 24.069C369.008 37.3619 379.79 48.138 393.09 48.138Z" fill="#E6EAFB"/>
<path d="M397.479 23.2492H397.059C396.908 22.7535 396.713 22.2728 396.472 21.8222L396.766 21.5293C397.622 20.6731 397.622 19.2837 396.766 18.4275C395.909 17.5713 394.519 17.5713 393.662 18.4275L393.369 18.7204C392.918 18.4801 392.437 18.2773 391.941 18.1346V17.714C391.941 16.5049 390.957 15.521 389.747 15.521C388.537 15.521 387.553 16.5049 387.553 17.714V18.1346C387.057 18.2848 386.576 18.4801 386.125 18.7204L385.832 18.4275C384.976 17.5713 383.585 17.5713 382.729 18.4275C381.872 19.2837 381.872 20.6731 382.729 21.5293L383.022 21.8222C382.781 22.2728 382.586 22.7535 382.436 23.2492H382.015C380.805 23.2492 379.821 24.2331 379.821 25.4422C379.821 26.6514 380.805 27.6353 382.015 27.6353H382.436C382.586 28.131 382.781 28.6116 383.022 29.0623L382.729 29.3552C381.872 30.2113 381.872 31.6008 382.729 32.457C383.585 33.3131 384.976 33.3131 385.832 32.457L386.125 32.1641C386.576 32.4044 387.057 32.6072 387.553 32.7499V33.1704C387.553 34.3796 388.537 35.3635 389.747 35.3635C390.957 35.3635 391.941 34.3796 391.941 33.1704V32.7499C392.437 32.5997 392.918 32.4044 393.369 32.1641L393.662 32.457C394.519 33.3131 395.909 33.3131 396.766 32.457C397.622 31.6008 397.622 30.2113 396.766 29.3552L396.472 29.0623C396.713 28.6116 396.908 28.1385 397.059 27.6353H397.479C398.689 27.6353 399.674 26.6514 399.674 25.4422C399.674 24.2331 398.689 23.2492 397.479 23.2492ZM389.747 29.8433C387.32 29.8433 385.351 27.8756 385.351 25.4497C385.351 23.0239 387.32 21.0562 389.747 21.0562C392.174 21.0562 394.143 23.0239 394.143 25.4497C394.143 27.8756 392.174 29.8433 389.747 29.8433Z" fill="#3D54A5"/>
<path d="M405.58 15.4384H405.377C405.309 15.2206 405.227 15.0178 405.121 14.815L405.264 14.6724C405.647 14.2893 405.647 13.681 405.264 13.298C404.881 12.9149 404.272 12.9149 403.889 13.298L403.746 13.4407C403.551 13.3355 403.341 13.2529 403.123 13.1853V12.9825C403.123 12.4418 402.687 12.0137 402.153 12.0137C401.62 12.0137 401.184 12.4493 401.184 12.9825V13.1853C400.966 13.2529 400.763 13.3355 400.56 13.4407L400.417 13.298C400.034 12.9149 399.418 12.9149 399.042 13.298C398.659 13.681 398.659 14.2893 399.042 14.6724L399.185 14.815C399.08 15.0103 398.997 15.2206 398.93 15.4384H398.727C398.193 15.4384 397.757 15.874 397.757 16.4073C397.757 16.9405 398.193 17.3761 398.727 17.3761H398.93C398.997 17.5939 399.08 17.7967 399.185 17.9995L399.042 18.1422C398.659 18.5252 398.659 19.1335 399.042 19.5166C399.418 19.8996 400.034 19.8996 400.417 19.5166L400.56 19.3739C400.756 19.479 400.966 19.5616 401.184 19.6292V19.832C401.184 20.3652 401.62 20.8008 402.153 20.8008C402.687 20.8008 403.123 20.3652 403.123 19.832V19.6292C403.341 19.5616 403.543 19.479 403.746 19.3739L403.889 19.5166C404.272 19.8996 404.888 19.8996 405.264 19.5166C405.647 19.1335 405.647 18.5252 405.264 18.1422L405.121 17.9995C405.227 17.8042 405.309 17.5939 405.377 17.3761H405.58C406.113 17.3761 406.549 16.9405 406.549 16.4073C406.549 15.874 406.113 15.4384 405.58 15.4384ZM402.153 18.36C401.079 18.36 400.207 17.4888 400.207 16.4148C400.207 15.3408 401.079 14.4696 402.153 14.4696C403.228 14.4696 404.099 15.3408 404.099 16.4148C404.099 17.4888 403.228 18.36 402.153 18.36Z" fill="#3D54A5"/>
<path d="M269 115.5V27C269 22.5817 272.582 19 277 19H369.156" stroke="#EEF1FD" stroke-width="1.6"/>
</svg>
