<svg width="40" height="40" viewBox="0 0 40 40" fill="none" xmlns="http://www.w3.org/2000/svg">
<rect opacity="0.1" width="40" height="40" rx="20" fill="url(#paint0_linear_151_4646)"/>
<path d="M32.7798 12.9668L25.1978 20.5L32.7798 28.0332C32.9168 27.7467 33 27.43 33 27.0918V13.9082C33 13.57 32.9168 13.2533 32.7798 12.9668ZM30.8027 11.7109H10.1973C9.85903 11.7109 9.54238 11.7941 9.25591 11.9312L18.9465 21.5729C19.8033 22.4297 21.1967 22.4297 22.0535 21.5729L31.7441 11.9312C31.4576 11.7941 31.141 11.7109 30.8027 11.7109ZM8.22021 12.9668C8.08315 13.2533 8 13.57 8 13.9082V27.0918C8 27.43 8.08315 27.7467 8.22021 28.0332L15.8022 20.5L8.22021 12.9668Z" fill="#3D54A5"/>
<path d="M24.1621 21.5356L23.0892 22.6085C21.6615 24.0362 19.3384 24.0362 17.9107 22.6085L16.8378 21.5356L9.25586 29.0688C9.54233 29.2059 9.85898 29.289 10.1972 29.289H30.8027C31.1409 29.289 31.4576 29.2059 31.744 29.0688L24.1621 21.5356Z" fill="#3D54A5"/>
<defs>
<linearGradient id="paint0_linear_151_4646" x1="16.0438" y1="-172.295" x2="71.3644" y2="-170.12" gradientUnits="userSpaceOnUse">
<stop stop-color="#3FC0EA"/>
<stop offset="1" stop-color="#E90DB7"/>
</linearGradient>
</defs>
</svg>
