<svg width="21" height="21" viewBox="0 0 21 21" fill="none" xmlns="http://www.w3.org/2000/svg">
<path d="M13.6072 11.3716L11.8484 13.1364C11.1352 13.8521 9.88026 13.8675 9.15162 13.1364L7.39275 11.3716L1.07568 17.7092C1.31083 17.8179 1.57009 17.8828 1.84571 17.8828H19.1543C19.4299 17.8828 19.6891 17.818 19.9242 17.7092L13.6072 11.3716Z" fill="#3D54A5"/>
<path d="M19.1543 3.11719H1.8457C1.57008 3.11719 1.31082 3.18207 1.07576 3.29081L7.82599 10.0634C7.82644 10.0639 7.82697 10.064 7.82742 10.0644C7.8277 10.0647 7.82789 10.0651 7.82795 10.0655L10.0228 12.2676C10.256 12.5007 10.7441 12.5007 10.9773 12.2676L13.1717 10.0658C13.1717 10.0658 13.1722 10.0649 13.1727 10.0644C13.1727 10.0644 13.1736 10.0639 13.1741 10.0634L19.9242 3.29077C19.6891 3.18199 19.4299 3.11719 19.1543 3.11719ZM0.196301 4.15127C0.0746484 4.39728 0 4.67037 0 4.96289V16.0371C0 16.3296 0.0745664 16.6027 0.19626 16.8487L6.52427 10.5002L0.196301 4.15127ZM20.8037 4.15119L14.4758 10.5002L20.8037 16.8488C20.9254 16.6028 21 16.3297 21 16.0371V4.96289C21 4.67029 20.9254 4.3972 20.8037 4.15119Z" fill="#3D54A5"/>
</svg>
