<svg width="21" height="21" viewBox="0 0 21 21" fill="none" xmlns="http://www.w3.org/2000/svg">
<path d="M18.5373 14.4763L16.1649 12.1039C15.3176 11.2566 13.8772 11.5955 13.5383 12.697C13.2841 13.4596 12.4368 13.8832 11.6743 13.7137C9.97969 13.2901 7.69202 11.0871 7.26838 9.30784C7.01419 8.54525 7.52256 7.69797 8.28512 7.44381C9.38659 7.1049 9.72551 5.66451 8.87822 4.81723L6.50582 2.44483C5.82799 1.85172 4.81125 1.85172 4.21815 2.44483L2.6083 4.05467C0.998458 5.74924 2.77776 10.2399 6.76 14.2221C10.7423 18.2043 15.2329 20.0684 16.9274 18.3738L18.5373 16.764C19.1304 16.0861 19.1304 15.0694 18.5373 14.4763Z" fill="#080A11"/>
</svg>
