<svg width="40" height="40" viewBox="0 0 40 40" fill="none" xmlns="http://www.w3.org/2000/svg">
<rect opacity="0.1" width="40" height="40" rx="20" fill="url(#paint0_linear_98_4681)"/>
<path d="M19.5385 16.0112C17.5924 16.0112 16.0116 17.592 16.0116 19.5382C16.0116 21.4843 17.5924 23.0689 19.5385 23.0689C21.4847 23.0689 23.0693 21.4843 23.0693 19.5382C23.0693 17.592 21.4847 16.0112 19.5385 16.0112Z" fill="#3D54A5"/>
<path d="M24.8616 9.92285H14.2154C11.85 9.92285 9.9231 11.8498 9.9231 14.2152V24.8613C9.9231 27.2305 11.85 29.1536 14.2154 29.1536H24.8616C27.2308 29.1536 29.1539 27.2305 29.1539 24.8613V14.2152C29.1539 11.8498 27.2308 9.92285 24.8616 9.92285ZM19.5385 25.769C16.1039 25.769 13.3077 22.9729 13.3077 19.5382C13.3077 16.1036 16.1039 13.3113 19.5385 13.3113C22.9731 13.3113 25.7692 16.1036 25.7692 19.5382C25.7692 22.9729 22.9731 25.769 19.5385 25.769ZM25.9 14.4421C25.1731 14.4421 24.5808 13.8536 24.5808 13.1267C24.5808 12.3998 25.1731 11.8075 25.9 11.8075C26.6269 11.8075 27.2192 12.3998 27.2192 13.1267C27.2192 13.8536 26.6269 14.4421 25.9 14.4421Z" fill="#3D54A5"/>
<defs>
<linearGradient id="paint0_linear_98_4681" x1="16.0438" y1="-172.295" x2="71.3644" y2="-170.12" gradientUnits="userSpaceOnUse">
<stop stop-color="#3FC0EA"/>
<stop offset="1" stop-color="#E90DB7"/>
</linearGradient>
</defs>
</svg>
