<svg width="40" height="40" viewBox="0 0 40 40" fill="none" xmlns="http://www.w3.org/2000/svg">
<rect opacity="0.1" width="40" height="40" rx="20" fill="url(#paint0_linear_98_4675)"/>
<path d="M13.9004 28.3379C13.9004 29.5676 12.9035 30.5645 11.6738 30.5645C10.4441 30.5645 9.44727 29.5676 9.44727 28.3379V18.4707C9.44727 17.241 10.4441 16.2441 11.6738 16.2441C12.9035 16.2441 13.9004 17.241 13.9004 18.4707V28.3379ZM25.2266 15.8867C29.7324 15.8867 30.5645 18.8516 30.5645 22.707V28.3408C30.5645 29.5689 29.5689 30.5645 28.3408 30.5645C27.1127 30.5645 26.1172 29.5689 26.1172 28.3408V23.6035C26.1172 21.9453 26.0879 19.8066 23.8027 19.8066C21.4883 19.8066 21.1367 21.6172 21.1367 23.4863V28.3438C21.1367 29.5702 20.1425 30.5645 18.916 30.5645C17.6896 30.5645 16.6953 29.5702 16.6953 28.3438V18.377C16.6953 17.199 17.6502 16.2441 18.8281 16.2441H19.9824C20.5228 16.2441 20.9609 16.6822 20.9609 17.2227V18.1646C20.9609 18.1848 20.9773 18.2012 20.9975 18.2012C21.011 18.2012 21.0234 18.1938 21.0298 18.1819C21.628 17.0626 23.0768 15.8867 25.2266 15.8867ZM11.6738 9.13672C13.0977 9.13672 14.252 10.291 14.252 11.7148C14.252 13.1328 13.0977 14.293 11.6738 14.293C10.2441 14.293 9.08984 13.1387 9.08984 11.7148C9.08984 10.291 10.2441 9.13672 11.6738 9.13672Z" fill="#3D54A5"/>
<defs>
<linearGradient id="paint0_linear_98_4675" x1="16.0438" y1="-172.295" x2="71.3644" y2="-170.12" gradientUnits="userSpaceOnUse">
<stop stop-color="#3FC0EA"/>
<stop offset="1" stop-color="#E90DB7"/>
</linearGradient>
</defs>
</svg>
