<svg width="40" height="40" viewBox="0 0 40 40" fill="none" xmlns="http://www.w3.org/2000/svg">
<rect opacity="0.1" width="40" height="40" rx="20" fill="url(#paint0_linear_98_4658)"/>
<path d="M30.0448 25.52C29.3892 24.9703 25.5448 22.5358 24.9058 22.6475C24.6058 22.7008 24.3763 22.9565 23.762 23.6893C23.4779 24.0499 23.166 24.3877 22.829 24.6995C22.2116 24.5504 21.614 24.3288 21.0485 24.0395C18.831 22.9599 17.0395 21.1679 15.9605 18.95C15.6712 18.3846 15.4496 17.7869 15.3005 17.1695C15.6123 16.8325 15.9501 16.5206 16.3108 16.2365C17.0428 15.6223 17.2993 15.3942 17.3525 15.0927C17.4643 14.4523 15.0275 10.6093 14.48 9.95375C14.2505 9.68225 14.042 9.5 13.775 9.5C13.001 9.5 9.5 13.829 9.5 14.39C9.5 14.4358 9.575 18.9425 15.2668 24.7333C21.0575 30.425 25.5642 30.5 25.61 30.5C26.171 30.5 30.5 26.999 30.5 26.225C30.5 25.958 30.3177 25.7495 30.0448 25.52ZM25.25 19.25H26.75C26.7482 17.6592 26.1155 16.1342 24.9907 15.0093C23.8658 13.8845 22.3408 13.2518 20.75 13.25V14.75C21.9431 14.7512 23.087 15.2257 23.9307 16.0693C24.7743 16.913 25.2488 18.0569 25.25 19.25Z" fill="#3D54A5"/>
<path d="M29 19.25H30.5C30.497 16.6651 29.4688 14.1868 27.641 12.359C25.8132 10.5312 23.3349 9.50298 20.75 9.5V11C22.9372 11.0026 25.0342 11.8726 26.5808 13.4192C28.1274 14.9658 28.9974 17.0628 29 19.25Z" fill="#3D54A5"/>
<defs>
<linearGradient id="paint0_linear_98_4658" x1="16.0438" y1="-172.295" x2="71.3644" y2="-170.12" gradientUnits="userSpaceOnUse">
<stop stop-color="#3FC0EA"/>
<stop offset="1" stop-color="#E90DB7"/>
</linearGradient>
</defs>
</svg>
