<svg width="362" height="236" viewBox="0 0 362 236" fill="none" xmlns="http://www.w3.org/2000/svg">
<path fill-rule="evenodd" clip-rule="evenodd" d="M171.258 50.4792C155.404 55.8333 140.331 67.2972 128.46 77.9846C103.74 100.24 100.05 104.92 69.5521 123.606C51.777 134.496 37.7628 143.705 30.859 156.024C11.463 190.626 34.566 227.999 82.9744 227.999H279.763C279.763 227.999 302.911 228.473 319.803 209.979C377.056 147.295 282.098 13.049 171.258 50.4792Z" fill="#E6EAFB"/>
<path d="M248.106 70.3701C248.106 79.0105 242.823 86.4051 235.327 89.4692H128.788C121.298 86.4051 116.015 79.009 116.015 70.3701C116.015 58.9866 125.192 49.7558 136.514 49.7558C136.682 49.7558 136.845 49.7558 137.007 49.7618C140.061 28.3028 157.036 11.8889 177.511 11.8889C197.987 11.8889 216.133 29.4627 218.284 52.0092C221.08 50.5666 224.25 49.7558 227.601 49.7558C238.923 49.7558 248.104 58.9881 248.104 70.3701H248.106Z" fill="#1D3070"/>
<path d="M241.107 70.3701C241.107 79.0105 235.824 86.4051 228.328 89.4692H121.79C114.299 86.4051 109.016 79.009 109.016 70.3701C109.016 58.9866 118.193 49.7558 129.515 49.7558C129.683 49.7558 129.847 49.7558 130.008 49.7618C133.062 28.3028 150.037 11.8889 170.512 11.8889C190.988 11.8889 209.134 29.4627 211.285 52.0092C214.081 50.5666 217.251 49.7558 220.602 49.7558C231.924 49.7558 241.106 58.9881 241.106 70.3701H241.107Z" fill="#3D54A5"/>
<path d="M74.9074 65.4177C69.4875 65.4177 65.0919 69.8356 65.0919 75.2861C65.0919 80.7367 69.4861 85.1546 74.9074 85.1546C80.3287 85.1546 84.7228 80.7367 84.7228 75.2861C84.7228 69.8356 80.3287 65.4177 74.9074 65.4177ZM74.9074 79.9881C72.3233 79.9881 70.2292 77.8827 70.2292 75.2847C70.2292 72.6866 72.3233 70.5813 74.9074 70.5813C77.4915 70.5813 79.5855 72.6866 79.5855 75.2847C79.5855 77.8827 77.4915 79.9881 74.9074 79.9881Z" fill="#3DBDC7"/>
<path d="M77.0073 64.052C76.9338 63.2456 76.2612 62.6272 75.4548 62.6272H74.36C73.5535 62.6272 72.881 63.2456 72.8074 64.052L72.5779 66.5894H77.2369L77.0073 64.052Z" fill="#3DBDC7"/>
<path d="M70.0394 64.956C69.5081 64.3465 68.6031 64.2444 67.9512 64.7208L67.0653 65.3673C66.4134 65.8438 66.2294 66.7403 66.643 67.4372L67.9409 69.6254L71.7096 66.872L70.0408 64.9546L70.0394 64.956Z" fill="#3DBDC7"/>
<path d="M64.93 69.8058C64.1442 69.6268 63.3525 70.0796 63.1023 70.8489L62.7639 71.8964C62.5152 72.6672 62.8919 73.5017 63.6321 73.8198L65.9616 74.8229L67.4008 70.3681L64.93 69.8044V69.8058Z" fill="#3DBDC7"/>
<path d="M63.6336 76.7495C62.8934 77.069 62.5166 77.9035 62.7653 78.6729L63.1038 79.7204C63.3525 80.4912 64.1457 80.9439 64.9315 80.7634L67.4023 80.1997L65.9631 75.7449L63.6336 76.748V76.7495Z" fill="#3DBDC7"/>
<path d="M66.6415 83.1321C66.2295 83.8275 66.4119 84.7255 67.0639 85.2019L67.9497 85.8485C68.6017 86.3249 69.5067 86.2228 70.0379 85.6132L71.7067 83.6958L67.938 80.9424L66.64 83.1306L66.6415 83.1321Z" fill="#3DBDC7"/>
<path d="M72.8089 86.5186C72.8825 87.3249 73.555 87.9434 74.3614 87.9434H75.4563C76.2627 87.9434 76.9352 87.3249 77.0088 86.5186L77.2384 83.9812H72.5793L72.8089 86.5186Z" fill="#3DBDC7"/>
<path d="M79.7769 85.6132C80.3081 86.2228 81.2131 86.3249 81.865 85.8485L82.7509 85.2019C83.4029 84.7255 83.5868 83.8289 83.1733 83.1321L81.8753 80.9438L78.1066 83.6972L79.7754 85.6147L79.7769 85.6132Z" fill="#3DBDC7"/>
<path d="M84.8847 80.7632C85.6706 80.9422 86.4623 80.4894 86.7124 79.7201L87.0509 78.6726C87.2996 77.9018 86.9229 77.0673 86.1827 76.7492L83.8532 75.7461L82.4139 80.2009L84.8847 80.7646V80.7632Z" fill="#3DBDC7"/>
<path d="M86.1827 73.8213C86.9229 73.5017 87.2996 72.6673 87.0509 71.8979L86.7124 70.8504C86.4637 70.0796 85.6706 69.6269 84.8847 69.8074L82.4139 70.3711L83.8532 74.8259L86.1827 73.8228V73.8213Z" fill="#3DBDC7"/>
<path d="M83.1732 67.4372C83.5853 66.7418 83.4028 65.8438 82.7509 65.3673L81.865 64.7208C81.2131 64.2444 80.3081 64.3465 79.7768 64.956L78.108 66.8735L81.8768 69.6269L83.1747 67.4387L83.1732 67.4372Z" fill="#3DBDC7"/>
<path d="M251.071 14.4619C243.735 14.4619 237.787 20.4407 237.787 27.8176C237.787 35.1945 243.734 41.1732 251.071 41.1732C258.408 41.1732 264.355 35.1945 264.355 27.8176C264.355 20.4407 258.408 14.4619 251.071 14.4619ZM251.071 34.2343C247.547 34.2343 244.689 31.361 244.689 27.8176C244.689 24.2741 247.547 21.4009 251.071 21.4009C254.595 21.4009 257.453 24.2741 257.453 27.8176C257.453 31.361 254.595 34.2343 251.071 34.2343Z" fill="#3D54A5"/>
<path d="M253.913 12.6141C253.814 11.5222 252.903 10.6863 251.813 10.6863H250.331C249.24 10.6863 248.329 11.5222 248.231 12.6141L247.92 16.0481H254.225L253.914 12.6141H253.913Z" fill="#3D54A5"/>
<path d="M244.481 13.8377C243.763 13.0122 242.537 12.8746 241.654 13.5197L240.455 14.3955C239.572 15.0406 239.325 16.2553 239.883 17.1963L241.638 20.1583L246.739 16.4328L244.48 13.8377H244.481Z" fill="#3D54A5"/>
<path d="M237.568 20.4023C236.504 20.1596 235.433 20.7722 235.096 21.8152L234.638 23.2326C234.301 24.2757 234.81 25.4046 235.812 25.8366L238.964 27.1948L240.913 21.1657L237.568 20.4023Z" fill="#3D54A5"/>
<path d="M235.812 29.7972C234.81 30.2292 234.301 31.3581 234.638 32.4011L235.096 33.8185C235.433 34.8616 236.505 35.4741 237.568 35.2315L240.913 34.468L238.964 28.439L235.812 29.7972Z" fill="#3D54A5"/>
<path d="M239.884 38.4378C239.326 39.3803 239.574 40.595 240.457 41.2386L241.656 42.1145C242.539 42.7595 243.763 42.6205 244.483 41.7964L246.742 39.2013L241.641 35.4758L239.886 38.4378H239.884Z" fill="#3D54A5"/>
<path d="M248.229 43.0197C248.328 44.1116 249.239 44.9475 250.329 44.9475H251.811C252.902 44.9475 253.813 44.1116 253.911 43.0197L254.222 39.5857H247.917L248.228 43.0197H248.229Z" fill="#3D54A5"/>
<path d="M257.661 41.7946C258.379 42.6202 259.605 42.7578 260.488 42.1127L261.687 41.2369C262.57 40.5918 262.817 39.3771 262.26 38.4361L260.504 35.4741L255.403 39.1996L257.662 41.7946H257.661Z" fill="#3D54A5"/>
<path d="M264.574 35.2315C265.638 35.4741 266.71 34.8616 267.047 33.8185L267.504 32.4011C267.841 31.3581 267.332 30.2292 266.33 29.7972L263.178 28.439L261.229 34.468L264.574 35.2315Z" fill="#3D54A5"/>
<path d="M266.33 25.8349C267.332 25.4028 267.841 24.274 267.504 23.2309L267.047 21.8135C266.71 20.7705 265.637 20.1579 264.574 20.4006L261.229 21.164L263.178 27.1931L266.33 25.8349Z" fill="#3D54A5"/>
<path d="M262.258 17.1963C262.816 16.2538 262.569 15.0392 261.686 14.3956L260.486 13.5197C259.603 12.8746 258.379 13.0137 257.659 13.8378L255.401 16.4329L260.501 20.1583L262.257 17.1963H262.258Z" fill="#3D54A5"/>
<path d="M282.757 28.948C276.656 28.948 271.71 33.9207 271.71 40.0548C271.71 46.1889 276.656 51.1616 282.757 51.1616C288.858 51.1616 293.804 46.1889 293.804 40.0548C293.804 33.9207 288.858 28.948 282.757 28.948ZM282.757 44.6591C280.228 44.6591 278.178 42.5981 278.178 40.0548C278.178 37.5115 280.228 35.4505 282.757 35.4505C285.287 35.4505 287.337 37.5115 287.337 40.0548C287.337 42.5981 285.287 44.6591 282.757 44.6591Z" fill="#3DBDC7"/>
<path d="M285.121 27.4107C285.038 26.5023 284.28 25.8069 283.374 25.8069H282.141C281.234 25.8069 280.476 26.5023 280.394 27.4107L280.135 30.2662H285.378L285.119 27.4107H285.121Z" fill="#3DBDC7"/>
<path d="M277.277 28.4303C276.68 27.7438 275.66 27.6299 274.927 28.1654L273.929 28.8934C273.195 29.429 272.989 30.4395 273.454 31.2221L274.914 33.6856L279.156 30.5874L277.277 28.4303Z" fill="#3DBDC7"/>
<path d="M271.526 33.888C270.642 33.6853 269.75 34.1958 269.469 35.0628L269.088 36.242C268.808 37.109 269.23 38.0485 270.065 38.408L272.687 39.5383L274.307 34.5242L271.526 33.8895V33.888Z" fill="#3DBDC7"/>
<path d="M270.066 41.7029C269.232 42.0624 268.81 43.0019 269.089 43.8689L269.47 45.0481C269.75 45.9151 270.642 46.424 271.528 46.2228L274.309 45.5881L272.689 40.574L270.066 41.7043V41.7029Z" fill="#3DBDC7"/>
<path d="M273.454 48.8875C272.989 49.6701 273.196 50.6807 273.929 51.2162L274.927 51.9442C275.661 52.4798 276.68 52.3658 277.277 51.6793L279.156 49.5222L274.914 46.4241L273.454 48.8875Z" fill="#3DBDC7"/>
<path d="M280.394 52.6987C280.476 53.6072 281.234 54.3025 282.141 54.3025H283.374C284.28 54.3025 285.038 53.6072 285.121 52.6987L285.38 49.8433H280.136L280.395 52.6987H280.394Z" fill="#3DBDC7"/>
<path d="M288.237 51.6808C288.835 52.3673 289.855 52.4812 290.588 51.9456L291.585 51.2177C292.32 50.6821 292.526 49.6716 292.061 48.8889L290.601 46.4255L286.358 49.5237L288.237 51.6808Z" fill="#3DBDC7"/>
<path d="M293.987 46.2213C294.871 46.424 295.763 45.9136 296.044 45.0466L296.425 43.8674C296.705 43.0004 296.283 42.0609 295.448 41.7014L292.826 40.571L291.206 45.5851L293.987 46.2199V46.2213Z" fill="#3DBDC7"/>
<path d="M295.448 38.408C296.283 38.0485 296.705 37.109 296.425 36.242L296.044 35.0628C295.765 34.1958 294.873 33.6868 293.987 33.8881L291.206 34.5228L292.826 39.5369L295.448 38.4065V38.408Z" fill="#3DBDC7"/>
<path d="M292.061 31.2221C292.526 30.4395 292.318 29.429 291.585 28.8934L290.588 28.1654C289.853 27.6299 288.835 27.7438 288.237 28.4303L286.358 30.5874L290.601 33.6856L292.061 31.2221Z" fill="#3DBDC7"/>
<path d="M101.283 5.43677C94.6051 5.43677 89.1896 10.8799 89.1896 17.5955C89.1896 24.3111 94.6036 29.7542 101.283 29.7542C107.963 29.7542 113.377 24.3111 113.377 17.5955C113.377 10.8799 107.963 5.43677 101.283 5.43677ZM101.283 23.3893C98.1001 23.3893 95.5189 20.7942 95.5189 17.594C95.5189 14.3938 98.1001 11.7987 101.283 11.7987C104.466 11.7987 107.047 14.3938 107.047 17.594C107.047 20.7942 104.466 23.3893 101.283 23.3893Z" fill="#3DBDC7"/>
<path d="M101.283 21.1317C103.226 21.1317 104.8 19.5485 104.8 17.5956C104.8 15.6427 103.226 14.0596 101.283 14.0596C99.3407 14.0596 97.7661 15.6427 97.7661 17.5956C97.7661 19.5485 99.3407 21.1317 101.283 21.1317Z" fill="#3D54A5"/>
<path d="M103.87 3.75472C103.78 2.76048 102.95 2 101.959 2H100.609C99.6158 2 98.7873 2.76048 98.6975 3.75472L98.415 6.88095H104.154L103.872 3.75472H103.87Z" fill="#3DBDC7"/>
<path d="M95.285 4.87035C94.6316 4.11875 93.5147 3.99299 92.7127 4.58036L91.6208 5.37783C90.8173 5.9652 90.5921 7.0704 91.0998 7.92705L92.698 10.6242L97.3408 7.23167L95.2835 4.87035H95.285Z" fill="#3DBDC7"/>
<path d="M88.991 10.8447C88.0227 10.6243 87.047 11.1806 86.7395 12.1304L86.323 13.4206C86.0169 14.3704 86.4805 15.3972 87.3928 15.7908L90.2624 17.0276L92.0357 11.5401L88.991 10.8447Z" fill="#3DBDC7"/>
<path d="M87.3914 19.3992C86.479 19.7928 86.0154 20.8211 86.3215 21.7694L86.738 23.0596C87.0441 24.0094 88.0212 24.5672 88.9895 24.3453L92.0342 23.6499L90.261 18.1624L87.3914 19.3992Z" fill="#3DBDC7"/>
<path d="M91.0998 27.2643C90.5921 28.1224 90.8173 29.2276 91.6208 29.8135L92.7127 30.611C93.5162 31.1984 94.6316 31.0726 95.285 30.321L97.3423 27.9597L92.6994 24.5671L91.1013 27.2643H91.0998Z" fill="#3DBDC7"/>
<path d="M98.6976 31.4351C98.7874 32.4293 99.6173 33.1898 100.609 33.1898H101.959C102.952 33.1898 103.78 32.4293 103.87 31.4351L104.153 28.3088H98.4136L98.6961 31.4351H98.6976Z" fill="#3DBDC7"/>
<path d="M107.283 30.321C107.936 31.0726 109.053 31.1984 109.855 30.611L110.947 29.8135C111.751 29.2262 111.976 28.121 111.468 27.2643L109.87 24.5671L105.227 27.9597L107.284 30.321H107.283Z" fill="#3DBDC7"/>
<path d="M113.577 24.3453C114.545 24.5657 115.521 24.0094 115.828 23.0596L116.245 21.7694C116.551 20.8196 116.087 19.7928 115.175 19.3992L112.305 18.1624L110.532 23.6499L113.577 24.3453Z" fill="#3DBDC7"/>
<path d="M115.175 15.7922C116.087 15.3987 116.551 14.3704 116.245 13.422L115.828 12.1319C115.522 11.182 114.545 10.6242 113.577 10.8462L110.532 11.5415L112.305 17.0291L115.175 15.7922Z" fill="#3DBDC7"/>
<path d="M111.468 7.92705C111.976 7.06892 111.75 5.96372 110.947 5.37783L109.855 4.58036C109.052 3.99299 107.936 4.11875 107.283 4.87035L105.225 7.23167L109.868 10.6242L111.466 7.92705H111.468Z" fill="#3DBDC7"/>
<path d="M282.972 103.866C288.865 103.866 293.642 99.0631 293.642 93.1382C293.642 87.2133 288.865 82.4102 282.972 82.4102C277.078 82.4102 272.301 87.2133 272.301 93.1382C272.301 99.0631 277.078 103.866 282.972 103.866Z" fill="#3D54A5"/>
<path d="M282.972 98.2514C285.78 98.2514 288.057 95.9621 288.057 93.1381C288.057 90.3142 285.78 88.0249 282.972 88.0249C280.163 88.0249 277.886 90.3142 277.886 93.1381C277.886 95.9621 280.163 98.2514 282.972 98.2514Z" fill="white"/>
<path d="M285.254 80.9263C285.175 80.0489 284.443 79.3772 283.568 79.3772H282.377C281.502 79.3772 280.77 80.0489 280.691 80.9263L280.441 83.6841H285.504L285.254 80.9263Z" fill="#3D54A5"/>
<path d="M277.678 81.91C277.101 81.2472 276.117 81.1362 275.408 81.654L274.444 82.3583C273.734 82.8761 273.536 83.8511 273.985 84.6086L275.396 86.9877L279.493 83.9946L277.678 81.91Z" fill="#3D54A5"/>
<path d="M272.125 87.1818C271.27 86.9865 270.409 87.4792 270.138 88.3166L269.77 89.4543C269.499 90.2917 269.908 91.1987 270.713 91.5464L273.246 92.6383L274.81 87.7958L272.123 87.1818H272.125Z" fill="#3D54A5"/>
<path d="M270.715 94.7289C269.91 95.0765 269.501 95.9835 269.772 96.8209L270.139 97.9587C270.41 98.7961 271.271 99.2887 272.126 99.0934L274.813 98.4794L273.249 93.637L270.716 94.7289H270.715Z" fill="#3D54A5"/>
<path d="M273.986 101.669C273.537 102.425 273.737 103.402 274.445 103.919L275.409 104.624C276.118 105.142 277.103 105.031 277.68 104.368L279.494 102.283L275.397 99.29L273.986 101.669Z" fill="#3D54A5"/>
<path d="M280.689 105.35C280.769 106.227 281.5 106.899 282.376 106.899H283.566C284.442 106.899 285.173 106.227 285.253 105.35L285.503 102.592H280.439L280.689 105.35Z" fill="#3D54A5"/>
<path d="M288.265 104.367C288.842 105.029 289.826 105.14 290.536 104.622L291.498 103.918C292.207 103.4 292.406 102.425 291.957 101.668L290.546 99.2888L286.449 102.282L288.263 104.367H288.265Z" fill="#3D54A5"/>
<path d="M293.819 99.0934C294.674 99.2887 295.534 98.7961 295.805 97.9587L296.173 96.8209C296.444 95.9835 296.035 95.0765 295.23 94.7289L292.697 93.637L291.133 98.4794L293.82 99.0934H293.819Z" fill="#3D54A5"/>
<path d="M295.228 91.5464C296.033 91.1987 296.442 90.2917 296.172 89.4543L295.804 88.3166C295.533 87.4792 294.672 86.9865 293.817 87.1818L291.13 87.7958L292.694 92.6383L295.227 91.5464H295.228Z" fill="#3D54A5"/>
<path d="M291.957 84.6074C292.406 83.8514 292.206 82.8749 291.498 82.3571L290.536 81.6528C289.826 81.135 288.842 81.2459 288.265 81.9088L286.45 83.9934L290.547 86.9865L291.959 84.6074H291.957Z" fill="#3D54A5"/>
<g clip-path="url(#clip0_151_3881)">
<path d="M144.057 98.6025H153.745C154.507 98.6025 155.125 97.9876 155.125 97.229V89.528C155.125 88.7694 154.507 88.1545 153.745 88.1545H144.057C143.295 88.1545 142.678 88.7694 142.678 89.528V97.229C142.678 97.9876 143.295 98.6025 144.057 98.6025Z" fill="#3D54A5"/>
<path d="M59.3107 153.036H58.4375V123.558C58.4375 122.278 59.4831 121.237 60.7686 121.237H147.508C148.311 121.237 148.966 120.586 148.966 119.786V96.627H149.839V119.786C149.839 121.066 148.793 122.107 147.508 122.107H60.7686C59.9651 122.107 59.3107 122.758 59.3107 123.558V153.036Z" fill="#3D54A5"/>
</g>
<g clip-path="url(#clip1_151_3881)">
<path d="M47.0853 181.468V155.084C47.0853 154.112 47.9104 153.323 48.9279 153.323H59.1087C59.5965 153.323 60.0653 153.509 60.4102 153.839L64.0896 157.36C64.4345 157.69 64.9032 157.876 65.391 157.876H82.1781C83.1956 157.876 84.0188 158.666 84.0188 159.638V179.705C84.0188 180.679 83.1937 181.466 82.1781 181.466H47.0853V181.468Z" fill="#3D54A5"/>
<path d="M84.0188 181.469H47.0491L53.0456 160.707H90.0133L84.0188 181.469Z" fill="#8092D3"/>
</g>
<g clip-path="url(#clip2_151_3881)">
<path d="M211.88 99.6663H202.192C201.43 99.6663 200.812 99.0513 200.812 98.2928V90.5917C200.812 89.8331 201.43 89.2182 202.192 89.2182H211.88C212.642 89.2182 213.26 89.8331 213.26 90.5917V98.2928C213.26 99.0513 212.642 99.6663 211.88 99.6663Z" fill="#3D54A5"/>
<path d="M296.627 154.1H297.5V124.622C297.5 123.342 296.454 122.301 295.169 122.301H208.43C207.626 122.301 206.972 121.65 206.972 120.85V97.6907H206.098V120.85C206.098 122.129 207.144 123.17 208.43 123.17H295.169C295.972 123.17 296.627 123.822 296.627 124.622V154.1Z" fill="#3D54A5"/>
</g>
<g clip-path="url(#clip3_151_3881)">
<path d="M174.052 88.1545H183.167C183.884 88.1545 184.465 88.7447 184.465 89.471V96.8509C184.465 97.5782 183.883 98.1673 183.167 98.1673H174.052C173.335 98.1673 172.753 97.5772 172.753 96.8509V89.471C172.753 88.7447 173.335 88.1545 174.052 88.1545Z" fill="#3D54A5"/>
<path d="M196.662 154.381H195.84V137.271C195.84 136.673 195.361 136.186 194.771 136.186H178.09V95.3943H178.911V135.354H194.771C195.813 135.354 196.662 136.214 196.662 137.271V154.381Z" fill="#3D54A5"/>
<path d="M161.16 154.381H160.338V137.271C160.338 136.214 161.187 135.354 162.229 135.354H178.5V136.187H162.23C161.64 136.187 161.161 136.673 161.161 137.272V154.382L161.16 154.381Z" fill="#3D54A5"/>
<path d="M199.706 154.314C200.016 152.38 198.721 150.558 196.813 150.244C194.906 149.93 193.109 151.243 192.799 153.177C192.489 155.111 193.785 156.934 195.692 157.248C197.599 157.562 199.397 156.248 199.706 154.314Z" fill="#FFC837"/>
<path d="M164.719 153.856C165.029 151.922 163.733 150.1 161.826 149.786C159.919 149.473 158.121 150.786 157.811 152.72C157.501 154.654 158.796 156.476 160.704 156.79C162.611 157.104 164.409 155.79 164.719 153.856Z" fill="#2B3B73"/>
<path d="M179.015 138.859C180.948 138.859 182.514 137.271 182.514 135.311C182.514 133.352 180.948 131.764 179.015 131.764C177.083 131.764 175.517 133.352 175.517 135.311C175.517 137.271 177.083 138.859 179.015 138.859Z" fill="#3DBDC7"/>
</g>
<g clip-path="url(#clip4_151_3881)">
<path d="M316.023 156.407L281.835 156.473L281.952 217.664L316.14 217.599L316.023 156.407Z" fill="#FFF9F0"/>
<path d="M283.016 154.133L302.783 154.247L302.787 156.825L292.778 156.845L285.642 156.884C283.238 156.888 281.292 158.85 281.298 161.264L281.392 211.111C281.398 213.525 283.349 215.479 285.754 215.473L302.899 215.508L302.909 220.92L283.142 221.105C280.738 221.109 278.786 219.158 278.78 216.743L278.673 158.513C278.669 156.099 280.612 154.139 283.016 154.133Z" fill="#243572"/>
<path d="M280.448 158.48L280.458 216.711C280.458 219.027 282.249 220.92 284.517 221.072C284.617 221.081 284.716 221.083 284.814 221.083L315.209 221.077C316.764 221.077 318.027 219.808 318.027 218.246L318.017 156.935C318.017 155.368 316.754 154.1 315.195 154.1L284.801 154.106C284.7 154.106 284.598 154.11 284.499 154.116C282.237 154.271 280.448 156.166 280.448 158.48ZM283.069 159.696C283.069 158.132 284.33 156.863 285.888 156.863L312.577 156.859C314.132 156.859 315.396 158.126 315.396 159.692L315.404 212.618C315.404 214.182 314.143 215.45 312.585 215.45L285.896 215.454C284.338 215.454 283.073 214.186 283.073 212.622L283.065 159.698L283.069 159.696Z" fill="#3D54A5"/>
<path d="M295.676 219.582L302.921 219.568C303.648 219.568 304.235 218.974 304.233 218.244C304.233 217.514 303.642 216.925 302.915 216.927L295.669 216.941C294.943 216.941 294.356 217.534 294.358 218.264C294.358 218.995 294.949 219.584 295.676 219.584V219.582Z" fill="#3B4371"/>
<path d="M306.988 187.15C308.051 182.713 305.33 178.251 300.912 177.184C296.493 176.117 292.05 178.85 290.988 183.287C289.925 187.724 292.646 192.185 297.064 193.252C301.483 194.319 305.926 191.587 306.988 187.15Z" fill="#F35733"/>
<path d="M298.579 189.048C298.22 189.048 297.873 188.906 297.617 188.647L294.652 185.669C294.404 185.421 294.404 185.019 294.652 184.77C294.9 184.521 295.3 184.521 295.548 184.77L298.512 187.747C298.533 187.768 298.559 187.778 298.588 187.776C298.616 187.774 298.64 187.762 298.657 187.737L302.537 182.455C302.744 182.172 303.142 182.113 303.423 182.321C303.705 182.529 303.764 182.929 303.557 183.21L299.676 188.492C299.44 188.812 299.079 189.014 298.683 189.044C298.649 189.046 298.614 189.048 298.582 189.048H298.579Z" fill="white"/>
</g>
<line x1="145.562" y1="197.177" x2="204" y2="197.177" stroke="#3D54A5" stroke-width="1.06364"/>
<line x1="225.25" y1="197.177" x2="278.375" y2="197.177" stroke="#3D54A5" stroke-width="1.06364"/>
<line x1="123.256" y1="121.664" x2="123.256" y2="180.164" stroke="#3D54A5" stroke-width="1.06364"/>
<g clip-path="url(#clip5_151_3881)">
<path d="M100.541 180.691H145.16C146.054 180.691 146.782 181.407 146.782 182.289V213.13C146.782 214.012 146.055 214.728 145.159 214.728H100.541C99.6459 214.728 98.9182 214.013 98.9182 213.13V182.289C98.9182 181.407 99.6447 180.691 100.541 180.691Z" fill="#829ED9"/>
<path d="M100.948 181.61H144.753C145.357 181.61 145.849 182.093 145.849 182.69V212.728C145.849 213.324 145.358 213.808 144.753 213.808H100.948C100.343 213.808 99.8509 213.325 99.8509 212.728V182.69C99.8509 182.094 100.342 181.61 100.948 181.61Z" fill="white"/>
<path d="M146.782 183.42V183.789H98.9182V183.42C98.9182 181.917 100.159 180.691 101.689 180.691H144.011C145.541 180.691 146.782 181.917 146.782 183.42Z" fill="#829ED9"/>
<path d="M101.552 182.652C101.552 182.904 101.346 183.107 101.093 183.107C100.84 183.107 100.631 182.904 100.631 182.652C100.631 182.399 100.837 182.2 101.093 182.2C101.349 182.2 101.552 182.403 101.552 182.652Z" fill="white"/>
<path d="M102.746 182.652C102.746 182.904 102.539 183.107 102.287 183.107C102.034 183.107 101.824 182.904 101.824 182.652C101.824 182.399 102.03 182.2 102.287 182.2C102.543 182.2 102.746 182.403 102.746 182.652Z" fill="white"/>
<path d="M103.939 182.652C103.939 182.904 103.733 183.107 103.48 183.107C103.227 183.107 103.018 182.904 103.018 182.652C103.018 182.399 103.224 182.2 103.48 182.2C103.736 182.2 103.939 182.403 103.939 182.652Z" fill="white"/>
<path d="M112.098 197.518H106.693C106.517 197.518 106.375 197.658 106.375 197.831V197.834C106.375 198.007 106.517 198.147 106.693 198.147H112.098C112.274 198.147 112.416 198.007 112.416 197.834V197.831C112.416 197.658 112.274 197.518 112.098 197.518Z" fill="#E8EDF7"/>
<g opacity="0.6">
<path d="M101.741 189.266C101.741 189.093 101.884 188.953 102.059 188.953H116.327C116.502 188.953 116.644 189.093 116.644 189.266C116.644 189.439 116.502 189.579 116.327 189.579H102.059C101.884 189.579 101.741 189.439 101.741 189.266Z" fill="#3D54A5"/>
</g>
<g opacity="0.6">
<path d="M101.741 204.259C101.741 204.086 101.884 203.946 102.059 203.946H102.661C102.837 203.946 102.979 204.086 102.979 204.259C102.979 204.432 102.837 204.572 102.661 204.572H102.059C101.884 204.572 101.741 204.432 101.741 204.259Z" fill="#3D54A5"/>
</g>
<path d="M103.604 197.518H102.059C101.883 197.518 101.741 197.658 101.741 197.831V197.834C101.741 198.007 101.883 198.147 102.059 198.147H103.604C103.78 198.147 103.922 198.007 103.922 197.834V197.831C103.922 197.658 103.78 197.518 103.604 197.518Z" fill="#E8EDF7"/>
<path d="M101.741 191.406C101.741 191.233 101.884 191.093 102.059 191.093H105.228C105.403 191.093 105.546 191.233 105.546 191.406C105.546 191.579 105.403 191.719 105.228 191.719H102.059C101.884 191.719 101.741 191.579 101.741 191.406Z" fill="#E4F0FD"/>
<g opacity="0.6">
<path d="M101.741 195.69C101.741 195.518 101.884 195.377 102.059 195.377H109.719C109.895 195.377 110.037 195.518 110.037 195.69C110.037 195.863 109.895 196.003 109.719 196.003H102.059C101.884 196.003 101.741 195.863 101.741 195.69Z" fill="#3D54A5"/>
</g>
<path d="M115.892 210.682C115.892 210.855 115.749 210.995 115.574 210.995H102.059C101.884 210.995 101.741 210.855 101.741 210.682C101.741 210.509 101.884 210.369 102.059 210.369H115.574C115.749 210.369 115.892 210.509 115.892 210.682Z" fill="#E8EDF7"/>
<path d="M101.741 187.122C101.741 186.949 101.884 186.809 102.062 186.809H107.945C108.121 186.809 108.263 186.949 108.263 187.122C108.263 187.295 108.121 187.438 107.945 187.438H102.063C101.885 187.438 101.742 187.298 101.742 187.122H101.741Z" fill="#E4F0FD"/>
<path d="M101.741 206.398C101.741 206.225 101.884 206.085 102.059 206.085H112.213C112.389 206.085 112.531 206.225 112.531 206.398C112.531 206.571 112.389 206.711 112.213 206.711H102.059C101.884 206.711 101.741 206.571 101.741 206.398Z" fill="#E8EDF7"/>
<path d="M104.426 203.946H117.197C117.372 203.946 117.514 204.086 117.514 204.259C117.514 204.432 117.372 204.572 117.197 204.572H104.426C104.251 204.572 104.109 204.432 104.109 204.259C104.109 204.086 104.251 203.946 104.426 203.946Z" fill="#E8EDF7"/>
<path d="M117.136 202.114C117.136 201.941 117.279 201.801 117.454 201.801H120.668C120.843 201.801 120.985 201.941 120.985 202.114C120.985 202.287 120.843 202.427 120.668 202.427H117.454C117.279 202.427 117.136 202.287 117.136 202.114Z" fill="#E8EDF7"/>
<path d="M101.741 202.114C101.741 201.941 101.884 201.801 102.059 201.801H114.06C114.236 201.801 114.378 201.941 114.378 202.114C114.378 202.287 114.236 202.427 114.06 202.427H102.059C101.884 202.427 101.741 202.287 101.741 202.114Z" fill="#E8EDF7"/>
<path d="M102.059 208.227H107.417C107.592 208.227 107.735 208.367 107.735 208.54V208.544C107.735 208.717 107.592 208.857 107.417 208.857H102.059C101.884 208.857 101.741 208.717 101.741 208.544V208.541C101.741 208.368 101.884 208.228 102.059 208.228V208.227Z" fill="#FFC837"/>
<path d="M114.288 191.093C114.464 191.093 114.606 191.233 114.606 191.406C114.606 191.579 114.464 191.719 114.288 191.719H108.316C108.141 191.719 107.999 191.579 107.999 191.406C107.999 191.233 108.141 191.093 108.316 191.093H114.288Z" fill="#E4F0FD"/>
<path d="M122.306 195.69C122.306 195.863 122.164 196.003 121.989 196.003H110.996C110.821 196.003 110.678 195.863 110.678 195.69C110.678 195.518 110.821 195.377 110.996 195.377H121.989C122.164 195.377 122.306 195.518 122.306 195.69Z" fill="#E4F0FD"/>
<path d="M123.064 210.682C123.064 210.855 122.921 210.995 122.746 210.995H118.511C118.335 210.995 118.193 210.855 118.193 210.682C118.193 210.509 118.335 210.369 118.511 210.369H122.746C122.921 210.369 123.064 210.509 123.064 210.682Z" fill="#FFC837"/>
<path d="M113.698 206.398C113.698 206.225 113.841 206.085 114.016 206.085H125.842C126.018 206.085 126.16 206.225 126.16 206.398C126.16 206.571 126.018 206.711 125.842 206.711H114.016C113.841 206.711 113.698 206.571 113.698 206.398Z" fill="#E8EDF7"/>
<path d="M109.735 187.122C109.735 186.949 109.878 186.809 110.053 186.809H124.365C124.544 186.809 124.686 186.949 124.686 187.122C124.686 187.295 124.544 187.438 124.365 187.438H110.053C109.878 187.438 109.735 187.298 109.735 187.122Z" fill="#E4F0FD"/>
<path d="M106.449 199.975C106.449 199.802 106.591 199.662 106.767 199.662H123.577C123.752 199.662 123.895 199.802 123.895 199.975C123.895 200.147 123.752 200.288 123.577 200.288H106.765C106.59 200.288 106.448 200.147 106.448 199.975H106.449Z" fill="#FFC837"/>
<path d="M101.741 193.55C101.741 193.377 101.884 193.237 102.059 193.237H126.445C126.62 193.237 126.762 193.377 126.762 193.55C126.762 193.723 126.62 193.863 126.445 193.863H102.059C101.884 193.863 101.741 193.723 101.741 193.55Z" fill="#E4F0FD"/>
<path d="M127.616 189.579H118.621C118.446 189.579 118.303 189.439 118.303 189.266C118.303 189.093 118.446 188.953 118.621 188.953H127.616C127.792 188.953 127.934 189.093 127.934 189.266C127.934 189.439 127.792 189.579 127.616 189.579Z" fill="#FFC837"/>
<path d="M121.082 191.093C121.257 191.093 121.4 191.233 121.4 191.406C121.4 191.579 121.257 191.719 121.082 191.719H116.053C115.878 191.719 115.736 191.579 115.736 191.406C115.736 191.233 115.878 191.093 116.053 191.093H121.082Z" fill="#E4F0FD"/>
<path d="M143.954 193.55C143.954 193.723 143.812 193.863 143.637 193.863H130.215C130.04 193.863 129.897 193.723 129.897 193.55C129.897 193.377 130.04 193.237 130.215 193.237H143.637C143.812 193.237 143.954 193.377 143.954 193.55Z" fill="#E4F0FD"/>
<path d="M143.954 202.114C143.954 202.287 143.812 202.427 143.637 202.427H136.895C136.72 202.427 136.577 202.287 136.577 202.114C136.577 201.941 136.72 201.801 136.895 201.801H143.637C143.812 201.801 143.954 201.941 143.954 202.114Z" fill="#E8EDF7"/>
<path d="M122.209 201.802H128.747C128.922 201.802 129.065 201.942 129.065 202.115C129.065 202.287 128.922 202.428 128.747 202.428H122.209C122.034 202.428 121.892 202.287 121.892 202.115C121.892 201.942 122.034 201.802 122.209 201.802Z" fill="#E8EDF7"/>
<path d="M109.711 208.227H130.297C130.472 208.227 130.615 208.367 130.615 208.54V208.544C130.615 208.717 130.472 208.857 130.297 208.857H109.711C109.536 208.857 109.394 208.717 109.394 208.544V208.54C109.394 208.367 109.536 208.227 109.711 208.227Z" fill="#E8EDF7"/>
<path d="M128.401 206.086H136.83C137.005 206.086 137.148 206.226 137.148 206.399C137.148 206.572 137.005 206.712 136.83 206.712H128.401C128.226 206.712 128.083 206.572 128.083 206.399C128.083 206.226 128.226 206.086 128.401 206.086Z" fill="#DAE3F7"/>
<path d="M132.051 204.259C132.051 204.432 131.908 204.572 131.733 204.572H118.999C118.824 204.572 118.682 204.432 118.682 204.259C118.682 204.086 118.824 203.946 118.999 203.946H131.733C131.908 203.946 132.051 204.086 132.051 204.259Z" fill="#FFC837"/>
<g opacity="0.6">
<path d="M137.395 197.518H130.289C130.114 197.518 129.971 197.658 129.971 197.831V197.834C129.971 198.007 130.114 198.147 130.289 198.147H137.395C137.57 198.147 137.713 198.007 137.713 197.834V197.831C137.713 197.658 137.57 197.518 137.395 197.518Z" fill="#3D54A5"/>
</g>
<g opacity="0.6">
<path d="M143.954 204.259C143.954 204.432 143.812 204.572 143.637 204.572H139.011C138.836 204.572 138.693 204.432 138.693 204.259C138.693 204.086 138.836 203.946 139.011 203.946H143.637C143.812 203.946 143.954 204.086 143.954 204.259Z" fill="#3D54A5"/>
</g>
<path d="M143.954 195.69C143.954 195.863 143.812 196.003 143.637 196.003H134.556C134.381 196.003 134.238 195.863 134.238 195.69C134.238 195.518 134.381 195.377 134.556 195.377H143.637C143.812 195.377 143.954 195.518 143.954 195.69Z" fill="#E4F0FD"/>
<path d="M132.579 195.69C132.579 195.863 132.437 196.003 132.261 196.003H123.832C123.657 196.003 123.514 195.863 123.514 195.69C123.514 195.518 123.657 195.377 123.832 195.377H132.261C132.437 195.377 132.579 195.518 132.579 195.69Z" fill="#FFC837"/>
<path d="M126.122 187.122C126.122 186.949 126.265 186.809 126.44 186.809H135.162C135.341 186.809 135.483 186.949 135.483 187.122C135.483 187.295 135.341 187.438 135.162 187.438H126.44C126.265 187.438 126.122 187.298 126.122 187.122Z" fill="#E4F0FD"/>
<path d="M137.018 187.122C137.018 186.949 137.16 186.809 137.339 186.809H143.633C143.812 186.809 143.954 186.949 143.954 187.122C143.954 187.295 143.812 187.438 143.633 187.438H137.339C137.16 187.438 137.018 187.298 137.018 187.122Z" fill="#FFC837"/>
<path d="M137.811 189.579H129.381C129.206 189.579 129.064 189.439 129.064 189.266C129.064 189.093 129.206 188.953 129.381 188.953H137.811C137.986 188.953 138.128 189.093 138.128 189.266C138.128 189.439 137.986 189.579 137.811 189.579Z" fill="#E4F0FD"/>
<path d="M143.954 206.398C143.954 206.571 143.812 206.711 143.637 206.711H139.088C138.913 206.711 138.771 206.571 138.771 206.398C138.771 206.225 138.913 206.085 139.088 206.085H143.637C143.812 206.085 143.954 206.225 143.954 206.398Z" fill="#E8EDF7"/>
<path d="M143.954 189.266C143.954 189.439 143.812 189.579 143.637 189.579H140.105C139.93 189.579 139.787 189.439 139.787 189.266C139.787 189.093 139.93 188.953 140.105 188.953H143.637C143.812 188.953 143.954 189.093 143.954 189.266Z" fill="#E4F0FD"/>
<path d="M122.535 191.406C122.535 191.233 122.678 191.093 122.853 191.093H131.429C131.604 191.093 131.747 191.233 131.747 191.406C131.747 191.579 131.604 191.719 131.429 191.719H122.853C122.678 191.719 122.535 191.579 122.535 191.406Z" fill="#E4F0FD"/>
<path d="M143.954 199.975C143.954 200.147 143.812 200.288 143.637 200.288H140.369C140.194 200.288 140.052 200.147 140.052 199.975C140.052 199.802 140.194 199.662 140.369 199.662H143.637C143.812 199.662 143.954 199.802 143.954 199.975Z" fill="#E8EDF7"/>
<path d="M127.993 197.518H113.564C113.388 197.518 113.246 197.658 113.246 197.831V197.834C113.246 198.007 113.388 198.147 113.564 198.147H127.993C128.169 198.147 128.311 198.007 128.311 197.834V197.831C128.311 197.658 128.169 197.518 127.993 197.518Z" fill="#E8EDF7"/>
<path d="M137.885 200.286H126.514C126.339 200.286 126.196 200.146 126.196 199.973C126.196 199.801 126.339 199.66 126.514 199.66H137.885C138.06 199.66 138.202 199.801 138.202 199.973C138.202 200.146 138.06 200.286 137.885 200.286Z" fill="#E8EDF7"/>
<path d="M106.693 197.496H112.099C112.275 197.496 112.417 197.637 112.417 197.809V197.814C112.417 197.987 112.275 198.127 112.099 198.127H106.693C106.517 198.127 106.375 197.987 106.375 197.814V197.809C106.375 197.637 106.517 197.496 106.693 197.496Z" fill="#E4F0FD"/>
<path d="M102.059 197.496H103.605C103.781 197.496 103.923 197.637 103.923 197.809V197.814C103.923 197.987 103.781 198.127 103.605 198.127H102.059C101.884 198.127 101.741 197.987 101.741 197.814V197.809C101.741 197.637 101.884 197.496 102.059 197.496Z" fill="#E4F0FD"/>
<path d="M115.892 210.661C115.892 210.834 115.749 210.974 115.574 210.974H102.059C101.884 210.974 101.741 210.834 101.741 210.661C101.741 210.488 101.884 210.348 102.059 210.348H115.574C115.749 210.348 115.892 210.488 115.892 210.661Z" fill="#E4F0FD"/>
<path d="M101.741 206.377C101.741 206.204 101.884 206.064 102.059 206.064H112.213C112.389 206.064 112.531 206.204 112.531 206.377C112.531 206.549 112.389 206.69 112.213 206.69H102.059C101.884 206.69 101.741 206.549 101.741 206.377Z" fill="#E4F0FD"/>
<path d="M104.426 203.925H117.197C117.372 203.925 117.514 204.065 117.514 204.238C117.514 204.41 117.372 204.551 117.197 204.551H104.426C104.251 204.551 104.109 204.41 104.109 204.238C104.109 204.065 104.251 203.925 104.426 203.925Z" fill="#E4F0FD"/>
<path d="M117.136 202.093C117.136 201.92 117.279 201.78 117.454 201.78H120.668C120.843 201.78 120.985 201.92 120.985 202.093C120.985 202.265 120.843 202.406 120.668 202.406H117.454C117.279 202.406 117.136 202.265 117.136 202.093Z" fill="#E4F0FD"/>
<path d="M113.698 206.377C113.698 206.204 113.841 206.064 114.016 206.064H125.842C126.018 206.064 126.16 206.204 126.16 206.377C126.16 206.549 126.018 206.69 125.842 206.69H114.016C113.841 206.69 113.698 206.549 113.698 206.377Z" fill="#E4F0FD"/>
<path d="M143.954 202.093C143.954 202.265 143.812 202.406 143.637 202.406H136.895C136.72 202.406 136.577 202.265 136.577 202.093C136.577 201.92 136.72 201.78 136.895 201.78H143.637C143.812 201.78 143.954 201.92 143.954 202.093Z" fill="#E4F0FD"/>
<path d="M122.209 201.781H128.747C128.922 201.781 129.065 201.921 129.065 202.093C129.065 202.266 128.922 202.406 128.747 202.406H122.209C122.034 202.406 121.892 202.266 121.892 202.093C121.892 201.921 122.034 201.781 122.209 201.781Z" fill="#E4F0FD"/>
<path d="M109.711 208.205H130.297C130.472 208.205 130.615 208.345 130.615 208.518V208.521C130.615 208.694 130.472 208.834 130.297 208.834H109.711C109.536 208.834 109.394 208.694 109.394 208.521V208.517C109.394 208.344 109.536 208.204 109.711 208.204V208.205Z" fill="#E4F0FD"/>
<path d="M128.401 206.065H136.83C137.005 206.065 137.148 206.205 137.148 206.378C137.148 206.55 137.005 206.691 136.83 206.691H128.401C128.226 206.691 128.083 206.55 128.083 206.378C128.083 206.205 128.226 206.065 128.401 206.065Z" fill="#E4F0FD"/>
<path d="M143.954 206.377C143.954 206.549 143.812 206.69 143.637 206.69H139.088C138.913 206.69 138.771 206.549 138.771 206.377C138.771 206.204 138.913 206.064 139.088 206.064H143.637C143.812 206.064 143.954 206.204 143.954 206.377Z" fill="#E4F0FD"/>
<path d="M143.954 199.953C143.954 200.126 143.812 200.266 143.637 200.266H140.369C140.194 200.266 140.052 200.126 140.052 199.953C140.052 199.781 140.194 199.64 140.369 199.64H143.637C143.812 199.64 143.954 199.781 143.954 199.953Z" fill="#E4F0FD"/>
<path d="M127.993 197.496H113.564C113.388 197.496 113.246 197.636 113.246 197.809V197.813C113.246 197.986 113.388 198.126 113.564 198.126H127.993C128.169 198.126 128.311 197.986 128.311 197.813V197.809C128.311 197.636 128.169 197.496 127.993 197.496Z" fill="#E4F0FD"/>
<path d="M137.885 200.265H126.514C126.339 200.265 126.196 200.125 126.196 199.952C126.196 199.779 126.339 199.639 126.514 199.639H137.885C138.06 199.639 138.202 199.779 138.202 199.952C138.202 200.125 138.06 200.265 137.885 200.265Z" fill="#E4F0FD"/>
<g opacity="0.6">
<path d="M132.441 208.226H143.638C143.813 208.226 143.955 208.367 143.955 208.539V208.543C143.955 208.716 143.813 208.856 143.638 208.856H132.441C132.266 208.856 132.124 208.716 132.124 208.543V208.538C132.124 208.366 132.266 208.225 132.441 208.225V208.226Z" fill="#3D54A5"/>
</g>
<g opacity="0.6">
<path d="M143.954 191.406C143.954 191.579 143.812 191.719 143.637 191.719H133.234C133.059 191.719 132.916 191.579 132.916 191.406C132.916 191.233 133.059 191.093 133.234 191.093H143.637C143.812 191.093 143.954 191.233 143.954 191.406Z" fill="#3D54A5"/>
</g>
<path d="M102.009 203.995C102.009 203.822 102.151 203.682 102.327 203.682H102.929C103.104 203.682 103.247 203.822 103.247 203.995C103.247 204.168 103.104 204.308 102.929 204.308H102.327C102.151 204.308 102.009 204.168 102.009 203.995Z" fill="#FFC837"/>
</g>
<g clip-path="url(#clip6_151_3881)">
<path d="M220.705 211.536C230.985 211.536 239.318 203.203 239.318 192.923C239.318 182.643 230.985 174.309 220.705 174.309C210.425 174.309 202.091 182.643 202.091 192.923C202.091 203.203 210.425 211.536 220.705 211.536Z" fill="#3D54A5"/>
<path d="M208.878 187.153V198.692C208.878 200.361 210.241 201.723 211.922 201.723H230.509C232.191 201.723 233.553 200.36 233.553 198.692V187.153C233.553 185.484 232.19 184.123 230.509 184.123H211.923C210.241 184.123 208.879 185.486 208.879 187.153H208.878Z" fill="white"/>
<path d="M221.209 194.873C221.327 194.873 221.444 194.832 221.538 194.75L230.797 186.784C231.007 186.603 231.032 186.283 230.85 186.073C230.667 185.862 230.349 185.837 230.138 186.02L221.209 193.702L212.293 186.033C212.082 185.85 211.763 185.876 211.582 186.086C211.4 186.298 211.425 186.616 211.635 186.798L220.88 194.749C220.975 194.83 221.092 194.872 221.209 194.872V194.873Z" fill="#3D54A5"/>
<path d="M211.964 199.058C212.082 199.058 212.199 199.019 212.295 198.936L219.343 192.861C219.554 192.679 219.578 192.361 219.396 192.149C219.214 191.938 218.895 191.914 218.684 192.096L211.635 198.17C211.425 198.352 211.401 198.671 211.582 198.883C211.682 198.999 211.823 199.057 211.964 199.057V199.058Z" fill="#3D54A5"/>
<path d="M230.468 199.031C230.61 199.031 230.75 198.971 230.85 198.855C231.032 198.643 231.007 198.325 230.797 198.144L223.748 192.082C223.537 191.9 223.217 191.925 223.037 192.136C222.854 192.347 222.88 192.666 223.09 192.847L230.138 198.908C230.234 198.991 230.35 199.031 230.468 199.031Z" fill="#3D54A5"/>
</g>
<defs>
<clipPath id="clip0_151_3881">
<rect width="107.312" height="64.8818" fill="white" transform="translate(47.8125 88.1545)"/>
</clipPath>
<clipPath id="clip1_151_3881">
<rect width="43.5625" height="28.7182" fill="white" transform="translate(46.75 153.036)"/>
</clipPath>
<clipPath id="clip2_151_3881">
<rect width="107.312" height="64.8818" fill="white" transform="matrix(-1 0 0 1 308.125 89.2183)"/>
</clipPath>
<clipPath id="clip3_151_3881">
<rect width="42.5" height="69.1364" fill="white" transform="translate(157.25 88.1545)"/>
</clipPath>
<clipPath id="clip4_151_3881">
<rect width="39.3545" height="67.0091" fill="white" transform="translate(278.673 154.1)"/>
</clipPath>
<clipPath id="clip5_151_3881">
<rect width="47.8636" height="34.0364" fill="white" transform="translate(98.9182 180.691)"/>
</clipPath>
<clipPath id="clip6_151_3881">
<rect width="37.2273" height="37.2273" fill="white" transform="translate(202.091 174.309)"/>
</clipPath>
</defs>
</svg>
