<svg width="362" height="236" viewBox="0 0 362 236" fill="none" xmlns="http://www.w3.org/2000/svg">
<g clip-path="url(#clip0_151_3881)">
<path fill-rule="evenodd" clip-rule="evenodd" d="M60.183 156.65H49.8383C30.1553 156.65 14.0471 173.751 14 194.669V194.855C14.0471 215.774 30.1553 232.875 49.8383 232.875H289.966C321.887 232.875 348 205.102 348 171.162C348 137.219 321.885 109.448 289.966 109.448C276.47 109.448 265.429 97.7054 265.429 83.3531C265.429 69.0007 276.47 57.2599 289.966 57.2599C303.998 57.2599 315.478 45.0521 315.478 30.1315C315.478 15.2095 303.997 3.00171 289.966 3.00171H208.563C194.86 3.39864 192.732 7.7349 190.122 15.9691C187.382 24.6173 173.149 25.3155 173.149 25.3155H143.683C113.924 25.3155 110.895 35.0175 104.78 54.3114C98.6667 73.6069 66.913 75.1632 66.913 75.1632H57.9459C47.2028 75.1632 38.4142 84.5082 38.4142 95.9321C38.4142 107.356 47.2028 116.7 57.9459 116.7H60.1816C70.5121 116.7 78.9652 125.689 78.9652 136.676C78.9652 147.663 70.5106 156.653 60.1816 156.653" fill="#E6EAFB"/>
<path fill-rule="evenodd" clip-rule="evenodd" d="M60.9054 29.7729H159.209C159.223 29.7729 159.235 29.7844 159.235 29.7987V89.9822C159.235 89.9965 159.223 90.0079 159.209 90.0079H60.9054C60.8911 90.0079 60.8797 89.9965 60.8797 89.9822V29.7987C60.8797 29.7844 60.8911 29.7729 60.9054 29.7729Z" fill="#1F3E7A"/>
<path fill-rule="evenodd" clip-rule="evenodd" d="M101.279 85.6702H129.934C130.256 85.6702 130.52 85.4061 130.52 85.0834C130.52 84.7607 130.256 84.4966 129.934 84.4966H101.279C100.957 84.4966 100.693 84.7607 100.693 85.0834C100.693 85.4061 100.957 85.6702 101.279 85.6702Z" fill="#EB6502"/>
<path fill-rule="evenodd" clip-rule="evenodd" d="M133.104 85.6702H140.138C140.461 85.6702 140.725 85.4061 140.725 85.0834C140.725 84.7607 140.461 84.4966 140.138 84.4966H133.104C132.782 84.4966 132.518 84.7607 132.518 85.0834C132.518 85.4061 132.782 85.6702 133.104 85.6702Z" fill="white"/>
<path fill-rule="evenodd" clip-rule="evenodd" d="M98.1756 83.1173H105.21C105.532 83.1173 105.796 82.8531 105.796 82.5304C105.796 82.2077 105.532 81.9436 105.21 81.9436H98.1756C97.853 81.9436 97.5889 82.2077 97.5889 82.5304C97.5889 82.8531 97.853 83.1173 98.1756 83.1173Z" fill="white"/>
<path fill-rule="evenodd" clip-rule="evenodd" d="M101.279 80.5657H111.831C112.154 80.5657 112.418 80.3016 112.418 79.9789C112.418 79.6562 112.154 79.3921 111.831 79.3921H101.279C100.957 79.3921 100.693 79.6562 100.693 79.9789C100.693 80.3016 100.957 80.5657 101.279 80.5657Z" fill="white"/>
<path fill-rule="evenodd" clip-rule="evenodd" d="M101.314 78.0142H109.968C110.291 78.0142 110.555 77.7501 110.555 77.4274C110.555 77.1047 110.291 76.8406 109.968 76.8406H101.314C100.991 76.8406 100.727 77.1047 100.727 77.4274C100.727 77.7501 100.991 78.0142 101.314 78.0142Z" fill="white"/>
<path fill-rule="evenodd" clip-rule="evenodd" d="M101.314 75.4613H127.588C127.911 75.4613 128.175 75.1971 128.175 74.8744C128.175 74.5517 127.911 74.2876 127.588 74.2876H101.314C100.991 74.2876 100.727 74.5517 100.727 74.8744C100.727 75.1971 100.991 75.4613 101.314 75.4613Z" fill="white"/>
<path fill-rule="evenodd" clip-rule="evenodd" d="M115.106 80.5657H122.003C122.326 80.5657 122.59 80.3016 122.59 79.9789C122.59 79.6562 122.326 79.3921 122.003 79.3921H115.106C114.783 79.3921 114.519 79.6562 114.519 79.9789C114.519 80.3016 114.783 80.5657 115.106 80.5657Z" fill="white"/>
<path fill-rule="evenodd" clip-rule="evenodd" d="M112.502 78.0142H133.002C133.324 78.0142 133.588 77.7501 133.588 77.4274C133.588 77.1047 133.324 76.8406 133.002 76.8406H112.502C112.179 76.8406 111.915 77.1047 111.915 77.4274C111.915 77.7501 112.179 78.0142 112.502 78.0142Z" fill="#EB6502"/>
<path fill-rule="evenodd" clip-rule="evenodd" d="M136.088 78.0142H141.588C141.91 78.0142 142.174 77.7501 142.174 77.4274C142.174 77.1047 141.91 76.8406 141.588 76.8406H136.088C135.766 76.8406 135.502 77.1047 135.502 77.4274C135.502 77.7501 135.766 78.0142 136.088 78.0142Z" fill="#6CD6FF"/>
<path fill-rule="evenodd" clip-rule="evenodd" d="M144.467 78.0142H149.966C150.289 78.0142 150.553 77.7501 150.553 77.4274C150.553 77.1047 150.289 76.8406 149.966 76.8406H144.467C144.144 76.8406 143.88 77.1047 143.88 77.4274C143.88 77.7501 144.144 78.0142 144.467 78.0142Z" fill="#FFCA05"/>
<path fill-rule="evenodd" clip-rule="evenodd" d="M98.1756 72.8927H105.21C105.532 72.8927 105.796 72.6285 105.796 72.3058C105.796 71.9831 105.532 71.719 105.21 71.719H98.1756C97.853 71.719 97.5889 71.9831 97.5889 72.3058C97.5889 72.6285 97.853 72.8927 98.1756 72.8927Z" fill="white"/>
<path fill-rule="evenodd" clip-rule="evenodd" d="M101.279 50.4632H111.831C112.154 50.4632 112.418 50.1991 112.418 49.8764C112.418 49.5537 112.154 49.2896 111.831 49.2896H101.279C100.957 49.2896 100.693 49.5537 100.693 49.8764C100.693 50.1991 100.957 50.4632 101.279 50.4632Z" fill="white"/>
<path fill-rule="evenodd" clip-rule="evenodd" d="M101.314 47.9117H109.968C110.291 47.9117 110.555 47.6476 110.555 47.3249C110.555 47.0022 110.291 46.738 109.968 46.738H101.314C100.991 46.738 100.727 47.0022 100.727 47.3249C100.727 47.6476 100.991 47.9117 101.314 47.9117Z" fill="white"/>
<path fill-rule="evenodd" clip-rule="evenodd" d="M101.314 45.3587H127.588C127.911 45.3587 128.175 45.0946 128.175 44.7719C128.175 44.4492 127.911 44.1851 127.588 44.1851H101.314C100.991 44.1851 100.727 44.4492 100.727 44.7719C100.727 45.0946 100.991 45.3587 101.314 45.3587Z" fill="#6CD6FF"/>
<path fill-rule="evenodd" clip-rule="evenodd" d="M115.106 50.4632H122.003C122.326 50.4632 122.59 50.1991 122.59 49.8764C122.59 49.5537 122.326 49.2896 122.003 49.2896H115.106C114.783 49.2896 114.519 49.5537 114.519 49.8764C114.519 50.1991 114.783 50.4632 115.106 50.4632Z" fill="white"/>
<path fill-rule="evenodd" clip-rule="evenodd" d="M112.502 47.9117H133.002C133.324 47.9117 133.588 47.6476 133.588 47.3249C133.588 47.0022 133.324 46.738 133.002 46.738H112.502C112.179 46.738 111.915 47.0022 111.915 47.3249C111.915 47.6476 112.179 47.9117 112.502 47.9117Z" fill="#C5579F"/>
<path fill-rule="evenodd" clip-rule="evenodd" d="M101.451 69.483H108.485C108.807 69.483 109.071 69.2188 109.071 68.8962C109.071 68.5735 108.807 68.3093 108.485 68.3093H101.451C101.128 68.3093 100.864 68.5735 100.864 68.8962C100.864 69.2188 101.128 69.483 101.451 69.483Z" fill="white"/>
<path fill-rule="evenodd" clip-rule="evenodd" d="M101.279 66.9315H111.831C112.154 66.9315 112.418 66.6673 112.418 66.3446C112.418 66.022 112.154 65.7578 111.831 65.7578H101.279C100.957 65.7578 100.693 66.022 100.693 66.3446C100.693 66.6673 100.957 66.9315 101.279 66.9315Z" fill="white"/>
<path fill-rule="evenodd" clip-rule="evenodd" d="M101.314 64.3787H109.968C110.291 64.3787 110.555 64.1146 110.555 63.7919C110.555 63.4692 110.291 63.2051 109.968 63.2051H101.314C100.991 63.2051 100.727 63.4692 100.727 63.7919C100.727 64.1146 100.991 64.3787 101.314 64.3787Z" fill="white"/>
<path fill-rule="evenodd" clip-rule="evenodd" d="M101.314 61.8272H112.668C112.99 61.8272 113.254 61.5631 113.254 61.2404C113.254 60.9177 112.99 60.6536 112.668 60.6536H101.314C100.991 60.6536 100.727 60.9177 100.727 61.2404C100.727 61.5631 100.991 61.8272 101.314 61.8272Z" fill="#FFCA05"/>
<path fill-rule="evenodd" clip-rule="evenodd" d="M115.106 66.9315H122.003C122.326 66.9315 122.59 66.6673 122.59 66.3446C122.59 66.022 122.326 65.7578 122.003 65.7578H115.106C114.783 65.7578 114.519 66.022 114.519 66.3446C114.519 66.6673 114.783 66.9315 115.106 66.9315Z" fill="white"/>
<path fill-rule="evenodd" clip-rule="evenodd" d="M112.502 64.3787H133.002C133.324 64.3787 133.588 64.1146 133.588 63.7919C133.588 63.4692 133.324 63.2051 133.002 63.2051H112.502C112.179 63.2051 111.915 63.4692 111.915 63.7919C111.915 64.1146 112.179 64.3787 112.502 64.3787Z" fill="#F48120"/>
<path fill-rule="evenodd" clip-rule="evenodd" d="M136.088 64.3787H141.588C141.91 64.3787 142.174 64.1146 142.174 63.7919C142.174 63.4692 141.91 63.2051 141.588 63.2051H136.088C135.766 63.2051 135.502 63.4692 135.502 63.7919C135.502 64.1146 135.766 64.3787 136.088 64.3787Z" fill="white"/>
<path fill-rule="evenodd" clip-rule="evenodd" d="M144.467 64.3787H149.966C150.289 64.3787 150.553 64.1146 150.553 63.7919C150.553 63.4692 150.289 63.2051 149.966 63.2051H144.467C144.144 63.2051 143.88 63.4692 143.88 63.7919C143.88 64.1146 144.144 64.3787 144.467 64.3787Z" fill="white"/>
<path fill-rule="evenodd" clip-rule="evenodd" d="M109.675 42.7188H130.175C130.498 42.7188 130.762 42.4547 130.762 42.132C130.762 41.8093 130.498 41.5452 130.175 41.5452H109.675C109.353 41.5452 109.089 41.8093 109.089 42.132C109.089 42.4547 109.353 42.7188 109.675 42.7188Z" fill="white"/>
<path fill-rule="evenodd" clip-rule="evenodd" d="M109.675 40.3043H118.64C118.962 40.3043 119.226 40.0401 119.226 39.7174C119.226 39.3948 118.962 39.1306 118.64 39.1306H109.675C109.353 39.1306 109.089 39.3948 109.089 39.7174C109.089 40.0401 109.353 40.3043 109.675 40.3043Z" fill="#C5579F"/>
<path fill-rule="evenodd" clip-rule="evenodd" d="M139.44 40.3043H151.293C151.615 40.3043 151.88 40.0401 151.88 39.7174C151.88 39.3948 151.615 39.1306 151.293 39.1306H139.44C139.118 39.1306 138.854 39.3948 138.854 39.7174C138.854 40.0401 139.118 40.3043 139.44 40.3043Z" fill="white"/>
<path fill-rule="evenodd" clip-rule="evenodd" d="M109.675 59.2813H130.175C130.498 59.2813 130.762 59.0172 130.762 58.6945C130.762 58.3718 130.498 58.1077 130.175 58.1077H109.675C109.353 58.1077 109.089 58.3718 109.089 58.6945C109.089 59.0172 109.353 59.2813 109.675 59.2813Z" fill="white"/>
<path fill-rule="evenodd" clip-rule="evenodd" d="M133.26 59.2813H138.759C139.082 59.2813 139.346 59.0172 139.346 58.6945C139.346 58.3718 139.082 58.1077 138.759 58.1077H133.26C132.937 58.1077 132.673 58.3718 132.673 58.6945C132.673 59.0172 132.937 59.2813 133.26 59.2813Z" fill="white"/>
<path fill-rule="evenodd" clip-rule="evenodd" d="M141.639 59.2813H147.138C147.461 59.2813 147.725 59.0172 147.725 58.6945C147.725 58.3718 147.461 58.1077 147.138 58.1077H141.639C141.316 58.1077 141.052 58.3718 141.052 58.6945C141.052 59.0172 141.316 59.2813 141.639 59.2813Z" fill="white"/>
<path fill-rule="evenodd" clip-rule="evenodd" d="M109.675 56.5743H118.64C118.962 56.5743 119.226 56.3101 119.226 55.9875C119.226 55.6648 118.962 55.4006 118.64 55.4006H109.675C109.353 55.4006 109.089 55.6648 109.089 55.9875C109.089 56.3101 109.353 56.5743 109.675 56.5743Z" fill="white"/>
<path fill-rule="evenodd" clip-rule="evenodd" d="M121.778 56.5743H135.846C136.168 56.5743 136.432 56.3101 136.432 55.9875C136.432 55.6648 136.168 55.4006 135.846 55.4006H121.778C121.455 55.4006 121.191 55.6648 121.191 55.9875C121.191 56.3101 121.455 56.5743 121.778 56.5743Z" fill="white"/>
<path fill-rule="evenodd" clip-rule="evenodd" d="M139.44 56.5743H151.293C151.615 56.5743 151.88 56.3101 151.88 55.9875C151.88 55.6648 151.615 55.4006 151.293 55.4006H139.44C139.118 55.4006 138.854 55.6648 138.854 55.9875C138.854 56.3101 139.118 56.5743 139.44 56.5743Z" fill="white"/>
<path d="M82.61 33.9463H65.187V87.9189H82.61V33.9463Z" fill="#031542"/>
<path fill-rule="evenodd" clip-rule="evenodd" d="M115.113 61.8272H121.225C121.548 61.8272 121.812 61.5631 121.812 61.2404C121.812 60.9177 121.548 60.6536 121.225 60.6536H115.113C114.791 60.6536 114.526 60.9177 114.526 61.2404C114.526 61.5631 114.791 61.8272 115.113 61.8272Z" fill="#F48120"/>
<path fill-rule="evenodd" clip-rule="evenodd" d="M123.362 61.8272H129.474C129.797 61.8272 130.061 61.5631 130.061 61.2404C130.061 60.9177 129.797 60.6536 129.474 60.6536H123.362C123.04 60.6536 122.775 60.9177 122.775 61.2404C122.775 61.5631 123.04 61.8272 123.362 61.8272Z" fill="#F48120"/>
<path fill-rule="evenodd" clip-rule="evenodd" d="M98.1756 53.6673H107.233C107.555 53.6673 107.819 53.4032 107.819 53.0805C107.819 52.7578 107.555 52.4937 107.233 52.4937H98.1756C97.853 52.4937 97.5889 52.7578 97.5889 53.0805C97.5889 53.4032 97.853 53.6673 98.1756 53.6673Z" fill="white"/>
<path fill-rule="evenodd" clip-rule="evenodd" d="M109.678 53.6673H115.79C116.113 53.6673 116.377 53.4032 116.377 53.0805C116.377 52.7578 116.113 52.4937 115.79 52.4937H109.678C109.356 52.4937 109.091 52.7578 109.091 53.0805C109.091 53.4032 109.356 53.6673 109.678 53.6673Z" fill="white"/>
<path fill-rule="evenodd" clip-rule="evenodd" d="M118.544 53.6673H124.656C124.978 53.6673 125.242 53.4032 125.242 53.0805C125.242 52.7578 124.978 52.4937 124.656 52.4937H118.544C118.221 52.4937 117.957 52.7578 117.957 53.0805C117.957 53.4032 118.221 53.6673 118.544 53.6673Z" fill="white"/>
<path fill-rule="evenodd" clip-rule="evenodd" d="M70.3065 71.9931H74.1883C74.4995 71.9931 74.7536 71.739 74.7536 71.4277C74.7536 71.1165 74.4995 70.8623 74.1883 70.8623H70.3065C69.9953 70.8623 69.7411 71.1165 69.7411 71.4277C69.7411 71.739 69.9953 71.9931 70.3065 71.9931Z" fill="#E8F6FD"/>
<path fill-rule="evenodd" clip-rule="evenodd" d="M67.9623 69.1904H78.2257C78.5369 69.1904 78.791 68.9362 78.791 68.625C78.791 68.3137 78.5369 68.0596 78.2257 68.0596H67.9623C67.6511 68.0596 67.397 68.3137 67.397 68.625C67.397 68.9362 67.6511 69.1904 67.9623 69.1904Z" fill="#E8F6FD"/>
<path fill-rule="evenodd" clip-rule="evenodd" d="M67.9623 66.2234H75.783C76.0942 66.2234 76.3483 65.9692 76.3483 65.6579C76.3483 65.3467 76.0942 65.0925 75.783 65.0925H67.9623C67.6511 65.0925 67.397 65.3467 67.397 65.6579C67.397 65.9692 67.6511 66.2234 67.9623 66.2234Z" fill="#E8F6FD"/>
<path fill-rule="evenodd" clip-rule="evenodd" d="M70.3065 63.2563H78.1129C78.4241 63.2563 78.6782 63.0022 78.6782 62.6909C78.6782 62.3796 78.4241 62.1255 78.1129 62.1255H70.3065C69.9953 62.1255 69.7411 62.3796 69.7411 62.6909C69.7411 63.0022 69.9953 63.2563 70.3065 63.2563Z" fill="#E8F6FD"/>
<path fill-rule="evenodd" clip-rule="evenodd" d="M70.3065 60.2895H72.792C73.1033 60.2895 73.3574 60.0354 73.3574 59.7241C73.3574 59.4128 73.1033 59.1587 72.792 59.1587H70.3065C69.9953 59.1587 69.7411 59.4128 69.7411 59.7241C69.7411 60.0354 69.9953 60.2895 70.3065 60.2895Z" fill="#E8F6FD"/>
<path fill-rule="evenodd" clip-rule="evenodd" d="M67.9623 57.3225H75.3847C75.6959 57.3225 75.95 57.0683 75.95 56.7571C75.95 56.4458 75.6959 56.1917 75.3847 56.1917H67.9623C67.6511 56.1917 67.397 56.4458 67.397 56.7571C67.397 57.0683 67.6511 57.3225 67.9623 57.3225Z" fill="#E8F6FD"/>
<path fill-rule="evenodd" clip-rule="evenodd" d="M70.2622 54.3554H72.2938C72.605 54.3554 72.8591 54.1013 72.8591 53.79C72.8591 53.4788 72.605 53.2246 72.2938 53.2246H70.2622C69.951 53.2246 69.6969 53.4788 69.6969 53.79C69.6969 54.1013 69.951 54.3554 70.2622 54.3554Z" fill="#E8F6FD"/>
<path fill-rule="evenodd" clip-rule="evenodd" d="M69.991 51.3884H78.2243C78.5355 51.3884 78.7896 51.1342 78.7896 50.823C78.7896 50.5117 78.5355 50.2576 78.2243 50.2576H69.991C69.6798 50.2576 69.4257 50.5117 69.4257 50.823C69.4257 51.1342 69.6798 51.3884 69.991 51.3884Z" fill="#E8F6FD"/>
<path fill-rule="evenodd" clip-rule="evenodd" d="M67.9623 48.4213H74.5124C74.8236 48.4213 75.0777 48.1672 75.0777 47.8559C75.0777 47.5447 74.8236 47.2905 74.5124 47.2905H67.9623C67.6511 47.2905 67.397 47.5447 67.397 47.8559C67.397 48.1672 67.6511 48.4213 67.9623 48.4213Z" fill="#E8F6FD"/>
<path fill-rule="evenodd" clip-rule="evenodd" d="M69.991 45.4558H78.2243C78.5355 45.4558 78.7896 45.2016 78.7896 44.8904C78.7896 44.5791 78.5355 44.325 78.2243 44.325H69.991C69.6798 44.325 69.4257 44.5791 69.4257 44.8904C69.4257 45.2016 69.6798 45.4558 69.991 45.4558Z" fill="#E8F6FD"/>
<path fill-rule="evenodd" clip-rule="evenodd" d="M69.991 42.489H75.0106C75.3219 42.489 75.576 42.2348 75.576 41.9236C75.576 41.6123 75.3219 41.3582 75.0106 41.3582H69.991C69.6798 41.3582 69.4257 41.6123 69.4257 41.9236C69.4257 42.2348 69.6798 42.489 69.991 42.489Z" fill="#E8F6FD"/>
<path fill-rule="evenodd" clip-rule="evenodd" d="M67.9623 39.5219H71.5714C71.8826 39.5219 72.1368 39.2678 72.1368 38.9565C72.1368 38.6453 71.8826 38.3911 71.5714 38.3911H67.9623C67.6511 38.3911 67.397 38.6453 67.397 38.9565C67.397 39.2678 67.6511 39.5219 67.9623 39.5219Z" fill="#E8F6FD"/>
<path fill-rule="evenodd" clip-rule="evenodd" d="M70.3065 74.6147H74.1883C74.4995 74.6147 74.7536 74.3606 74.7536 74.0493C74.7536 73.738 74.4995 73.4839 74.1883 73.4839H70.3065C69.9953 73.4839 69.7411 73.738 69.7411 74.0493C69.7411 74.3606 69.9953 74.6147 70.3065 74.6147Z" fill="#E8F6FD"/>
<path fill-rule="evenodd" clip-rule="evenodd" d="M67.9623 77.236H77.8802C78.1914 77.236 78.4456 76.9819 78.4456 76.6706C78.4456 76.3594 78.1914 76.1052 77.8802 76.1052H67.9623C67.6511 76.1052 67.397 76.3594 67.397 76.6706C67.397 76.9819 67.6511 77.236 67.9623 77.236Z" fill="#E8F6FD"/>
<path fill-rule="evenodd" clip-rule="evenodd" d="M70.3065 79.8576H74.1883C74.4995 79.8576 74.7536 79.6035 74.7536 79.2922C74.7536 78.981 74.4995 78.7268 74.1883 78.7268H70.3065C69.9953 78.7268 69.7411 78.981 69.7411 79.2922C69.7411 79.6035 69.9953 79.8576 70.3065 79.8576Z" fill="#E8F6FD"/>
<path fill-rule="evenodd" clip-rule="evenodd" d="M101.314 42.7188H107.071C107.394 42.7188 107.658 42.4547 107.658 42.132C107.658 41.8093 107.394 41.5452 107.071 41.5452H101.314C100.991 41.5452 100.727 41.8093 100.727 42.132C100.727 42.4547 100.991 42.7188 101.314 42.7188Z" fill="white"/>
<path fill-rule="evenodd" clip-rule="evenodd" d="M95.4616 40.3043H106.897C107.22 40.3043 107.484 40.0401 107.484 39.7174C107.484 39.3948 107.22 39.1306 106.897 39.1306H95.4616C95.139 39.1306 94.8749 39.3948 94.8749 39.7174C94.8749 40.0401 95.139 40.3043 95.4616 40.3043Z" fill="white"/>
<path fill-rule="evenodd" clip-rule="evenodd" d="M95.4616 37.3175H110.522C110.845 37.3175 111.109 37.0533 111.109 36.7306C111.109 36.4079 110.845 36.1438 110.522 36.1438H95.4616C95.139 36.1438 94.8749 36.4079 94.8749 36.7306C94.8749 37.0533 95.139 37.3175 95.4616 37.3175Z" fill="white"/>
<path fill-rule="evenodd" clip-rule="evenodd" d="M89.2414 37.3175H89.7925C90.1152 37.3175 90.3793 37.0533 90.3793 36.7306C90.3793 36.4079 90.1152 36.1438 89.7925 36.1438H89.2414C88.9188 36.1438 88.6547 36.4079 88.6547 36.7306C88.6547 37.0533 88.9188 37.3175 89.2414 37.3175Z" fill="#B1CBEF"/>
<path fill-rule="evenodd" clip-rule="evenodd" d="M89.2414 40.3043H89.7925C90.1152 40.3043 90.3793 40.0401 90.3793 39.7174C90.3793 39.3948 90.1152 39.1306 89.7925 39.1306H89.2414C88.9188 39.1306 88.6547 39.3948 88.6547 39.7174C88.6547 40.0401 88.9188 40.3043 89.2414 40.3043Z" fill="#B1CBEF"/>
<path fill-rule="evenodd" clip-rule="evenodd" d="M89.1358 50.4632H89.614C89.9367 50.4632 90.2008 50.1991 90.2008 49.8764C90.2008 49.5537 89.9367 49.2896 89.614 49.2896H89.1358C88.8131 49.2896 88.549 49.5537 88.549 49.8764C88.549 50.1991 88.8131 50.4632 89.1358 50.4632Z" fill="#B1CBEF"/>
<path fill-rule="evenodd" clip-rule="evenodd" d="M89.17 47.9117H89.614C89.9367 47.9117 90.2008 47.6476 90.2008 47.3249C90.2008 47.0022 89.9367 46.738 89.614 46.738H89.17C88.8474 46.738 88.5833 47.0022 88.5833 47.3249C88.5833 47.6476 88.8474 47.9117 89.17 47.9117Z" fill="#B1CBEF"/>
<path fill-rule="evenodd" clip-rule="evenodd" d="M89.17 45.3587H89.614C89.9367 45.3587 90.2008 45.0946 90.2008 44.7719C90.2008 44.4492 89.9367 44.1851 89.614 44.1851H89.17C88.8474 44.1851 88.5833 44.4492 88.5833 44.7719C88.5833 45.0946 88.8474 45.3587 89.17 45.3587Z" fill="#B1CBEF"/>
<path fill-rule="evenodd" clip-rule="evenodd" d="M89.17 42.7188H89.614C89.9367 42.7188 90.2008 42.4547 90.2008 42.132C90.2008 41.8093 89.9367 41.5452 89.614 41.5452H89.17C88.8474 41.5452 88.5833 41.8093 88.5833 42.132C88.5833 42.4547 88.8474 42.7188 89.17 42.7188Z" fill="#B1CBEF"/>
<path fill-rule="evenodd" clip-rule="evenodd" d="M89.2043 59.2813H89.614C89.9366 59.2813 90.2008 59.0172 90.2008 58.6945C90.2008 58.3718 89.9366 58.1077 89.614 58.1077H89.2043C88.8816 58.1077 88.6175 58.3718 88.6175 58.6945C88.6175 59.0172 88.8816 59.2813 89.2043 59.2813Z" fill="#B1CBEF"/>
<path fill-rule="evenodd" clip-rule="evenodd" d="M89.2043 56.5743H89.614C89.9366 56.5743 90.2008 56.3101 90.2008 55.9875C90.2008 55.6648 89.9366 55.4006 89.614 55.4006H89.2043C88.8816 55.4006 88.6175 55.6648 88.6175 55.9875C88.6175 56.3101 88.8816 56.5743 89.2043 56.5743Z" fill="#B1CBEF"/>
<path fill-rule="evenodd" clip-rule="evenodd" d="M89.2071 53.6673H89.614C89.9367 53.6673 90.2008 53.4032 90.2008 53.0805C90.2008 52.7578 89.9367 52.4937 89.614 52.4937H89.2071C88.8845 52.4937 88.6204 52.7578 88.6204 53.0805C88.6204 53.4032 88.8845 53.6673 89.2071 53.6673Z" fill="#B1CBEF"/>
<path fill-rule="evenodd" clip-rule="evenodd" d="M89.3813 69.483H89.614C89.9367 69.483 90.2008 69.2188 90.2008 68.8962C90.2008 68.5735 89.9367 68.3093 89.614 68.3093H89.3813C89.0587 68.3093 88.7946 68.5735 88.7946 68.8962C88.7946 69.2188 89.0587 69.483 89.3813 69.483Z" fill="#B1CBEF"/>
<path fill-rule="evenodd" clip-rule="evenodd" d="M89.2043 66.9315H89.614C89.9366 66.9315 90.2008 66.6673 90.2008 66.3446C90.2008 66.022 89.9366 65.7578 89.614 65.7578H89.2043C88.8816 65.7578 88.6175 66.022 88.6175 66.3446C88.6175 66.6673 88.8816 66.9315 89.2043 66.9315Z" fill="#B1CBEF"/>
<path fill-rule="evenodd" clip-rule="evenodd" d="M89.24 64.3787H89.614C89.9367 64.3787 90.2008 64.1146 90.2008 63.7919C90.2008 63.4692 89.9367 63.2051 89.614 63.2051H89.24C88.9173 63.2051 88.6532 63.4692 88.6532 63.7919C88.6532 64.1146 88.9173 64.3787 89.24 64.3787Z" fill="#B1CBEF"/>
<path fill-rule="evenodd" clip-rule="evenodd" d="M89.24 61.8272H89.6154C89.9381 61.8272 90.2022 61.5631 90.2022 61.2404C90.2022 60.9177 89.9381 60.6536 89.6154 60.6536H89.24C88.9173 60.6536 88.6532 60.9177 88.6532 61.2404C88.6532 61.5631 88.9173 61.8272 89.24 61.8272Z" fill="#B1CBEF"/>
<path fill-rule="evenodd" clip-rule="evenodd" d="M89.4427 83.1173H89.614C89.9367 83.1173 90.2008 82.8531 90.2008 82.5304C90.2008 82.2077 89.9367 81.9436 89.614 81.9436H89.4427C89.1201 81.9436 88.856 82.2077 88.856 82.5304C88.856 82.8531 89.1201 83.1173 89.4427 83.1173Z" fill="#B1CBEF"/>
<path fill-rule="evenodd" clip-rule="evenodd" d="M89.4427 80.5657H89.614C89.9367 80.5657 90.2008 80.3016 90.2008 79.9789C90.2008 79.6562 89.9367 79.3921 89.614 79.3921H89.4427C89.1201 79.3921 88.856 79.6562 88.856 79.9789C88.856 80.3016 89.1201 80.5657 89.4427 80.5657Z" fill="#B1CBEF"/>
<path fill-rule="evenodd" clip-rule="evenodd" d="M89.4213 78.0142H89.614C89.9367 78.0142 90.2008 77.7501 90.2008 77.4274C90.2008 77.1047 89.9367 76.8406 89.614 76.8406H89.4213C89.0986 76.8406 88.8345 77.1047 88.8345 77.4274C88.8345 77.7501 89.0986 78.0142 89.4213 78.0142Z" fill="#B1CBEF"/>
<path fill-rule="evenodd" clip-rule="evenodd" d="M89.3813 75.4613H89.614C89.9367 75.4613 90.2008 75.1971 90.2008 74.8744C90.2008 74.5517 89.9367 74.2876 89.614 74.2876H89.3813C89.0587 74.2876 88.7946 74.5517 88.7946 74.8744C88.7946 75.1971 89.0587 75.4613 89.3813 75.4613Z" fill="#B1CBEF"/>
<path fill-rule="evenodd" clip-rule="evenodd" d="M89.3813 72.8927H89.614C89.9367 72.8927 90.2008 72.6285 90.2008 72.3058C90.2008 71.9831 89.9367 71.719 89.614 71.719H89.3813C89.0587 71.719 88.7946 71.9831 88.7946 72.3058C88.7946 72.6285 89.0587 72.8927 89.3813 72.8927Z" fill="#B1CBEF"/>
<path d="M159.235 26.3918H60.8812V29.7857H159.235V26.3918Z" fill="#90B5FF"/>
<path d="M153.307 27.3513H152.275V28.3836H153.307V27.3513Z" fill="white"/>
<path d="M155.129 27.3513H154.097V28.3836H155.129V27.3513Z" fill="white"/>
<path d="M156.952 27.3513H155.92V28.3836H156.952V27.3513Z" fill="white"/>
<path fill-rule="evenodd" clip-rule="evenodd" d="M179.876 14.2012H269.302C277.5 14.2012 284.207 21.0261 284.207 29.3688V217.705C284.207 226.048 277.5 232.873 269.302 232.873H179.876C171.678 232.873 164.971 226.047 164.971 217.705V29.3688C164.971 21.0261 171.678 14.2012 179.876 14.2012Z" fill="#3D54A5"/>
<path fill-rule="evenodd" clip-rule="evenodd" d="M173.383 14.2012H262.809C271.007 14.2012 277.714 21.0261 277.714 29.3688V217.705C277.714 226.048 271.007 232.873 262.809 232.873H173.383C165.185 232.873 158.48 226.047 158.48 217.705V29.3688C158.48 21.0261 165.187 14.2012 173.383 14.2012Z" fill="#23468F"/>
<path fill-rule="evenodd" clip-rule="evenodd" d="M172.679 21.1088C168.337 21.1088 164.76 24.6884 164.76 29.0289V216.746C164.76 221.088 168.337 224.666 172.679 224.666H263.512C267.853 224.666 271.431 221.088 271.431 216.746V29.0275C271.431 24.6855 267.853 21.1074 263.512 21.1074H244.344C244.344 23.7332 242.195 25.882 239.57 25.882H194.83C192.205 25.882 190.056 23.7332 190.056 21.1074H172.679V21.1088Z" fill="white"/>
<path d="M264.964 176.462H221.964V210.909H264.964V176.462Z" fill="#D3DBF6"/>
<path d="M215.236 176.462H172.236V210.909H215.236V176.462Z" fill="#D3DBF6"/>
<path d="M172.379 176.462L193.737 193.571L215.093 176.462L215.379 176.819L194.102 193.864L215.379 210.909L215.093 211.266L193.737 194.157L172.379 211.266L172.094 210.909L193.37 193.864L172.094 176.819L172.379 176.462Z" fill="white"/>
<path fill-rule="evenodd" clip-rule="evenodd" d="M172.679 21.1089C168.337 21.1089 164.76 24.6884 164.76 29.0289V37.7757H271.431V29.0289C271.431 24.687 267.853 21.1089 263.512 21.1089H244.344C244.344 23.7346 242.195 25.8835 239.57 25.8835H194.83C192.205 25.8835 190.056 23.7346 190.056 21.1089H172.679Z" fill="#E7EFF9"/>
<path d="M215.236 50.5718H172.236V85.0191H215.236V50.5718Z" fill="#3D54A5"/>
<path fill-rule="evenodd" clip-rule="evenodd" d="M188.719 62.1313L200.985 68.2652L188.719 74.3991V62.1313Z" fill="white"/>
<path d="M264.964 50.5718H221.964V85.0191H264.964V50.5718Z" fill="#D3DBF6"/>
<path fill-rule="evenodd" clip-rule="evenodd" d="M237.91 74.0978V63.6205L248.386 57.7394L250.884 56.3044V69.466C251.213 70.7753 249.906 72.5658 247.648 73.6752C245.389 74.786 243.672 74.3934 243.082 73.0755C242.492 71.7576 243.847 69.723 245.512 68.9049C247.177 68.0867 247.516 68.1595 248.386 68.131V60.7092L240.408 65.1883V75.5156C240.659 76.8178 239.389 78.544 237.154 79.642C234.919 80.7414 233.323 80.3959 232.733 79.0794C232.143 77.763 233.351 75.6927 235.019 74.8731C236.686 74.0535 237.037 74.1235 237.91 74.0992" fill="white"/>
<path d="M215.236 92.3694H172.236V126.817H215.236V92.3694Z" fill="#D3DBF6"/>
<path d="M215.236 134.168H172.236V168.616H215.236V134.168Z" fill="#E7EFF9"/>
<path d="M264.964 92.3694H221.964V126.817H264.964V92.3694Z" fill="#D3DBF6"/>
<path d="M264.964 134.168H221.964V168.616H264.964V134.168Z" fill="#D3DBF6"/>
<path fill-rule="evenodd" clip-rule="evenodd" d="M251.685 157.316L251.06 156.684C250.799 156.419 250.743 156.011 250.928 155.69C251.287 155.067 251.561 154.411 251.752 153.734C251.854 153.375 252.185 153.131 252.556 153.134L253.445 153.138C253.906 153.141 254.283 152.771 254.286 152.31L254.296 150.607C254.299 150.146 253.926 149.77 253.465 149.767L252.576 149.762C252.203 149.759 251.876 149.51 251.779 149.152C251.598 148.472 251.331 147.813 250.98 147.186C250.799 146.862 250.86 146.456 251.125 146.195L251.758 145.57C252.086 145.245 252.089 144.717 251.765 144.389L250.569 143.177C250.245 142.848 249.716 142.845 249.388 143.169L248.756 143.795C248.491 144.056 248.083 144.113 247.762 143.928C247.139 143.569 246.483 143.295 245.807 143.104C245.448 143.002 245.204 142.672 245.206 142.3L245.212 141.41C245.215 140.949 244.844 140.572 244.383 140.571L242.679 140.559C242.218 140.556 241.843 140.929 241.84 141.39L241.834 142.28C241.831 142.653 241.583 142.979 241.223 143.075C240.545 143.258 239.884 143.525 239.257 143.875C238.933 144.057 238.528 143.995 238.267 143.731L237.643 143.098C237.319 142.77 236.79 142.767 236.462 143.091L235.25 144.287C234.922 144.611 234.919 145.14 235.243 145.468L235.867 146.101C236.128 146.365 236.185 146.772 235.999 147.094C235.64 147.716 235.367 148.372 235.176 149.048C235.076 149.407 234.745 149.652 234.372 149.65L233.483 149.644C233.021 149.642 232.646 150.014 232.643 150.474L232.632 152.176C232.629 152.637 233.001 153.014 233.463 153.017L234.351 153.021C234.723 153.024 235.05 153.273 235.147 153.632C235.33 154.311 235.595 154.972 235.947 155.597C236.129 155.921 236.068 156.329 235.802 156.589L235.17 157.213C234.842 157.537 234.837 158.066 235.163 158.394L236.359 159.606C236.683 159.933 237.212 159.936 237.541 159.613L238.174 158.988C238.438 158.727 238.845 158.671 239.169 158.857C239.79 159.215 240.447 159.489 241.122 159.681C241.48 159.782 241.724 160.112 241.723 160.484L241.717 161.374C241.714 161.835 242.087 162.212 242.548 162.215L244.251 162.225C244.712 162.228 245.089 161.857 245.092 161.395L245.098 160.506C245.101 160.133 245.348 159.806 245.708 159.709C246.387 159.528 247.047 159.262 247.672 158.91C247.997 158.728 248.401 158.788 248.663 159.054L249.288 159.686C249.612 160.015 250.14 160.018 250.469 159.693L251.679 158.497C252.008 158.173 252.011 157.645 251.687 157.316M246.112 155.183C244.528 156.305 242.343 156.292 240.774 155.15C238.182 153.264 238.207 149.452 240.821 147.598C242.404 146.476 244.588 146.489 246.157 147.631C248.748 149.517 248.726 153.33 246.112 155.183Z" fill="white"/>
<path fill-rule="evenodd" clip-rule="evenodd" d="M192.118 144.257L191.177 141.165H181.797V144.257V161.618H205.776V144.257H192.118Z" fill="#F79646"/>
<path fill-rule="evenodd" clip-rule="evenodd" d="M182.286 145.141H205.311L205.008 161.618H182.565L182.286 145.141Z" fill="white"/>
<path fill-rule="evenodd" clip-rule="evenodd" d="M181.001 146.815H206.471L205.776 161.618H181.797L181.001 146.815Z" fill="#FBB44A"/>
<path fill-rule="evenodd" clip-rule="evenodd" d="M247.593 105.846L256.172 118.951H227.345L238.765 101.506L244.6 110.42L247.593 105.846ZM250.07 97.7708C251.845 97.7708 253.283 99.21 253.283 100.983C253.283 102.757 251.844 104.197 250.07 104.197C248.297 104.197 246.858 102.758 246.858 100.983C246.858 99.2086 248.297 97.7708 250.07 97.7708Z" fill="white"/>
<path d="M172.379 92.1909L193.737 109.3L215.093 92.1909L215.379 92.5479L194.102 109.593L215.379 126.638L215.093 126.995L193.737 109.886L172.379 126.995L172.094 126.638L193.37 109.593L172.094 92.5479L172.379 92.1909Z" fill="white"/>
<path d="M300.521 184.92H240.661V232.874H300.521V184.92Z" fill="#1F2A52"/>
<path fill-rule="evenodd" clip-rule="evenodd" d="M282.035 217.146L281.166 216.265C280.803 215.896 280.723 215.328 280.983 214.881C281.483 214.014 281.864 213.101 282.13 212.158C282.271 211.66 282.731 211.319 283.249 211.323L284.487 211.329C285.129 211.333 285.653 210.818 285.657 210.175L285.672 207.803C285.676 207.161 285.158 206.638 284.515 206.634L283.278 206.626C282.759 206.623 282.304 206.276 282.168 205.776C281.916 204.831 281.544 203.913 281.055 203.04C280.802 202.589 280.888 202.024 281.257 201.66L282.137 200.789C282.594 200.337 282.598 199.602 282.147 199.145L280.481 197.459C280.031 197.002 279.294 196.998 278.838 197.449L277.957 198.319C277.588 198.681 277.022 198.761 276.573 198.503C275.708 198.003 274.793 197.622 273.852 197.356C273.352 197.216 273.013 196.755 273.016 196.237L273.023 194.999C273.027 194.356 272.51 193.832 271.868 193.831L269.496 193.815C268.854 193.811 268.331 194.329 268.327 194.972L268.32 196.21C268.317 196.728 267.97 197.185 267.471 197.318C266.527 197.572 265.608 197.943 264.735 198.431C264.284 198.685 263.719 198.598 263.355 198.231L262.485 197.35C262.034 196.894 261.299 196.889 260.842 197.34L259.156 199.007C258.699 199.458 258.695 200.193 259.146 200.652L260.015 201.531C260.379 201.899 260.458 202.465 260.2 202.916C259.7 203.78 259.319 204.695 259.053 205.636C258.913 206.137 258.452 206.476 257.934 206.474L256.696 206.466C256.054 206.461 255.531 206.98 255.527 207.622L255.511 209.991C255.507 210.633 256.027 211.157 256.668 211.162L257.904 211.167C258.424 211.172 258.879 211.517 259.013 212.018C259.267 212.962 259.637 213.883 260.125 214.753C260.379 215.204 260.294 215.772 259.925 216.135L259.046 217.004C258.589 217.455 258.583 218.192 259.036 218.648L260.701 220.335C261.152 220.791 261.888 220.795 262.345 220.345L263.225 219.474C263.593 219.11 264.16 219.033 264.61 219.292C265.473 219.791 266.388 220.171 267.329 220.438C267.827 220.578 268.169 221.038 268.166 221.558L268.157 222.795C268.154 223.438 268.671 223.962 269.314 223.966L271.685 223.981C272.327 223.985 272.851 223.468 272.854 222.825L272.861 221.588C272.864 221.069 273.21 220.614 273.711 220.478C274.656 220.227 275.575 219.856 276.446 219.366C276.899 219.113 277.463 219.197 277.825 219.567L278.696 220.448C279.146 220.905 279.884 220.911 280.339 220.458L282.025 218.792C282.482 218.341 282.487 217.605 282.035 217.148M274.275 214.18C272.07 215.744 269.028 215.725 266.844 214.133C263.236 211.509 263.27 206.201 266.91 203.62C269.114 202.058 272.155 202.077 274.339 203.667C277.947 206.293 277.915 211.6 274.275 214.18Z" fill="white"/>
<path d="M121 91.5L127 113.892L146.5 188" stroke="#3D54A5" stroke-dasharray="2 2"/>
<circle cx="131" cy="158" r="39" fill="#3D54A5"/>
<g clip-path="url(#clip1_151_3881)">
<path d="M119.158 136.086V144.385H142.848V136.086H119.158ZM125.865 141.527C125.148 141.527 124.56 140.95 124.56 140.233C124.56 139.515 125.142 138.938 125.865 138.938C126.588 138.938 127.17 139.515 127.17 140.233C127.17 140.95 126.588 141.527 125.865 141.527ZM131.003 141.527C130.286 141.527 129.698 140.95 129.698 140.233C129.698 139.515 130.28 138.938 131.003 138.938C131.726 138.938 132.308 139.515 132.308 140.233C132.308 140.95 131.726 141.527 131.003 141.527ZM136.141 141.527C135.423 141.527 134.836 140.95 134.836 140.233C134.836 139.515 135.418 138.938 136.141 138.938C136.864 138.938 137.446 139.515 137.446 140.233C137.446 140.95 136.864 141.527 136.141 141.527Z" fill="white"/>
<path d="M119.158 145.919V154.219H142.848V145.919H119.158ZM125.865 151.361C125.148 151.361 124.56 150.783 124.56 150.066C124.56 149.349 125.142 148.771 125.865 148.771C126.588 148.771 127.17 149.349 127.17 150.066C127.17 150.783 126.588 151.361 125.865 151.361ZM131.003 151.361C130.286 151.361 129.698 150.783 129.698 150.066C129.698 149.349 130.28 148.771 131.003 148.771C131.726 148.771 132.308 149.349 132.308 150.066C132.308 150.783 131.726 151.361 131.003 151.361ZM136.141 151.361C135.423 151.361 134.836 150.783 134.836 150.066C134.836 149.349 135.418 148.771 136.141 148.771C136.864 148.771 137.446 149.349 137.446 150.066C137.446 150.783 136.864 151.361 136.141 151.361Z" fill="white"/>
<path d="M119.158 155.753V164.052H142.848V155.753H119.158ZM125.865 161.194C125.148 161.194 124.56 160.617 124.56 159.9C124.56 159.182 125.142 158.605 125.865 158.605C126.588 158.605 127.17 159.182 127.17 159.9C127.17 160.617 126.588 161.194 125.865 161.194ZM131.003 161.194C130.286 161.194 129.698 160.617 129.698 159.9C129.698 159.182 130.28 158.605 131.003 158.605C131.726 158.605 132.308 159.182 132.308 159.9C132.308 160.617 131.726 161.194 131.003 161.194ZM136.141 161.194C135.423 161.194 134.836 160.617 134.836 159.9C134.836 159.182 135.418 158.605 136.141 158.605C136.864 158.605 137.446 159.182 137.446 159.9C137.446 160.617 136.864 161.194 136.141 161.194Z" fill="white"/>
<path d="M144.452 165.499H117.548V168.479H144.452V165.499Z" fill="white"/>
<path d="M144.323 151.209C144.929 151.209 145.416 151.693 145.416 152.294C145.416 152.895 144.929 153.379 144.323 153.379V155.782H154.281V148.806H144.323V151.209ZM148.644 151.209C149.249 151.209 149.737 151.693 149.737 152.294C149.737 152.895 149.249 153.379 148.644 153.379C148.038 153.379 147.55 152.895 147.55 152.294C147.55 151.693 148.038 151.209 148.644 151.209Z" fill="white"/>
<path d="M144.323 159.474C144.929 159.474 145.416 159.958 145.416 160.559C145.416 161.159 144.929 161.643 144.323 161.643V164.046H154.281V157.071H144.323V159.474ZM148.644 159.474C149.249 159.474 149.737 159.958 149.737 160.559C149.737 161.159 149.249 161.643 148.644 161.643C148.038 161.643 147.55 161.159 147.55 160.559C147.55 159.958 148.038 159.474 148.644 159.474Z" fill="white"/>
<path d="M144.323 140.542V142.945C144.929 142.945 145.416 143.429 145.416 144.03C145.416 144.63 144.929 145.114 144.323 145.114V147.517H154.281V140.542H144.323ZM148.644 145.12C148.038 145.12 147.55 144.636 147.55 144.035C147.55 143.435 148.038 142.951 148.644 142.951C149.249 142.951 149.737 143.435 149.737 144.035C149.737 144.636 149.249 145.12 148.644 145.12Z" fill="white"/>
<path d="M155.886 165.499H141.572V168.479H155.886V165.499Z" fill="white"/>
<path d="M117.677 148.806H107.719V155.782H117.677V153.379C117.071 153.379 116.584 152.895 116.584 152.294C116.584 151.693 117.071 151.209 117.677 151.209V148.806ZM114.456 152.294C114.456 152.895 113.968 153.379 113.362 153.379C112.757 153.379 112.269 152.895 112.269 152.294C112.269 151.693 112.757 151.209 113.362 151.209C113.968 151.209 114.456 151.693 114.456 152.294Z" fill="white"/>
<path d="M117.677 157.071H107.719V164.046H117.677V161.643C117.071 161.643 116.584 161.159 116.584 160.559C116.584 159.958 117.071 159.474 117.677 159.474V157.071ZM114.456 160.559C114.456 161.159 113.968 161.643 113.362 161.643C112.757 161.643 112.269 161.159 112.269 160.559C112.269 159.958 112.757 159.474 113.362 159.474C113.968 159.474 114.456 159.958 114.456 160.559Z" fill="white"/>
<path d="M107.719 140.542V147.517H117.677V145.114C117.071 145.114 116.584 144.63 116.584 144.03C116.584 143.429 117.071 142.945 117.677 142.945V140.542H107.719ZM112.263 144.03C112.263 143.429 112.751 142.945 113.356 142.945C113.962 142.945 114.45 143.429 114.45 144.03C114.45 144.63 113.962 145.114 113.356 145.114C112.751 145.114 112.263 144.63 112.263 144.03Z" fill="white"/>
<path d="M120.428 165.499H106.114V168.479H120.428V165.499Z" fill="white"/>
<path d="M131.056 180.657C133.143 180.657 134.836 178.978 134.836 176.907C134.836 174.836 133.143 173.157 131.056 173.157C128.968 173.157 127.276 174.836 127.276 176.907C127.276 178.978 128.968 180.657 131.056 180.657Z" fill="white"/>
<path d="M138.815 177.858H131.05V175.95H138.815C141.319 175.95 143.359 173.926 143.359 171.442V166.992H145.281V171.442C145.281 174.982 142.377 177.863 138.809 177.863L138.815 177.858Z" fill="white"/>
<path d="M132.014 177.857H123.291C119.722 177.857 116.819 174.976 116.819 171.436V166.986H118.741V171.436C118.741 173.921 120.781 175.944 123.285 175.944H130.086V166.986H132.008V177.857H132.014Z" fill="white"/>
</g>
</g>
<defs>
<clipPath id="clip0_151_3881">
<rect width="334" height="230" fill="white" transform="translate(14 3)"/>
</clipPath>
<clipPath id="clip1_151_3881">
<rect width="49.7714" height="44.5714" fill="white" transform="translate(106.114 136.086)"/>
</clipPath>
</defs>
</svg>
