<svg width="362" height="236" viewBox="0 0 362 236" fill="none" xmlns="http://www.w3.org/2000/svg">
<g clip-path="url(#clip0_151_3881)">
<path d="M317.548 227.466H41.7617C39.6648 225.467 37.7036 223.316 35.9053 220.995C19.3092 199.573 18.5885 166.717 33.5356 143.967C39.0038 135.644 45.9406 128.918 52.173 120.896C66.7075 102.185 62.5761 74.5711 71.8364 52.9936C80.6122 32.5446 96.3004 15.7497 115.2 7.7026C143.207 -4.2241 179.147 5.31129 202.642 24.8831C222.085 41.0792 236.939 57.2439 262.084 59.1763C293.76 61.611 321.289 71.9856 339.744 104.307C349.774 121.872 353.53 143.267 351.443 163.89C348.492 193.068 335.48 213.455 317.548 227.469V227.466Z" fill="#E6EAFB"/>
<path d="M27.8095 141.662C31.1768 136.551 34.9661 132.169 38.9808 127.53C41.679 124.426 44.1043 121.61 46.4659 118.568C54.882 107.73 57.0441 93.5752 59.1369 79.8723C60.6448 69.9947 62.2043 59.7817 66.0805 50.7461C75.0707 29.8027 90.938 13.2333 109.618 5.28396C122.964 -0.40169 138.729 -1.5247 155.2 2.03987C170.527 5.36544 185.496 12.6344 197.348 22.5093C200.205 24.883 203.061 27.349 205.58 29.5244C221.487 43.2394 235.226 55.0833 256.632 56.7332C274.209 58.0843 288.566 61.8091 300.523 68.1181C314.63 75.5677 325.753 86.6565 334.526 102.019C344.279 119.089 348.451 140.333 346.275 161.838C343.558 188.667 332.109 210.14 312.22 225.681L312.168 225.721H309.015V225.259H312.041C331.784 209.819 343.164 188.465 345.868 161.787C348.034 140.387 343.884 119.251 334.181 102.27C325.45 86.9811 314.383 75.9479 300.348 68.5377C288.437 62.2518 274.128 58.542 256.603 57.1949C235.072 55.5369 221.29 43.6523 205.329 29.8924C202.811 27.7183 199.957 25.2537 197.103 22.8827C185.299 13.0472 170.389 5.80812 155.12 2.49477C138.726 -1.05485 123.04 0.0600062 109.761 5.71714C91.1796 13.6244 75.3938 30.1096 66.4483 50.9484C62.5979 59.923 61.0438 70.1034 59.5387 79.9633C57.4377 93.7164 55.2661 107.935 46.7754 118.872C44.407 121.922 41.9762 124.744 39.274 127.852C35.2702 132.48 31.4889 136.851 28.1393 141.936C20.8904 152.979 17.1187 166.811 17.5177 180.883C17.9167 195.06 22.5286 208.537 30.5022 218.832C32.2503 221.081 34.2088 223.242 36.3234 225.258H39.5359V225.719H36.2433L36.1469 225.707L36.0872 225.637C33.9455 223.598 31.9626 221.411 30.1942 219.135C22.158 208.759 17.5095 195.18 17.1078 180.895C16.7061 166.72 20.5063 152.786 27.8095 141.659V141.662Z" fill="#3D54A5" fill-opacity="0.2"/>
<path d="M272.84 195.742C280.386 204.008 284.754 214.685 286.834 225.641H287.312C285.244 214.708 280.93 204.063 273.478 195.747C273.284 195.526 273.086 195.309 272.883 195.091C272.676 194.865 272.34 195.2 272.548 195.421C272.647 195.526 272.746 195.633 272.841 195.742H272.84Z" fill="#B9E0FB"/>
<path d="M279.344 208.098C277.753 208.805 275.849 209.017 274.032 208.688C272.214 208.36 270.496 207.493 269.237 206.271C270.759 205.38 272.354 204.84 274.235 205.132C276.116 205.424 278.124 206.78 279.342 208.098H279.344Z" fill="black"/>
<path d="M285.302 223.24C283.69 223.772 281.871 223.806 280.23 223.334C278.589 222.861 277.133 221.888 276.169 220.615C277.75 219.902 279.337 219.529 281.046 219.973C282.754 220.417 284.393 221.882 285.302 223.24Z" fill="black"/>
<path d="M280.321 191.897C278.026 193.785 277.167 196.884 278.181 199.624C279.695 199.342 280.956 197.978 281.139 196.638C281.323 195.299 281.089 193.124 280.321 191.897Z" fill="black"/>
<path d="M275.234 200.279C272.478 202.158 268.654 201.608 266.362 199.002C269.196 197.362 272.775 197.944 275.234 200.279Z" fill="black"/>
<path d="M282.248 216.763C278.388 218.385 273.932 216.924 271.909 213.372C275.793 212.047 279.945 213.493 282.248 216.763Z" fill="black"/>
<path d="M266.291 189.22C268.106 189.573 269.877 190.299 271.232 191.445C272.586 192.591 273.487 194.179 273.475 195.766C271.54 195.764 269.363 195.23 267.995 193.968C266.628 192.708 266.164 190.883 266.291 189.22Z" fill="black"/>
<path d="M287.178 199.094C287.398 200.682 287.187 202.317 286.369 203.694C285.552 205.072 284.09 206.168 282.32 206.503C281.67 204.891 281.53 202.96 282.471 201.547C283.411 200.133 285.284 199.35 287.178 199.094Z" fill="black"/>
<path d="M78.4028 224.989C79.8794 225.611 81.5868 225.779 83.1666 225.459C84.7464 225.138 86.1878 224.33 87.1894 223.206C85.7562 222.417 84.2918 221.947 82.6509 222.235C81.0114 222.524 79.3596 223.779 78.4028 224.989Z" fill="black"/>
<path d="M180.999 235.999C275.44 235.999 351.999 231.884 351.999 226.809C351.999 221.733 275.44 217.618 180.999 217.618C86.559 217.618 10 221.733 10 226.809C10 231.884 86.559 235.999 180.999 235.999Z" fill="#B6BFDE"/>
<path d="M85 94C91.1667 83.3333 112.7 62.9 149.5 66.5C195.5 71 282 65.5 281.5 119C281.1 161.8 267.333 168.833 260.5 167L144.5 187C139.833 189 126.4 188.8 110 172" stroke="#3D54A5" stroke-dasharray="2 2"/>
<path d="M242.289 142.115H154.262V211.053H242.289V142.115Z" fill="#3D54A5"/>
<path d="M254.239 123.697H142.312V155.507H254.239V123.697Z" fill="#3D54A5"/>
<path d="M247.013 127.664H149.536C147.737 127.664 146.278 129.124 146.278 130.925V148.278C146.278 150.078 147.737 151.538 149.536 151.538H247.013C248.813 151.538 250.272 150.078 250.272 148.278V130.925C250.272 129.124 248.813 127.664 247.013 127.664Z" fill="#E6EAFB"/>
<path d="M242.29 132.613H192.547V146.59H242.29V132.613Z" fill="#3D54A5"/>
<path d="M185.208 134.389H154.262V137.435H185.208V134.389Z" fill="#3D54A5"/>
<path d="M185.208 141.769H154.262V144.815H185.208V141.769Z" fill="#3D54A5"/>
<path d="M198.725 138.266C199.375 138.266 199.903 137.738 199.903 137.087C199.903 136.436 199.375 135.908 198.725 135.908C198.074 135.908 197.547 136.436 197.547 137.087C197.547 137.738 198.074 138.266 198.725 138.266Z" fill="#B9E0FB"/>
<path d="M209.406 138.266C210.057 138.266 210.584 137.738 210.584 137.087C210.584 136.436 210.057 135.908 209.406 135.908C208.756 135.908 208.228 136.436 208.228 137.087C208.228 137.738 208.756 138.266 209.406 138.266Z" fill="#B9E0FB"/>
<path d="M214.747 138.266C215.397 138.266 215.925 137.738 215.925 137.087C215.925 136.436 215.397 135.908 214.747 135.908C214.096 135.908 213.569 136.436 213.569 137.087C213.569 137.738 214.096 138.266 214.747 138.266Z" fill="#B9E0FB"/>
<path d="M220.087 138.266C220.738 138.266 221.266 137.738 221.266 137.087C221.266 136.436 220.738 135.908 220.087 135.908C219.437 135.908 218.909 136.436 218.909 137.087C218.909 137.738 219.437 138.266 220.087 138.266Z" fill="#B9E0FB"/>
<path d="M236.111 138.266C236.762 138.266 237.289 137.738 237.289 137.087C237.289 136.436 236.762 135.908 236.111 135.908C235.46 135.908 234.933 136.436 234.933 137.087C234.933 137.738 235.46 138.266 236.111 138.266Z" fill="#B9E0FB"/>
<path d="M199.175 143.204C199.777 142.955 200.062 142.266 199.813 141.664C199.564 141.063 198.875 140.777 198.274 141.026C197.673 141.275 197.387 141.965 197.636 142.566C197.885 143.168 198.574 143.453 199.175 143.204Z" fill="#B9E0FB"/>
<path d="M220.538 143.205C221.139 142.956 221.424 142.266 221.176 141.665C220.927 141.063 220.237 140.778 219.636 141.027C219.035 141.276 218.75 141.966 218.999 142.567C219.248 143.168 219.937 143.454 220.538 143.205Z" fill="#B9E0FB"/>
<path d="M226.565 142.378C226.715 141.745 226.323 141.11 225.689 140.96C225.056 140.811 224.422 141.203 224.272 141.837C224.123 142.47 224.515 143.105 225.148 143.255C225.781 143.404 226.416 143.012 226.565 142.378Z" fill="#B9E0FB"/>
<path d="M204.065 138.266C204.716 138.266 205.244 137.738 205.244 137.087C205.244 136.436 204.716 135.908 204.065 135.908C203.415 135.908 202.887 136.436 202.887 137.087C202.887 137.738 203.415 138.266 204.065 138.266Z" fill="#2C3E7D"/>
<path d="M225.428 138.266C226.079 138.266 226.606 137.738 226.606 137.087C226.606 136.436 226.079 135.908 225.428 135.908C224.778 135.908 224.25 136.436 224.25 137.087C224.25 137.738 224.778 138.266 225.428 138.266Z" fill="#2C3E7D"/>
<path d="M230.77 138.266C231.421 138.266 231.948 137.738 231.948 137.087C231.948 136.436 231.421 135.908 230.77 135.908C230.12 135.908 229.592 136.436 229.592 137.087C229.592 137.738 230.12 138.266 230.77 138.266Z" fill="#2C3E7D"/>
<path d="M204.898 142.949C205.358 142.489 205.358 141.742 204.898 141.282C204.438 140.822 203.692 140.822 203.232 141.282C202.772 141.742 202.772 142.489 203.232 142.949C203.692 143.409 204.438 143.409 204.898 142.949Z" fill="#2C3E7D"/>
<path d="M209.857 143.204C210.458 142.955 210.743 142.266 210.494 141.664C210.245 141.063 209.556 140.777 208.955 141.026C208.354 141.276 208.068 141.965 208.317 142.567C208.566 143.168 209.256 143.454 209.857 143.204Z" fill="#2C3E7D"/>
<path d="M215.198 143.205C215.799 142.956 216.085 142.266 215.836 141.665C215.587 141.063 214.897 140.778 214.296 141.027C213.695 141.276 213.41 141.965 213.659 142.567C213.908 143.168 214.597 143.454 215.198 143.205Z" fill="#2C3E7D"/>
<path d="M231.22 143.205C231.822 142.956 232.107 142.266 231.858 141.665C231.609 141.063 230.92 140.778 230.319 141.027C229.718 141.276 229.432 141.965 229.681 142.567C229.93 143.168 230.619 143.454 231.22 143.205Z" fill="#2C3E7D"/>
<path d="M236.562 143.205C237.163 142.956 237.448 142.266 237.199 141.665C236.95 141.063 236.261 140.778 235.66 141.027C235.059 141.276 234.774 141.966 235.023 142.567C235.272 143.168 235.961 143.454 236.562 143.205Z" fill="#2C3E7D"/>
<path d="M254.239 160.678H142.312V192.489H254.239V160.678Z" fill="#3D54A5"/>
<path d="M247.013 164.648H149.536C147.737 164.648 146.278 166.107 146.278 167.908V185.261C146.278 187.062 147.737 188.521 149.536 188.521H247.013C248.813 188.521 250.272 187.062 250.272 185.261V167.908C250.272 166.107 248.813 164.648 247.013 164.648Z" fill="#E6EAFB"/>
<path d="M242.29 169.596H192.547V183.573H242.29V169.596Z" fill="#3D54A5"/>
<path d="M185.208 171.372H154.262V174.418H185.208V171.372Z" fill="#3D54A5"/>
<path d="M185.208 178.752H154.262V181.798H185.208V178.752Z" fill="#3D54A5"/>
<path d="M198.725 175.249C199.375 175.249 199.903 174.721 199.903 174.07C199.903 173.419 199.375 172.892 198.725 172.892C198.074 172.892 197.547 173.419 197.547 174.07C197.547 174.721 198.074 175.249 198.725 175.249Z" fill="#B9E0FB"/>
<path d="M209.406 175.249C210.057 175.249 210.584 174.721 210.584 174.07C210.584 173.419 210.057 172.892 209.406 172.892C208.756 172.892 208.228 173.419 208.228 174.07C208.228 174.721 208.756 175.249 209.406 175.249Z" fill="#B9E0FB"/>
<path d="M214.747 175.249C215.397 175.249 215.925 174.721 215.925 174.07C215.925 173.419 215.397 172.892 214.747 172.892C214.096 172.892 213.569 173.419 213.569 174.07C213.569 174.721 214.096 175.249 214.747 175.249Z" fill="#B9E0FB"/>
<path d="M220.087 175.249C220.738 175.249 221.266 174.721 221.266 174.07C221.266 173.419 220.738 172.892 220.087 172.892C219.437 172.892 218.909 173.419 218.909 174.07C218.909 174.721 219.437 175.249 220.087 175.249Z" fill="#B9E0FB"/>
<path d="M236.111 175.249C236.762 175.249 237.289 174.721 237.289 174.07C237.289 173.419 236.762 172.892 236.111 172.892C235.46 172.892 234.933 173.419 234.933 174.07C234.933 174.721 235.46 175.249 236.111 175.249Z" fill="#B9E0FB"/>
<path d="M199.176 180.187C199.777 179.938 200.062 179.249 199.813 178.647C199.564 178.046 198.875 177.76 198.274 178.009C197.673 178.258 197.388 178.948 197.637 179.549C197.886 180.151 198.575 180.436 199.176 180.187Z" fill="#B9E0FB"/>
<path d="M220.538 180.188C221.14 179.939 221.425 179.249 221.176 178.648C220.927 178.047 220.238 177.761 219.637 178.01C219.036 178.259 218.75 178.949 218.999 179.55C219.248 180.152 219.937 180.437 220.538 180.188Z" fill="#B9E0FB"/>
<path d="M226.566 179.359C226.716 178.725 226.324 178.091 225.69 177.941C225.057 177.791 224.423 178.184 224.273 178.817C224.124 179.451 224.516 180.086 225.149 180.235C225.782 180.385 226.417 179.992 226.566 179.359Z" fill="#B9E0FB"/>
<path d="M204.065 175.249C204.716 175.249 205.244 174.721 205.244 174.07C205.244 173.419 204.716 172.892 204.065 172.892C203.415 172.892 202.887 173.419 202.887 174.07C202.887 174.721 203.415 175.249 204.065 175.249Z" fill="#2C3E7D"/>
<path d="M225.428 175.249C226.079 175.249 226.606 174.721 226.606 174.07C226.606 173.419 226.079 172.892 225.428 172.892C224.778 172.892 224.25 173.419 224.25 174.07C224.25 174.721 224.778 175.249 225.428 175.249Z" fill="#2C3E7D"/>
<path d="M230.77 175.249C231.421 175.249 231.948 174.721 231.948 174.07C231.948 173.419 231.421 172.892 230.77 172.892C230.12 172.892 229.592 173.419 229.592 174.07C229.592 174.721 230.12 175.249 230.77 175.249Z" fill="#2C3E7D"/>
<path d="M204.898 179.932C205.359 179.472 205.359 178.726 204.898 178.265C204.438 177.805 203.692 177.805 203.232 178.265C202.772 178.726 202.772 179.472 203.232 179.932C203.692 180.393 204.438 180.393 204.898 179.932Z" fill="#2C3E7D"/>
<path d="M209.857 180.188C210.458 179.939 210.744 179.249 210.495 178.648C210.246 178.046 209.557 177.761 208.956 178.01C208.354 178.259 208.069 178.948 208.318 179.55C208.567 180.151 209.256 180.437 209.857 180.188Z" fill="#2C3E7D"/>
<path d="M215.197 180.188C215.798 179.939 216.084 179.249 215.835 178.648C215.586 178.046 214.897 177.761 214.295 178.01C213.694 178.259 213.409 178.948 213.658 179.55C213.907 180.151 214.596 180.437 215.197 180.188Z" fill="#2C3E7D"/>
<path d="M231.221 180.188C231.822 179.939 232.107 179.249 231.859 178.648C231.61 178.047 230.92 177.761 230.319 178.01C229.718 178.259 229.433 178.949 229.682 179.55C229.931 180.152 230.62 180.437 231.221 180.188Z" fill="#2C3E7D"/>
<path d="M236.562 180.188C237.163 179.939 237.449 179.249 237.2 178.648C236.951 178.047 236.262 177.761 235.661 178.01C235.06 178.259 234.774 178.949 235.023 179.55C235.272 180.152 235.961 180.437 236.562 180.188Z" fill="#2C3E7D"/>
<path d="M254.239 197.662H142.312V229.472H254.239V197.662Z" fill="#3D54A5"/>
<path d="M247.013 201.631H149.536C147.737 201.631 146.278 203.091 146.278 204.891V222.244C146.278 224.045 147.737 225.505 149.536 225.505H247.013C248.813 225.505 250.272 224.045 250.272 222.244V204.891C250.272 203.091 248.813 201.631 247.013 201.631Z" fill="#E6EAFB"/>
<path d="M242.29 206.579H192.547V220.556H242.29V206.579Z" fill="#3D54A5"/>
<path d="M185.208 208.354H154.262V211.4H185.208V208.354Z" fill="#3D54A5"/>
<path d="M185.208 215.734H154.262V218.78H185.208V215.734Z" fill="#3D54A5"/>
<path d="M198.725 212.232C199.375 212.232 199.903 211.704 199.903 211.053C199.903 210.402 199.375 209.875 198.725 209.875C198.074 209.875 197.547 210.402 197.547 211.053C197.547 211.704 198.074 212.232 198.725 212.232Z" fill="#B9E0FB"/>
<path d="M209.406 212.232C210.057 212.232 210.584 211.704 210.584 211.053C210.584 210.402 210.057 209.875 209.406 209.875C208.756 209.875 208.228 210.402 208.228 211.053C208.228 211.704 208.756 212.232 209.406 212.232Z" fill="#B9E0FB"/>
<path d="M214.747 212.232C215.397 212.232 215.925 211.704 215.925 211.053C215.925 210.402 215.397 209.875 214.747 209.875C214.096 209.875 213.569 210.402 213.569 211.053C213.569 211.704 214.096 212.232 214.747 212.232Z" fill="#B9E0FB"/>
<path d="M220.087 212.232C220.738 212.232 221.266 211.704 221.266 211.053C221.266 210.402 220.738 209.875 220.087 209.875C219.437 209.875 218.909 210.402 218.909 211.053C218.909 211.704 219.437 212.232 220.087 212.232Z" fill="#B9E0FB"/>
<path d="M236.111 212.232C236.762 212.232 237.289 211.704 237.289 211.053C237.289 210.402 236.762 209.875 236.111 209.875C235.46 209.875 234.933 210.402 234.933 211.053C234.933 211.704 235.46 212.232 236.111 212.232Z" fill="#B9E0FB"/>
<path d="M199.175 217.172C199.776 216.923 200.062 216.233 199.813 215.632C199.564 215.03 198.875 214.745 198.273 214.994C197.672 215.243 197.387 215.932 197.636 216.534C197.885 217.135 198.574 217.421 199.175 217.172Z" fill="#B9E0FB"/>
<path d="M220.539 217.171C221.14 216.922 221.425 216.232 221.177 215.631C220.928 215.03 220.238 214.744 219.637 214.993C219.036 215.242 218.751 215.932 219 216.533C219.249 217.134 219.938 217.42 220.539 217.171Z" fill="#B9E0FB"/>
<path d="M226.567 216.341C226.717 215.708 226.325 215.073 225.691 214.923C225.058 214.774 224.424 215.166 224.274 215.8C224.125 216.433 224.517 217.068 225.15 217.218C225.783 217.367 226.418 216.975 226.567 216.341Z" fill="#B9E0FB"/>
<path d="M204.065 212.232C204.716 212.232 205.244 211.704 205.244 211.053C205.244 210.402 204.716 209.875 204.065 209.875C203.415 209.875 202.887 210.402 202.887 211.053C202.887 211.704 203.415 212.232 204.065 212.232Z" fill="#2C3E7D"/>
<path d="M225.428 212.232C226.079 212.232 226.606 211.704 226.606 211.053C226.606 210.402 226.079 209.875 225.428 209.875C224.778 209.875 224.25 210.402 224.25 211.053C224.25 211.704 224.778 212.232 225.428 212.232Z" fill="#2C3E7D"/>
<path d="M230.77 212.232C231.421 212.232 231.948 211.704 231.948 211.053C231.948 210.402 231.421 209.875 230.77 209.875C230.12 209.875 229.592 210.402 229.592 211.053C229.592 211.704 230.12 212.232 230.77 212.232Z" fill="#2C3E7D"/>
<path d="M204.899 216.915C205.359 216.455 205.359 215.709 204.899 215.249C204.438 214.788 203.693 214.788 203.233 215.249C202.772 215.709 202.772 216.455 203.233 216.915C203.693 217.376 204.438 217.376 204.899 216.915Z" fill="#2C3E7D"/>
<path d="M209.858 217.171C210.459 216.922 210.744 216.232 210.495 215.631C210.246 215.029 209.557 214.744 208.956 214.993C208.355 215.242 208.069 215.931 208.318 216.533C208.567 217.134 209.257 217.42 209.858 217.171Z" fill="#2C3E7D"/>
<path d="M215.198 217.171C215.799 216.922 216.084 216.232 215.835 215.631C215.586 215.029 214.897 214.744 214.296 214.993C213.695 215.242 213.409 215.931 213.658 216.533C213.907 217.134 214.597 217.42 215.198 217.171Z" fill="#2C3E7D"/>
<path d="M231.221 217.171C231.823 216.922 232.108 216.232 231.859 215.631C231.61 215.03 230.921 214.744 230.32 214.993C229.719 215.242 229.433 215.932 229.682 216.533C229.931 217.134 230.62 217.42 231.221 217.171Z" fill="#2C3E7D"/>
<path d="M236.561 217.171C237.163 216.922 237.448 216.232 237.199 215.631C236.95 215.03 236.261 214.744 235.66 214.993C235.059 215.242 234.773 215.932 235.022 216.533C235.271 217.134 235.96 217.42 236.561 217.171Z" fill="#2C3E7D"/>
<path d="M245.708 44.7017H151.911C149.158 44.7017 146.925 46.9355 146.925 49.6907V120.679H250.696V49.6907C250.696 46.9355 248.463 44.7017 245.709 44.7017H245.708Z" fill="#1C274D"/>
<path d="M150.732 113.122V48.512H246.886V113.124H150.731L150.732 113.122Z" fill="white"/>
<path d="M136.011 117.758V119.695C136.011 121.851 137.758 123.6 139.915 123.6H257.704C259.859 123.6 261.608 121.852 261.608 119.695V117.758H136.011Z" fill="#0C1638"/>
<path d="M184.245 117.758V118.043C184.245 118.526 184.635 118.917 185.117 118.917H212.501C212.982 118.917 213.373 118.526 213.373 118.043V117.758H184.245Z" fill="#070D21"/>
<path d="M233.801 54.1353H165.877C164.06 54.1353 162.587 55.609 162.587 57.4269V103.841C162.587 105.659 164.06 107.133 165.877 107.133H233.801C235.618 107.133 237.091 105.659 237.091 103.841V57.4269C237.091 55.609 235.618 54.1353 233.801 54.1353Z" fill="#3D54A5"/>
<path d="M232.488 59.6877H167.19C165.373 59.6877 163.9 61.1615 163.9 62.9794V103.076C163.9 104.894 165.373 106.368 167.19 106.368H232.488C234.305 106.368 235.778 104.894 235.778 103.076V62.9794C235.778 61.1615 234.305 59.6877 232.488 59.6877Z" fill="white"/>
<path d="M170.554 58.6652C171.573 58.6652 172.399 57.839 172.399 56.8198C172.399 55.8006 171.573 54.9744 170.554 54.9744C169.536 54.9744 168.71 55.8006 168.71 56.8198C168.71 57.839 169.536 58.6652 170.554 58.6652Z" fill="white"/>
<path d="M175.564 58.6652C176.582 58.6652 177.408 57.839 177.408 56.8198C177.408 55.8006 176.582 54.9744 175.564 54.9744C174.545 54.9744 173.719 55.8006 173.719 56.8198C173.719 57.839 174.545 58.6652 175.564 58.6652Z" fill="white"/>
<path d="M180.537 58.6652C181.555 58.6652 182.381 57.839 182.381 56.8198C182.381 55.8006 181.555 54.9744 180.537 54.9744C179.518 54.9744 178.692 55.8006 178.692 56.8198C178.692 57.839 179.518 58.6652 180.537 58.6652Z" fill="white"/>
<path d="M164.125 75.7849C168.074 74.1482 169.95 69.618 168.314 65.6665C166.678 61.7151 162.15 59.8386 158.2 61.4754C154.251 63.1121 152.376 67.6423 154.012 71.5937C155.647 75.5452 160.175 77.4217 164.125 75.7849Z" fill="#3D54A5"/>
<path d="M159.999 72.4902L156.841 69.3303C156.533 69.0221 156.533 68.521 156.841 68.2127C157.149 67.9045 157.65 67.9045 157.958 68.2127L159.998 70.2537L164.364 65.8852C164.672 65.577 165.173 65.577 165.481 65.8852C165.789 66.1935 165.789 66.6946 165.481 67.0028L159.998 72.4902H159.999Z" fill="white"/>
<path d="M189.95 81.0439C184.54 81.0439 180.155 85.4314 180.155 90.8441C180.155 96.2568 184.54 100.644 189.95 100.644C195.36 100.644 199.745 96.2568 199.745 90.8441C199.745 85.4314 195.36 81.0439 189.95 81.0439ZM189.95 96.9304C186.591 96.9304 183.869 94.2064 183.869 90.8455C183.869 87.4846 186.591 84.7592 189.95 84.7592C193.309 84.7592 196.033 87.4832 196.033 90.8455C196.033 94.2077 193.311 96.9304 189.95 96.9304Z" fill="#3D54A5"/>
<path d="M189.95 94.5785C192.012 94.5785 193.683 92.9066 193.683 90.8442C193.683 88.7818 192.012 87.1099 189.95 87.1099C187.889 87.1099 186.218 88.7818 186.218 90.8442C186.218 92.9066 187.889 94.5785 189.95 94.5785Z" fill="#3D54A5"/>
<path d="M191.531 78.6159C191.002 78.5466 190.47 78.5127 189.952 78.5127C189.433 78.5127 188.901 78.548 188.37 78.6159L188.242 78.6322L187.23 83.1595H192.67L191.659 78.6322L191.53 78.6159H191.531Z" fill="#3D54A5"/>
<path d="M188.242 103.056L188.37 103.072C188.9 103.141 189.432 103.175 189.952 103.175C190.471 103.175 191.002 103.14 191.531 103.072L191.66 103.056L192.671 98.5217H187.232L188.243 103.056H188.242Z" fill="#3D54A5"/>
<path d="M182.426 81.0793C182 81.4065 181.599 81.7582 181.234 82.1235C180.864 82.4942 180.512 82.8948 180.19 83.3158L180.112 83.419L182.595 87.3352L186.443 83.4869L182.529 81.0005L182.427 81.0793H182.426Z" fill="#3D54A5"/>
<path d="M193.453 98.1987L197.372 100.689L197.473 100.61C197.899 100.282 198.3 99.9314 198.665 99.5648C199.034 99.1968 199.386 98.7948 199.71 98.3739L199.789 98.272L197.3 94.3503L193.452 98.2001L193.453 98.1987Z" fill="#3D54A5"/>
<path d="M182.271 88.1228L177.746 89.1345L177.73 89.2635C177.661 89.7917 177.625 90.3254 177.625 90.8455C177.625 91.3655 177.661 91.8978 177.73 92.4274L177.746 92.5564L182.271 93.5681V88.1255V88.1228Z" fill="#3D54A5"/>
<path d="M202.172 89.2635L202.156 89.1345L197.624 88.1228V93.5654L202.156 92.5537L202.172 92.4247C202.241 91.8965 202.277 91.3642 202.277 90.8427C202.277 90.3213 202.241 89.7903 202.172 89.2607V89.2635Z" fill="#3D54A5"/>
<path d="M180.113 98.2707L180.192 98.3725C180.515 98.7935 180.866 99.194 181.236 99.5634C181.601 99.9287 182.001 100.28 182.427 100.609L182.529 100.688L186.443 98.2014L182.595 94.353L180.112 98.2693L180.113 98.2707Z" fill="#3D54A5"/>
<path d="M199.789 83.419L199.71 83.3158C199.387 82.8948 199.036 82.4942 198.665 82.1235C198.3 81.7569 197.9 81.4065 197.473 81.0793L197.372 81.0005L193.453 83.4909L197.301 87.3407L199.79 83.419H199.789Z" fill="#3D54A5"/>
<path d="M212.334 74.7879C212.163 74.1687 211.92 73.5807 211.61 73.0334C210.8 73.3281 209.858 73.157 209.209 72.5066C208.56 71.8561 208.388 70.9151 208.683 70.1044C208.136 69.7948 207.548 69.5517 206.929 69.3806C206.564 70.1614 205.778 70.7046 204.859 70.7046C203.941 70.7046 203.155 70.1601 202.79 69.3806C202.171 69.5517 201.583 69.7948 201.036 70.1044C201.331 70.9151 201.16 71.8575 200.509 72.5066C199.859 73.157 198.919 73.3281 198.109 73.0334C197.798 73.5807 197.556 74.1687 197.385 74.7879C198.166 75.1532 198.708 75.9394 198.708 76.8587C198.708 77.7781 198.164 78.5643 197.385 78.9296C197.556 79.5488 197.799 80.1368 198.109 80.684C198.919 80.3893 199.861 80.5604 200.509 81.2109C201.16 81.8613 201.331 82.8024 201.036 83.6131C201.583 83.9227 202.171 84.1658 202.79 84.3369C203.155 83.556 203.941 83.0129 204.859 83.0129C205.778 83.0129 206.564 83.5574 206.929 84.3369C207.548 84.1658 208.136 83.9227 208.683 83.6131C208.388 82.8024 208.559 81.86 209.209 81.2109C209.859 80.5604 210.8 80.3893 211.61 80.684C211.921 80.1368 212.163 79.5488 212.334 78.9296C211.553 78.5643 211.01 77.7781 211.01 76.8587C211.01 75.9394 211.555 75.1532 212.334 74.7879ZM204.859 79.5732C203.361 79.5732 202.145 78.3579 202.145 76.8574C202.145 75.3569 203.36 74.1415 204.859 74.1415C206.359 74.1415 207.574 75.3569 207.574 76.8574C207.574 78.3579 206.359 79.5732 204.859 79.5732Z" fill="#3D54A5"/>
<path d="M220.708 86.9576C220.537 86.3384 220.294 85.7504 219.984 85.2031C219.174 85.4978 218.232 85.3267 217.583 84.6762C216.933 84.0258 216.762 83.0848 217.057 82.2741C216.51 81.9645 215.922 81.7214 215.303 81.5503C214.938 82.3311 214.152 82.8743 213.233 82.8743C212.315 82.8743 211.529 82.3297 211.164 81.5503C210.545 81.7214 209.957 81.9645 209.41 82.2741C209.705 83.0848 209.534 84.0272 208.884 84.6762C208.233 85.3267 207.293 85.4978 206.483 85.2031C206.172 85.7504 205.93 86.3384 205.759 86.9576C206.54 87.3229 207.082 88.1091 207.082 89.0284C207.082 89.9477 206.538 90.734 205.759 91.0993C205.93 91.7185 206.173 92.3065 206.483 92.8537C207.293 92.559 208.235 92.7301 208.884 93.3806C209.534 94.031 209.705 94.9721 209.41 95.7828C209.957 96.0924 210.545 96.3354 211.164 96.5065C211.529 95.7257 212.315 95.1825 213.233 95.1825C214.152 95.1825 214.938 95.7271 215.303 96.5065C215.922 96.3354 216.51 96.0924 217.057 95.7828C216.762 94.9721 216.933 94.0297 217.583 93.3806C218.233 92.7301 219.174 92.559 219.984 92.8537C220.295 92.3065 220.537 91.7185 220.708 91.0993C219.927 90.734 219.384 89.9477 219.384 89.0284C219.384 88.1091 219.929 87.3229 220.708 86.9576ZM213.233 91.7429C211.735 91.7429 210.519 90.5276 210.519 89.0271C210.519 87.5265 211.734 86.3112 213.233 86.3112C214.733 86.3112 215.948 87.5265 215.948 89.0271C215.948 90.5276 214.733 91.7429 213.233 91.7429Z" fill="#3D54A5"/>
<path d="M177.209 61.5332H171.377V67.1686H177.209V61.5332Z" fill="#3D54A5"/>
<path d="M231.64 61.9324H179.003V63.3283H231.64V61.9324Z" fill="#3D54A5"/>
<path d="M231.64 65.6233H179.003V67.0192H231.64V65.6233Z" fill="#3D54A5"/>
<path d="M223.882 152.403H274.178C281.868 152.403 288.113 158.65 288.113 166.345V216.667C288.113 224.361 281.87 230.609 274.178 230.609H223.882C216.192 230.609 209.948 224.362 209.948 216.667V166.345C209.948 158.651 216.191 152.403 223.882 152.403Z" fill="#1C274D"/>
<path d="M247.657 216.027C241.922 215.664 236.523 213.001 232.841 208.716C229.264 204.609 227.456 199.218 227.882 193.918C228.242 188.824 230.645 184.037 234.481 180.782C234.862 180.454 235.273 180.144 235.697 179.844L238.114 186.168L245.039 170.628L229.745 164.273L232.115 170.474C230.614 171.592 229.222 172.86 227.984 174.262C223.137 179.636 220.615 186.799 221.067 193.908C221.43 200.714 224.667 207.415 229.721 211.829C234.177 215.812 240.134 218.096 246.062 218.096C246.595 218.096 247.133 218.077 247.676 218.039C248.177 217.992 248.557 217.609 248.603 217.108C248.626 216.849 248.544 216.594 248.375 216.391C248.2 216.184 247.943 216.051 247.658 216.027H247.657Z" fill="white"/>
<path d="M250.404 166.986C256.138 167.35 261.537 170.013 265.219 174.297C268.797 178.405 270.605 183.796 270.178 189.096C269.819 194.189 267.415 198.976 263.58 202.231C263.198 202.56 262.787 202.869 262.364 203.169L259.946 196.845L253.022 212.386L268.315 218.741L265.945 212.539C267.446 211.421 268.839 210.153 270.077 208.752C274.923 203.377 277.445 196.214 276.993 189.105C276.631 182.299 273.394 175.598 268.339 171.185C263.884 167.202 257.927 164.918 251.998 164.918C251.465 164.918 250.928 164.937 250.385 164.975C249.884 165.021 249.504 165.404 249.458 165.905C249.435 166.164 249.516 166.42 249.686 166.622C249.861 166.83 250.117 166.963 250.402 166.986H250.404Z" fill="white"/>
<circle cx="84.5" cy="134.5" r="44.5" fill="#3D54A5"/>
<g clip-path="url(#clip1_151_3881)">
<path d="M83.9999 148.175C83.7242 148.175 83.4548 148.208 83.1983 148.273V148.683C81.8899 149.04 80.9214 150.257 80.9214 151.694C80.9214 153.418 82.3004 154.816 83.9999 154.816C85.6995 154.816 87.0785 153.418 87.0785 151.694C87.0785 150.257 86.11 149.04 84.8016 148.683V148.273C84.5451 148.208 84.2757 148.175 83.9999 148.175ZM85.4751 151.688C85.4751 152.514 84.8145 153.184 83.9999 153.184C83.1854 153.184 82.5248 152.514 82.5248 151.688C82.5248 150.862 83.1854 150.192 83.9999 150.192C84.8145 150.192 85.4751 150.862 85.4751 151.688Z" fill="white"/>
<path d="M90.2275 149.086L89.7914 148.019L90.8753 147.193C90.2468 146.211 89.4258 145.365 88.451 144.728L87.63 145.827L86.5782 145.385L85.5264 144.943L85.7188 143.577C85.1608 143.453 84.5836 143.388 83.9936 143.388C83.4035 143.388 82.8391 143.453 82.2876 143.57L82.4736 144.936L81.4217 145.378L80.3699 145.821L79.5554 144.722C78.5869 145.359 77.7532 146.198 77.1247 147.18L78.2085 148.013L77.7724 149.079L77.3363 150.146L75.9895 149.951C75.8676 150.517 75.8035 151.102 75.8035 151.701C75.8035 152.299 75.8676 152.871 75.983 153.431L77.3299 153.242L77.766 154.309L78.2021 155.376L77.1182 156.202C77.7468 157.184 78.5677 158.029 79.5426 158.667L80.3635 157.567L81.4153 158.01L82.4671 158.452L82.2747 159.818C82.8327 159.942 83.4099 160.007 84 160.007C84.59 160.007 85.1544 159.942 85.706 159.824L85.52 158.459L86.5718 158.016L87.6236 157.574L88.4382 158.673C89.4066 158.036 90.2404 157.203 90.8689 156.215L89.785 155.382L90.2211 154.315L90.6572 153.249L92.0041 153.444C92.1259 152.878 92.1901 152.293 92.1901 151.694C92.1901 151.096 92.1259 150.523 92.0105 149.964L90.6637 150.153L90.2275 149.086ZM84 156.833C81.2037 156.833 78.9333 154.53 78.9333 151.694C78.9333 148.858 81.2037 146.556 84 146.556C86.7963 146.556 89.0667 148.858 89.0667 151.694C89.0667 154.53 86.7963 156.833 84 156.833Z" fill="white"/>
<path d="M98.5844 116.955C98.097 116.955 97.616 117 97.1478 117.072C95.2686 112.343 90.7022 109 85.3661 109C80.96 109 77.0734 111.283 74.7966 114.737C74.4182 114.678 74.0269 114.639 73.6293 114.639C69.4733 114.639 66.0613 117.865 65.6893 121.983C61.8989 122.607 58.9936 125.931 58.9936 129.957C58.9936 134.425 62.5659 138.042 66.9656 138.042L76.3358 138.055V126.939H91.6514V138.074H98.578C104.331 138.081 108.994 133.352 108.994 127.518C108.994 121.683 104.331 116.955 98.578 116.955H98.5844Z" fill="white"/>
<path d="M96.4936 145.32C95.8907 145.32 95.3263 145.502 94.8453 145.808L89.8876 140.78V128.728H88.2843V141.456L93.755 147.005C93.537 147.434 93.4087 147.922 93.4087 148.442C93.4087 150.166 94.7876 151.564 96.4872 151.564C98.1868 151.564 99.5657 150.166 99.5657 148.442C99.5657 146.718 98.1868 145.32 96.4872 145.32H96.4936ZM96.4936 149.938C95.6791 149.938 95.0185 149.268 95.0185 148.442C95.0185 147.616 95.6791 146.946 96.4936 146.946C97.3081 146.946 97.9687 147.616 97.9687 148.442C97.9687 149.268 97.3081 149.938 96.4936 149.938ZM78.106 140.78L73.1483 145.808C72.6737 145.502 72.1093 145.32 71.5 145.32C69.8004 145.32 68.4215 146.718 68.4215 148.442C68.4215 150.166 69.8004 151.564 71.5 151.564C73.1996 151.564 74.5785 150.166 74.5785 148.442C74.5785 147.922 74.4502 147.434 74.2322 147.005L79.7029 141.456V128.728H78.0995V140.78H78.106ZM71.5064 149.938C70.6919 149.938 70.0313 149.268 70.0313 148.442C70.0313 147.616 70.6919 146.946 71.5064 146.946C72.3209 146.946 72.9815 147.616 72.9815 148.442C72.9815 149.268 72.3209 149.938 71.5064 149.938ZM83.1983 141.795V128.734H84.8017V141.795C84.5323 141.769 84.263 141.756 84 141.756C83.7371 141.756 83.4677 141.769 83.1983 141.795Z" fill="white"/>
</g>
</g>
<defs>
<clipPath id="clip0_151_3881">
<rect width="342" height="236" fill="white" transform="translate(10)"/>
</clipPath>
<clipPath id="clip1_151_3881">
<rect width="50" height="51" fill="white" transform="translate(59 109)"/>
</clipPath>
</defs>
</svg>
